<svg width="796" height="408" viewBox="0 0 796 408" fill="none" xmlns="http://www.w3.org/2000/svg">
<path d="M794 331.073L780.079 341.378L795.964 348.281L794 331.073ZM2 331.073L0.0355489 348.281L15.921 341.378L2 331.073ZM787.494 342.462C779.984 351.009 764.293 359.254 741.58 366.774C718.945 374.267 689.59 380.961 655.033 386.554C585.924 397.739 496.148 404.5 398 404.5V407.5C496.27 407.5 586.211 400.732 655.512 389.516C690.16 383.908 719.683 377.183 742.523 369.622C765.284 362.086 781.665 353.641 789.747 344.442L787.494 342.462ZM398 404.5C299.852 404.5 210.076 397.739 140.967 386.554C106.41 380.961 77.0552 374.267 54.4202 366.774C31.7073 359.254 16.0164 351.009 8.50637 342.462L6.25275 344.442C14.3351 353.641 30.7157 362.086 53.4774 369.622C76.317 377.183 105.84 383.908 140.488 389.516C209.789 400.732 299.73 407.5 398 407.5V404.5Z" fill="url(#paint0_linear_111_3890)"/>
<g clip-path="url(#clip0_111_3890)">
<rect x="98" y="-0.000244141" width="600.033" height="354.051" rx="40.3324" fill="#7579FF"/>
<g opacity="0.2">
<path d="M46.7137 567.293C71.6562 592.235 71.6562 632.675 46.7137 657.618C21.7712 682.56 -18.6685 682.56 -43.611 657.618M408.012 205.994C432.955 230.937 432.955 271.376 408.012 296.319C383.07 321.261 342.63 321.261 317.688 296.319M227.363 386.644C252.306 411.586 252.306 452.026 227.363 476.968C202.421 501.911 161.981 501.911 137.038 476.968M588.662 25.3448C613.604 50.2873 613.604 90.727 588.662 115.669C563.719 140.612 523.28 140.612 498.337 115.67M47.2231 567.802C22.2806 542.86 21.941 502.08 46.8835 477.138C71.826 452.196 112.266 452.196 137.208 477.138M408.522 206.504C383.579 181.561 383.24 140.782 408.182 115.839C433.125 90.8968 473.564 90.8968 498.507 115.839M227.872 387.153C202.93 362.21 202.59 321.431 227.533 296.489C252.475 271.546 292.915 271.546 317.858 296.489M589.171 25.8542C564.229 0.911707 563.889 -39.8676 588.832 -64.8101C613.774 -89.7525 654.214 -89.7525 679.156 -64.8101" stroke="url(#paint1_linear_111_3890)" stroke-width="4.71155"/>
</g>
<path d="M152.113 78.0597C152.113 79.1098 151.86 80.0942 151.354 81.013C150.866 81.9318 150.088 82.6725 149.019 83.235C147.969 83.7975 146.638 84.0788 145.025 84.0788H141.734V91.6167H137.797V71.9844H145.025C146.544 71.9844 147.838 72.2469 148.907 72.7719C149.975 73.2969 150.772 74.0188 151.297 74.9376C151.841 75.8564 152.113 76.8971 152.113 78.0597ZM144.856 80.9005C145.944 80.9005 146.75 80.6567 147.275 80.1692C147.8 79.6629 148.063 78.9597 148.063 78.0597C148.063 76.1471 146.994 75.1908 144.856 75.1908H141.734V80.9005H144.856ZM158.847 75.1627V80.0848H165.456V83.2069H158.847V88.4103H166.3V91.6167H154.909V71.9562H166.3V75.1627H158.847ZM176.741 71.9844C178.804 71.9844 180.614 72.3875 182.17 73.1938C183.745 74.0001 184.954 75.1533 185.798 76.6534C186.661 78.1347 187.092 79.8598 187.092 81.8287C187.092 83.7975 186.661 85.5226 185.798 87.0039C184.954 88.4665 183.745 89.601 182.17 90.4073C180.614 91.2136 178.804 91.6167 176.741 91.6167H169.879V71.9844H176.741ZM176.601 88.2696C178.663 88.2696 180.257 87.7071 181.382 86.582C182.507 85.457 183.07 83.8725 183.07 81.8287C183.07 79.7848 182.507 78.191 181.382 77.0471C180.257 75.8846 178.663 75.3033 176.601 75.3033H173.816V88.2696H176.601ZM200.165 91.6167L195.834 83.9663H193.977V91.6167H190.04V71.9844H197.409C198.928 71.9844 200.221 72.2562 201.29 72.8C202.359 73.3251 203.156 74.047 203.681 74.9658C204.225 75.8658 204.497 76.8784 204.497 78.0034C204.497 79.2973 204.122 80.4692 203.372 81.5193C202.622 82.5506 201.506 83.2631 200.025 83.6569L204.722 91.6167H200.165ZM193.977 81.013H197.268C198.337 81.013 199.134 80.7598 199.659 80.2536C200.184 79.7285 200.446 79.0066 200.446 78.0878C200.446 77.1878 200.184 76.494 199.659 76.0065C199.134 75.5002 198.337 75.247 197.268 75.247H193.977V81.013ZM217.171 91.8136C215.334 91.8136 213.646 91.3823 212.108 90.5198C210.571 89.6572 209.352 88.4665 208.452 86.9477C207.552 85.4101 207.102 83.6756 207.102 81.7443C207.102 79.8317 207.552 78.1159 208.452 76.5971C209.352 75.0595 210.571 73.8595 212.108 72.9969C213.646 72.1344 215.334 71.7031 217.171 71.7031C219.028 71.7031 220.715 72.1344 222.234 72.9969C223.772 73.8595 224.981 75.0595 225.862 76.5971C226.762 78.1159 227.212 79.8317 227.212 81.7443C227.212 83.6756 226.762 85.4101 225.862 86.9477C224.981 88.4665 223.772 89.6572 222.234 90.5198C220.696 91.3823 219.009 91.8136 217.171 91.8136ZM217.171 88.2978C218.352 88.2978 219.393 88.0352 220.293 87.5102C221.193 86.9664 221.896 86.1976 222.403 85.2038C222.909 84.21 223.162 83.0568 223.162 81.7443C223.162 80.4317 222.909 79.2879 222.403 78.3128C221.896 77.319 221.193 76.5596 220.293 76.0346C219.393 75.5096 218.352 75.247 217.171 75.247C215.99 75.247 214.94 75.5096 214.021 76.0346C213.121 76.5596 212.418 77.319 211.912 78.3128C211.405 79.2879 211.152 80.4317 211.152 81.7443C211.152 83.0568 211.405 84.21 211.912 85.2038C212.418 86.1976 213.121 86.9664 214.021 87.5102C214.94 88.0352 215.99 88.2978 217.171 88.2978ZM250.513 77.8909C250.063 77.0659 249.445 76.4377 248.657 76.0065C247.87 75.5752 246.951 75.3595 245.901 75.3595C244.738 75.3595 243.707 75.6221 242.807 76.1471C241.907 76.6721 241.204 77.4222 240.697 78.3972C240.191 79.3723 239.938 80.4973 239.938 81.7724C239.938 83.085 240.191 84.2288 240.697 85.2038C241.222 86.1789 241.944 86.9289 242.863 87.454C243.782 87.979 244.851 88.2415 246.069 88.2415C247.57 88.2415 248.798 87.8477 249.754 87.0602C250.71 86.2539 251.339 85.1382 251.639 83.7131H244.888V80.7036H255.52V84.135C255.257 85.5039 254.695 86.7696 253.832 87.9321C252.97 89.0947 251.854 90.0322 250.485 90.7448C249.135 91.4386 247.616 91.7855 245.929 91.7855C244.035 91.7855 242.319 91.3636 240.782 90.5198C239.263 89.6572 238.063 88.4665 237.181 86.9477C236.319 85.4289 235.888 83.7038 235.888 81.7724C235.888 79.841 236.319 78.1159 237.181 76.5971C238.063 75.0595 239.263 73.8688 240.782 73.025C242.319 72.1625 244.026 71.7312 245.901 71.7312C248.113 71.7312 250.035 72.275 251.667 73.3626C253.298 74.4314 254.423 75.9408 255.042 77.8909H250.513ZM267.546 91.8136C265.709 91.8136 264.021 91.3823 262.484 90.5198C260.946 89.6572 259.727 88.4665 258.827 86.9477C257.927 85.4101 257.477 83.6756 257.477 81.7443C257.477 79.8317 257.927 78.1159 258.827 76.5971C259.727 75.0595 260.946 73.8595 262.484 72.9969C264.021 72.1344 265.709 71.7031 267.546 71.7031C269.403 71.7031 271.09 72.1344 272.609 72.9969C274.147 73.8595 275.356 75.0595 276.237 76.5971C277.137 78.1159 277.587 79.8317 277.587 81.7443C277.587 83.6756 277.137 85.4101 276.237 86.9477C275.356 88.4665 274.147 89.6572 272.609 90.5198C271.071 91.3823 269.384 91.8136 267.546 91.8136ZM267.546 88.2978C268.728 88.2978 269.768 88.0352 270.668 87.5102C271.568 86.9664 272.272 86.1976 272.778 85.2038C273.284 84.21 273.537 83.0568 273.537 81.7443C273.537 80.4317 273.284 79.2879 272.778 78.3128C272.272 77.319 271.568 76.5596 270.668 76.0346C269.768 75.5096 268.728 75.247 267.546 75.247C266.365 75.247 265.315 75.5096 264.396 76.0346C263.496 76.5596 262.793 77.319 262.287 78.3128C261.78 79.2879 261.527 80.4317 261.527 81.7443C261.527 83.0568 261.78 84.21 262.287 85.2038C262.793 86.1976 263.496 86.9664 264.396 87.5102C265.315 88.0352 266.365 88.2978 267.546 88.2978ZM301.921 71.9844V91.6167H297.984V78.8472L292.724 91.6167H289.743L284.455 78.8472V91.6167H280.517V71.9844H284.989L291.233 86.582L297.477 71.9844H301.921ZM309.752 75.1627V80.0848H316.362V83.2069H309.752V88.4103H317.206V91.6167H305.814V71.9562H317.206V75.1627H309.752ZM324.806 88.2978H333.638V91.6167H320.25V88.579L329.025 75.3033H320.25V71.9844H333.638V75.022L324.806 88.2978Z" fill="white"/>
<path d="M145.231 148.802H143.866L138.376 140.476V148.802H137.011V138.331H138.376L143.866 146.642V138.331H145.231V148.802ZM154.849 140.581V148.802H153.484V147.587C153.224 148.007 152.859 148.337 152.389 148.577C151.929 148.807 151.419 148.922 150.859 148.922C150.219 148.922 149.644 148.792 149.134 148.532C148.624 148.262 148.219 147.862 147.919 147.332C147.628 146.802 147.483 146.157 147.483 145.397V140.581H148.834V145.217C148.834 146.027 149.039 146.652 149.449 147.092C149.859 147.522 150.419 147.737 151.129 147.737C151.859 147.737 152.434 147.512 152.854 147.062C153.274 146.612 153.484 145.957 153.484 145.097V140.581H154.849ZM167.039 140.431C167.679 140.431 168.249 140.566 168.749 140.836C169.249 141.096 169.644 141.491 169.934 142.021C170.224 142.551 170.369 143.196 170.369 143.956V148.802H169.019V144.151C169.019 143.331 168.814 142.706 168.404 142.276C168.004 141.836 167.459 141.616 166.769 141.616C166.059 141.616 165.494 141.846 165.074 142.306C164.654 142.756 164.444 143.411 164.444 144.272V148.802H163.094V144.151C163.094 143.331 162.889 142.706 162.479 142.276C162.079 141.836 161.534 141.616 160.844 141.616C160.134 141.616 159.569 141.846 159.149 142.306C158.729 142.756 158.519 143.411 158.519 144.272V148.802H157.154V140.581H158.519V141.766C158.789 141.336 159.149 141.006 159.599 140.776C160.059 140.546 160.564 140.431 161.114 140.431C161.804 140.431 162.414 140.586 162.944 140.896C163.474 141.206 163.869 141.661 164.129 142.261C164.359 141.681 164.739 141.231 165.269 140.911C165.799 140.591 166.389 140.431 167.039 140.431ZM180.109 144.377C180.109 144.637 180.094 144.912 180.064 145.202H173.494C173.544 146.012 173.819 146.647 174.319 147.107C174.829 147.557 175.444 147.782 176.164 147.782C176.754 147.782 177.244 147.647 177.634 147.377C178.034 147.097 178.314 146.727 178.474 146.267H179.944C179.724 147.057 179.284 147.702 178.624 148.202C177.964 148.692 177.144 148.937 176.164 148.937C175.384 148.937 174.684 148.762 174.064 148.412C173.454 148.062 172.974 147.567 172.624 146.927C172.274 146.277 172.099 145.527 172.099 144.677C172.099 143.826 172.269 143.081 172.609 142.441C172.949 141.801 173.424 141.311 174.034 140.971C174.654 140.621 175.364 140.446 176.164 140.446C176.944 140.446 177.634 140.616 178.234 140.956C178.834 141.296 179.294 141.766 179.614 142.366C179.944 142.956 180.109 143.626 180.109 144.377ZM178.699 144.091C178.699 143.571 178.584 143.126 178.354 142.756C178.124 142.376 177.809 142.091 177.409 141.901C177.019 141.701 176.584 141.601 176.104 141.601C175.414 141.601 174.824 141.821 174.334 142.261C173.854 142.701 173.579 143.311 173.509 144.091H178.699ZM183.276 141.916C183.516 141.446 183.856 141.081 184.296 140.821C184.746 140.561 185.291 140.431 185.931 140.431V141.841H185.571C184.041 141.841 183.276 142.671 183.276 144.332V148.802H181.911V140.581H183.276V141.916ZM191.092 148.937C190.322 148.937 189.622 148.762 188.992 148.412C188.372 148.062 187.882 147.567 187.522 146.927C187.172 146.277 186.997 145.527 186.997 144.677C186.997 143.836 187.177 143.096 187.537 142.456C187.907 141.806 188.407 141.311 189.037 140.971C189.667 140.621 190.372 140.446 191.152 140.446C191.932 140.446 192.637 140.621 193.267 140.971C193.897 141.311 194.392 141.801 194.752 142.441C195.122 143.081 195.307 143.826 195.307 144.677C195.307 145.527 195.117 146.277 194.737 146.927C194.367 147.567 193.862 148.062 193.222 148.412C192.582 148.762 191.872 148.937 191.092 148.937ZM191.092 147.737C191.582 147.737 192.042 147.622 192.472 147.392C192.902 147.162 193.247 146.817 193.507 146.357C193.777 145.897 193.912 145.337 193.912 144.677C193.912 144.016 193.782 143.456 193.522 142.996C193.262 142.536 192.922 142.196 192.502 141.976C192.082 141.746 191.627 141.631 191.137 141.631C190.637 141.631 190.177 141.746 189.757 141.976C189.347 142.196 189.017 142.536 188.767 142.996C188.517 143.456 188.392 144.016 188.392 144.677C188.392 145.347 188.512 145.912 188.752 146.372C189.002 146.832 189.332 147.177 189.742 147.407C190.152 147.627 190.602 147.737 191.092 147.737ZM200.591 144.662C200.591 143.821 200.761 143.086 201.102 142.456C201.442 141.816 201.907 141.321 202.497 140.971C203.097 140.621 203.767 140.446 204.507 140.446C205.147 140.446 205.742 140.596 206.292 140.896C206.842 141.186 207.262 141.571 207.552 142.051V137.701H208.932V148.802H207.552V147.257C207.282 147.747 206.882 148.152 206.352 148.472C205.822 148.782 205.202 148.937 204.492 148.937C203.762 148.937 203.097 148.757 202.497 148.397C201.907 148.037 201.442 147.532 201.102 146.882C200.761 146.232 200.591 145.492 200.591 144.662ZM207.552 144.677C207.552 144.056 207.427 143.516 207.177 143.056C206.927 142.596 206.587 142.246 206.157 142.006C205.737 141.756 205.272 141.631 204.762 141.631C204.252 141.631 203.787 141.751 203.367 141.991C202.947 142.231 202.612 142.581 202.362 143.041C202.112 143.501 201.987 144.041 201.987 144.662C201.987 145.292 202.112 145.842 202.362 146.312C202.612 146.772 202.947 147.127 203.367 147.377C203.787 147.617 204.252 147.737 204.762 147.737C205.272 147.737 205.737 147.617 206.157 147.377C206.587 147.127 206.927 146.772 207.177 146.312C207.427 145.842 207.552 145.297 207.552 144.677ZM218.739 144.377C218.739 144.637 218.724 144.912 218.694 145.202H212.124C212.174 146.012 212.449 146.647 212.949 147.107C213.459 147.557 214.074 147.782 214.794 147.782C215.384 147.782 215.874 147.647 216.264 147.377C216.664 147.097 216.944 146.727 217.104 146.267H218.574C218.354 147.057 217.914 147.702 217.254 148.202C216.594 148.692 215.774 148.937 214.794 148.937C214.014 148.937 213.314 148.762 212.694 148.412C212.084 148.062 211.604 147.567 211.254 146.927C210.904 146.277 210.729 145.527 210.729 144.677C210.729 143.826 210.899 143.081 211.239 142.441C211.579 141.801 212.054 141.311 212.664 140.971C213.284 140.621 213.994 140.446 214.794 140.446C215.574 140.446 216.264 140.616 216.864 140.956C217.464 141.296 217.924 141.766 218.244 142.366C218.574 142.956 218.739 143.626 218.739 144.377ZM217.329 144.091C217.329 143.571 217.214 143.126 216.984 142.756C216.754 142.376 216.439 142.091 216.039 141.901C215.649 141.701 215.214 141.601 214.734 141.601C214.044 141.601 213.454 141.821 212.964 142.261C212.484 142.701 212.209 143.311 212.139 144.091H217.329ZM230.976 138.346V139.456H228.126V148.802H226.76V139.456H223.895V138.346H230.976ZM232.146 144.662C232.146 143.821 232.316 143.086 232.656 142.456C232.996 141.816 233.461 141.321 234.051 140.971C234.651 140.621 235.316 140.446 236.046 140.446C236.766 140.446 237.391 140.601 237.921 140.911C238.451 141.221 238.846 141.611 239.106 142.081V140.581H240.486V148.802H239.106V147.272C238.836 147.752 238.431 148.152 237.891 148.472C237.361 148.782 236.741 148.937 236.031 148.937C235.301 148.937 234.641 148.757 234.051 148.397C233.461 148.037 232.996 147.532 232.656 146.882C232.316 146.232 232.146 145.492 232.146 144.662ZM239.106 144.677C239.106 144.056 238.981 143.516 238.731 143.056C238.481 142.596 238.141 142.246 237.711 142.006C237.291 141.756 236.826 141.631 236.316 141.631C235.806 141.631 235.341 141.751 234.921 141.991C234.501 142.231 234.166 142.581 233.916 143.041C233.666 143.501 233.541 144.041 233.541 144.662C233.541 145.292 233.666 145.842 233.916 146.312C234.166 146.772 234.501 147.127 234.921 147.377C235.341 147.617 235.806 147.737 236.316 147.737C236.826 147.737 237.291 147.617 237.711 147.377C238.141 147.127 238.481 146.772 238.731 146.312C238.981 145.842 239.106 145.297 239.106 144.677ZM244.158 141.916C244.398 141.446 244.738 141.081 245.178 140.821C245.628 140.561 246.173 140.431 246.814 140.431V141.841H246.453C244.923 141.841 244.158 142.671 244.158 144.332V148.802H242.793V140.581H244.158V141.916ZM249.124 139.246C248.864 139.246 248.644 139.156 248.464 138.976C248.294 138.796 248.209 138.576 248.209 138.316C248.209 138.056 248.294 137.836 248.464 137.656C248.644 137.476 248.864 137.386 249.124 137.386C249.384 137.386 249.599 137.476 249.769 137.656C249.949 137.836 250.039 138.056 250.039 138.316C250.039 138.576 249.949 138.796 249.769 138.976C249.599 139.156 249.384 139.246 249.124 139.246ZM249.799 150.587C249.799 151.317 249.614 151.852 249.244 152.192C248.874 152.532 248.334 152.702 247.624 152.702H246.829V151.547H247.399C247.779 151.547 248.044 151.472 248.194 151.322C248.354 151.172 248.434 150.917 248.434 150.557V140.581H249.799V150.587ZM259.611 144.377C259.611 144.637 259.596 144.912 259.566 145.202H252.995C253.045 146.012 253.32 146.647 253.82 147.107C254.33 147.557 254.945 147.782 255.665 147.782C256.255 147.782 256.745 147.647 257.135 147.377C257.536 147.097 257.816 146.727 257.976 146.267H259.446C259.226 147.057 258.786 147.702 258.126 148.202C257.466 148.692 256.645 148.937 255.665 148.937C254.885 148.937 254.185 148.762 253.565 148.412C252.955 148.062 252.475 147.567 252.125 146.927C251.775 146.277 251.6 145.527 251.6 144.677C251.6 143.826 251.77 143.081 252.11 142.441C252.45 141.801 252.925 141.311 253.535 140.971C254.155 140.621 254.865 140.446 255.665 140.446C256.445 140.446 257.135 140.616 257.736 140.956C258.336 141.296 258.796 141.766 259.116 142.366C259.446 142.956 259.611 143.626 259.611 144.377ZM258.201 144.091C258.201 143.571 258.086 143.126 257.856 142.756C257.626 142.376 257.31 142.091 256.91 141.901C256.52 141.701 256.085 141.601 255.605 141.601C254.915 141.601 254.325 141.821 253.835 142.261C253.355 142.701 253.08 143.311 253.01 144.091H258.201ZM263.078 141.706V146.552C263.078 146.952 263.163 147.237 263.333 147.407C263.503 147.567 263.798 147.647 264.218 147.647H265.223V148.802H263.993C263.233 148.802 262.663 148.627 262.283 148.277C261.903 147.927 261.712 147.352 261.712 146.552V141.706H260.647V140.581H261.712V138.511H263.078V140.581H265.223V141.706H263.078ZM266.367 144.662C266.367 143.821 266.537 143.086 266.877 142.456C267.217 141.816 267.682 141.321 268.272 140.971C268.872 140.621 269.537 140.446 270.267 140.446C270.987 140.446 271.612 140.601 272.142 140.911C272.672 141.221 273.067 141.611 273.327 142.081V140.581H274.707V148.802H273.327V147.272C273.057 147.752 272.652 148.152 272.112 148.472C271.582 148.782 270.962 148.937 270.252 148.937C269.522 148.937 268.862 148.757 268.272 148.397C267.682 148.037 267.217 147.532 266.877 146.882C266.537 146.232 266.367 145.492 266.367 144.662ZM273.327 144.677C273.327 144.056 273.202 143.516 272.952 143.056C272.702 142.596 272.362 142.246 271.932 142.006C271.512 141.756 271.047 141.631 270.537 141.631C270.027 141.631 269.562 141.751 269.142 141.991C268.722 142.231 268.387 142.581 268.137 143.041C267.887 143.501 267.762 144.041 267.762 144.662C267.762 145.292 267.887 145.842 268.137 146.312C268.387 146.772 268.722 147.127 269.142 147.377C269.562 147.617 270.027 147.737 270.537 147.737C271.047 147.737 271.512 147.617 271.932 147.377C272.362 147.127 272.702 146.772 272.952 146.312C273.202 145.842 273.327 145.297 273.327 144.677Z" fill="white"/>
<path d="M143.446 40.2637V41.3737H140.596V50.7192H139.231V41.3737H136.366V40.2637H143.446ZM145.832 41.1637C145.572 41.1637 145.352 41.0737 145.172 40.8937C144.992 40.7137 144.902 40.4937 144.902 40.2337C144.902 39.9736 144.992 39.7536 145.172 39.5736C145.352 39.3936 145.572 39.3036 145.832 39.3036C146.082 39.3036 146.292 39.3936 146.462 39.5736C146.642 39.7536 146.732 39.9736 146.732 40.2337C146.732 40.4937 146.642 40.7137 146.462 40.8937C146.292 41.0737 146.082 41.1637 145.832 41.1637ZM146.492 42.4988V50.7192H145.127V42.4988H146.492ZM150.483 43.6238V48.4691C150.483 48.8691 150.568 49.1542 150.738 49.3242C150.908 49.4842 151.203 49.5642 151.623 49.5642H152.629V50.7192H151.398C150.638 50.7192 150.068 50.5442 149.688 50.1942C149.308 49.8442 149.118 49.2692 149.118 48.4691V43.6238H148.053V42.4988H149.118V40.4287H150.483V42.4988H152.629V43.6238H150.483ZM161.573 42.4988V50.7192H160.208V49.5042C159.948 49.9242 159.583 50.2542 159.113 50.4942C158.653 50.7242 158.143 50.8392 157.583 50.8392C156.943 50.8392 156.368 50.7092 155.858 50.4492C155.348 50.1792 154.943 49.7792 154.643 49.2492C154.352 48.7191 154.207 48.0741 154.207 47.314V42.4988H155.558V47.134C155.558 47.9441 155.763 48.5691 156.173 49.0091C156.583 49.4392 157.143 49.6542 157.853 49.6542C158.583 49.6542 159.158 49.4292 159.578 48.9791C159.998 48.5291 160.208 47.8741 160.208 47.014V42.4988H161.573ZM165.243 39.6186V50.7192H163.878V39.6186H165.243ZM167.059 46.579C167.059 45.739 167.229 45.0039 167.569 44.3739C167.909 43.7338 168.374 43.2388 168.964 42.8888C169.564 42.5388 170.23 42.3638 170.96 42.3638C171.68 42.3638 172.305 42.5188 172.835 42.8288C173.365 43.1388 173.76 43.5288 174.02 43.9989V42.4988H175.4V50.7192H174.02V49.1892C173.75 49.6692 173.345 50.0692 172.805 50.3892C172.275 50.6992 171.655 50.8542 170.945 50.8542C170.215 50.8542 169.554 50.6742 168.964 50.3142C168.374 49.9542 167.909 49.4492 167.569 48.7991C167.229 48.1491 167.059 47.4091 167.059 46.579ZM174.02 46.594C174.02 45.974 173.895 45.4339 173.645 44.9739C173.395 44.5139 173.055 44.1639 172.625 43.9239C172.205 43.6738 171.74 43.5488 171.23 43.5488C170.72 43.5488 170.255 43.6688 169.834 43.9089C169.414 44.1489 169.079 44.4989 168.829 44.9589C168.579 45.4189 168.454 45.959 168.454 46.579C168.454 47.209 168.579 47.7591 168.829 48.2291C169.079 48.6891 169.414 49.0441 169.834 49.2942C170.255 49.5342 170.72 49.6542 171.23 49.6542C171.74 49.6542 172.205 49.5342 172.625 49.2942C173.055 49.0441 173.395 48.6891 173.645 48.2291C173.895 47.7591 174.02 47.214 174.02 46.594ZM179.072 43.8339C179.312 43.3638 179.652 42.9988 180.092 42.7388C180.542 42.4788 181.087 42.3488 181.727 42.3488V43.7589H181.367C179.837 43.7589 179.072 44.5889 179.072 46.249V50.7192H177.707V42.4988H179.072V43.8339ZM186.792 46.579C186.792 45.739 186.962 45.0039 187.302 44.3739C187.642 43.7338 188.107 43.2388 188.697 42.8888C189.297 42.5388 189.967 42.3638 190.707 42.3638C191.347 42.3638 191.942 42.5138 192.492 42.8138C193.042 43.1038 193.462 43.4888 193.752 43.9689V39.6186H195.132V50.7192H193.752V49.1742C193.482 49.6642 193.082 50.0692 192.552 50.3892C192.022 50.6992 191.402 50.8542 190.692 50.8542C189.962 50.8542 189.297 50.6742 188.697 50.3142C188.107 49.9542 187.642 49.4492 187.302 48.7991C186.962 48.1491 186.792 47.4091 186.792 46.579ZM193.752 46.594C193.752 45.974 193.627 45.4339 193.377 44.9739C193.127 44.5139 192.787 44.1639 192.357 43.9239C191.937 43.6738 191.472 43.5488 190.962 43.5488C190.452 43.5488 189.987 43.6688 189.567 43.9089C189.147 44.1489 188.812 44.4989 188.562 44.9589C188.312 45.4189 188.187 45.959 188.187 46.579C188.187 47.209 188.312 47.7591 188.562 48.2291C188.812 48.6891 189.147 49.0441 189.567 49.2942C189.987 49.5342 190.452 49.6542 190.962 49.6542C191.472 49.6542 191.937 49.5342 192.357 49.2942C192.787 49.0441 193.127 48.6891 193.377 48.2291C193.627 47.7591 193.752 47.214 193.752 46.594ZM204.94 46.294C204.94 46.554 204.925 46.829 204.895 47.119H198.324C198.374 47.9291 198.649 48.5641 199.149 49.0241C199.659 49.4742 200.274 49.6992 200.994 49.6992C201.584 49.6992 202.074 49.5642 202.464 49.2942C202.864 49.0141 203.145 48.6441 203.305 48.1841H204.775C204.555 48.9741 204.115 49.6192 203.455 50.1192C202.794 50.6092 201.974 50.8542 200.994 50.8542C200.214 50.8542 199.514 50.6792 198.894 50.3292C198.284 49.9792 197.804 49.4842 197.454 48.8441C197.104 48.1941 196.929 47.4441 196.929 46.594C196.929 45.744 197.099 44.9989 197.439 44.3589C197.779 43.7188 198.254 43.2288 198.864 42.8888C199.484 42.5388 200.194 42.3638 200.994 42.3638C201.774 42.3638 202.464 42.5338 203.065 42.8738C203.665 43.2138 204.125 43.6838 204.445 44.2839C204.775 44.8739 204.94 45.5439 204.94 46.294ZM203.53 46.009C203.53 45.4889 203.415 45.0439 203.185 44.6739C202.954 44.2939 202.639 44.0089 202.239 43.8189C201.849 43.6188 201.414 43.5188 200.934 43.5188C200.244 43.5188 199.654 43.7388 199.164 44.1789C198.684 44.6189 198.409 45.2289 198.339 46.009H203.53ZM212.106 39.6186V50.7192H210.741V39.6186H212.106ZM213.922 46.579C213.922 45.739 214.092 45.0039 214.432 44.3739C214.772 43.7338 215.237 43.2388 215.827 42.8888C216.427 42.5388 217.092 42.3638 217.823 42.3638C218.543 42.3638 219.168 42.5188 219.698 42.8288C220.228 43.1388 220.623 43.5288 220.883 43.9989V42.4988H222.263V50.7192H220.883V49.1892C220.613 49.6692 220.208 50.0692 219.668 50.3892C219.138 50.6992 218.518 50.8542 217.808 50.8542C217.077 50.8542 216.417 50.6742 215.827 50.3142C215.237 49.9542 214.772 49.4492 214.432 48.7991C214.092 48.1491 213.922 47.4091 213.922 46.579ZM220.883 46.594C220.883 45.974 220.758 45.4339 220.508 44.9739C220.258 44.5139 219.918 44.1639 219.488 43.9239C219.068 43.6738 218.603 43.5488 218.093 43.5488C217.582 43.5488 217.117 43.6688 216.697 43.9089C216.277 44.1489 215.942 44.4989 215.692 44.9589C215.442 45.4189 215.317 45.959 215.317 46.579C215.317 47.209 215.442 47.7591 215.692 48.2291C215.942 48.6891 216.277 49.0441 216.697 49.2942C217.117 49.5342 217.582 49.6542 218.093 49.6542C218.603 49.6542 219.068 49.5342 219.488 49.2942C219.918 49.0441 220.258 48.6891 220.508 48.2291C220.758 47.7591 220.883 47.214 220.883 46.594ZM235.004 40.2637V41.3737H232.154V50.7192H230.789V41.3737H227.924V40.2637H235.004ZM236.175 46.579C236.175 45.739 236.345 45.0039 236.685 44.3739C237.025 43.7338 237.49 43.2388 238.08 42.8888C238.68 42.5388 239.345 42.3638 240.075 42.3638C240.795 42.3638 241.42 42.5188 241.95 42.8288C242.48 43.1388 242.875 43.5288 243.135 43.9989V42.4988H244.515V50.7192H243.135V49.1892C242.865 49.6692 242.46 50.0692 241.92 50.3892C241.39 50.6992 240.77 50.8542 240.06 50.8542C239.33 50.8542 238.67 50.6742 238.08 50.3142C237.49 49.9542 237.025 49.4492 236.685 48.7991C236.345 48.1491 236.175 47.4091 236.175 46.579ZM243.135 46.594C243.135 45.974 243.01 45.4339 242.76 44.9739C242.51 44.5139 242.17 44.1639 241.74 43.9239C241.32 43.6738 240.855 43.5488 240.345 43.5488C239.835 43.5488 239.37 43.6688 238.95 43.9089C238.53 44.1489 238.195 44.4989 237.945 44.9589C237.695 45.4189 237.57 45.959 237.57 46.579C237.57 47.209 237.695 47.7591 237.945 48.2291C238.195 48.6891 238.53 49.0441 238.95 49.2942C239.37 49.5342 239.835 49.6542 240.345 49.6542C240.855 49.6542 241.32 49.5342 241.74 49.2942C242.17 49.0441 242.51 48.6891 242.76 48.2291C243.01 47.7591 243.135 47.214 243.135 46.594ZM248.187 43.8339C248.427 43.3638 248.767 42.9988 249.207 42.7388C249.657 42.4788 250.202 42.3488 250.842 42.3488V43.7589H250.482C248.952 43.7589 248.187 44.5889 248.187 46.249V50.7192H246.822V42.4988H248.187V43.8339ZM253.153 41.1637C252.893 41.1637 252.673 41.0737 252.493 40.8937C252.323 40.7137 252.238 40.4937 252.238 40.2337C252.238 39.9736 252.323 39.7536 252.493 39.5736C252.673 39.3936 252.893 39.3036 253.153 39.3036C253.413 39.3036 253.628 39.3936 253.798 39.5736C253.978 39.7536 254.068 39.9736 254.068 40.2337C254.068 40.4937 253.978 40.7137 253.798 40.8937C253.628 41.0737 253.413 41.1637 253.153 41.1637ZM253.828 52.5043C253.828 53.2344 253.643 53.7694 253.273 54.1094C252.903 54.4494 252.363 54.6195 251.653 54.6195H250.858V53.4644H251.428C251.808 53.4644 252.073 53.3894 252.223 53.2394C252.383 53.0894 252.463 52.8344 252.463 52.4743V42.4988H253.828V52.5043ZM263.639 46.294C263.639 46.554 263.624 46.829 263.594 47.119H257.024C257.074 47.9291 257.349 48.5641 257.849 49.0241C258.359 49.4742 258.974 49.6992 259.694 49.6992C260.284 49.6992 260.774 49.5642 261.164 49.2942C261.564 49.0141 261.844 48.6441 262.004 48.1841H263.474C263.254 48.9741 262.814 49.6192 262.154 50.1192C261.494 50.6092 260.674 50.8542 259.694 50.8542C258.914 50.8542 258.214 50.6792 257.594 50.3292C256.984 49.9792 256.504 49.4842 256.154 48.8441C255.804 48.1941 255.629 47.4441 255.629 46.594C255.629 45.744 255.799 44.9989 256.139 44.3589C256.479 43.7188 256.954 43.2288 257.564 42.8888C258.184 42.5388 258.894 42.3638 259.694 42.3638C260.474 42.3638 261.164 42.5338 261.764 42.8738C262.364 43.2138 262.824 43.6838 263.144 44.2839C263.474 44.8739 263.639 45.5439 263.639 46.294ZM262.229 46.009C262.229 45.4889 262.114 45.0439 261.884 44.6739C261.654 44.2939 261.339 44.0089 260.939 43.8189C260.549 43.6188 260.114 43.5188 259.634 43.5188C258.944 43.5188 258.354 43.7388 257.864 44.1789C257.384 44.6189 257.109 45.2289 257.039 46.009H262.229ZM267.106 43.6238V48.4691C267.106 48.8691 267.191 49.1542 267.361 49.3242C267.531 49.4842 267.826 49.5642 268.246 49.5642H269.251V50.7192H268.021C267.261 50.7192 266.691 50.5442 266.311 50.1942C265.931 49.8442 265.741 49.2692 265.741 48.4691V43.6238H264.676V42.4988H265.741V40.4287H267.106V42.4988H269.251V43.6238H267.106ZM270.395 46.579C270.395 45.739 270.565 45.0039 270.905 44.3739C271.245 43.7338 271.71 43.2388 272.3 42.8888C272.9 42.5388 273.565 42.3638 274.295 42.3638C275.015 42.3638 275.64 42.5188 276.17 42.8288C276.701 43.1388 277.096 43.5288 277.356 43.9989V42.4988H278.736V50.7192H277.356V49.1892C277.086 49.6692 276.681 50.0692 276.14 50.3892C275.61 50.6992 274.99 50.8542 274.28 50.8542C273.55 50.8542 272.89 50.6742 272.3 50.3142C271.71 49.9542 271.245 49.4492 270.905 48.7991C270.565 48.1491 270.395 47.4091 270.395 46.579ZM277.356 46.594C277.356 45.974 277.231 45.4339 276.981 44.9739C276.731 44.5139 276.391 44.1639 275.96 43.9239C275.54 43.6738 275.075 43.5488 274.565 43.5488C274.055 43.5488 273.59 43.6688 273.17 43.9089C272.75 44.1489 272.415 44.4989 272.165 44.9589C271.915 45.4189 271.79 45.959 271.79 46.579C271.79 47.209 271.915 47.7591 272.165 48.2291C272.415 48.6891 272.75 49.0441 273.17 49.2942C273.59 49.5342 274.055 49.6542 274.565 49.6542C275.075 49.6542 275.54 49.5342 275.96 49.2942C276.391 49.0441 276.731 48.6891 276.981 48.2291C277.231 47.7591 277.356 47.214 277.356 46.594Z" fill="white"/>
<path d="M138.715 289.36C138.715 287.197 139.077 285.509 139.802 284.297C140.54 283.072 141.802 282.459 143.59 282.459C145.378 282.459 146.634 283.072 147.359 284.297C148.096 285.509 148.465 287.197 148.465 289.36C148.465 291.547 148.096 293.26 147.359 294.497C146.634 295.723 145.378 296.335 143.59 296.335C141.802 296.335 140.54 295.723 139.802 294.497C139.077 293.26 138.715 291.547 138.715 289.36ZM146.365 289.36C146.365 288.347 146.296 287.491 146.159 286.791C146.034 286.091 145.771 285.522 145.371 285.084C144.971 284.634 144.377 284.409 143.59 284.409C142.802 284.409 142.209 284.634 141.809 285.084C141.409 285.522 141.14 286.091 141.002 286.791C140.877 287.491 140.815 288.347 140.815 289.36C140.815 290.41 140.877 291.291 141.002 292.004C141.127 292.716 141.39 293.291 141.79 293.729C142.202 294.166 142.802 294.385 143.59 294.385C144.377 294.385 144.971 294.166 145.371 293.729C145.784 293.291 146.053 292.716 146.178 292.004C146.303 291.291 146.365 290.41 146.365 289.36ZM159.54 284.541H153.258V288.272C153.521 287.922 153.908 287.628 154.421 287.391C154.946 287.153 155.502 287.035 156.09 287.035C157.14 287.035 157.99 287.26 158.64 287.71C159.303 288.16 159.771 288.728 160.046 289.416C160.334 290.103 160.478 290.828 160.478 291.591C160.478 292.516 160.296 293.341 159.934 294.066C159.584 294.779 159.053 295.341 158.34 295.754C157.64 296.166 156.777 296.373 155.752 296.373C154.39 296.373 153.296 296.035 152.471 295.36C151.646 294.685 151.152 293.791 150.99 292.679H153.071C153.208 293.266 153.515 293.735 153.99 294.085C154.465 294.422 155.059 294.591 155.771 294.591C156.659 294.591 157.321 294.322 157.759 293.785C158.209 293.247 158.434 292.535 158.434 291.647C158.434 290.747 158.209 290.06 157.759 289.585C157.309 289.097 156.646 288.853 155.771 288.853C155.159 288.853 154.64 289.01 154.215 289.322C153.802 289.622 153.502 290.035 153.315 290.56H151.29V282.666H159.54V284.541ZM169.922 278.672L164.822 299.654H162.722L167.803 278.672H169.922ZM172.297 286.078C172.372 284.916 172.816 284.009 173.629 283.359C174.454 282.709 175.504 282.384 176.779 282.384C177.654 282.384 178.41 282.541 179.048 282.853C179.685 283.166 180.166 283.591 180.491 284.128C180.816 284.666 180.979 285.272 180.979 285.947C180.979 286.722 180.773 287.385 180.36 287.935C179.948 288.485 179.454 288.853 178.879 289.041V289.116C179.616 289.341 180.191 289.753 180.604 290.353C181.016 290.941 181.223 291.697 181.223 292.622C181.223 293.36 181.054 294.016 180.716 294.591C180.379 295.166 179.879 295.623 179.216 295.96C178.554 296.285 177.76 296.448 176.835 296.448C175.485 296.448 174.372 296.104 173.497 295.416C172.635 294.716 172.172 293.716 172.11 292.416H174.172C174.222 293.079 174.479 293.622 174.941 294.047C175.404 294.46 176.029 294.666 176.816 294.666C177.579 294.666 178.166 294.46 178.579 294.047C178.991 293.622 179.198 293.079 179.198 292.416C179.198 291.541 178.916 290.922 178.354 290.56C177.804 290.185 176.954 289.997 175.804 289.997H175.316V288.235H175.822C176.835 288.222 177.604 288.053 178.129 287.728C178.666 287.403 178.935 286.891 178.935 286.191C178.935 285.591 178.741 285.116 178.354 284.766C177.966 284.403 177.416 284.222 176.704 284.222C176.004 284.222 175.46 284.403 175.072 284.766C174.685 285.116 174.454 285.553 174.379 286.078H172.297ZM183.468 289.36C183.468 287.197 183.831 285.509 184.556 284.297C185.293 283.072 186.556 282.459 188.343 282.459C190.131 282.459 191.387 283.072 192.112 284.297C192.85 285.509 193.219 287.197 193.219 289.36C193.219 291.547 192.85 293.26 192.112 294.497C191.387 295.723 190.131 296.335 188.343 296.335C186.556 296.335 185.293 295.723 184.556 294.497C183.831 293.26 183.468 291.547 183.468 289.36ZM191.119 289.36C191.119 288.347 191.05 287.491 190.912 286.791C190.787 286.091 190.525 285.522 190.125 285.084C189.725 284.634 189.131 284.409 188.343 284.409C187.556 284.409 186.962 284.634 186.562 285.084C186.162 285.522 185.893 286.091 185.756 286.791C185.631 287.491 185.568 288.347 185.568 289.36C185.568 290.41 185.631 291.291 185.756 292.004C185.881 292.716 186.143 293.291 186.543 293.729C186.956 294.166 187.556 294.385 188.343 294.385C189.131 294.385 189.725 294.166 190.125 293.729C190.537 293.291 190.806 292.716 190.931 292.004C191.056 291.291 191.119 290.41 191.119 289.36Z" fill="white"/>
<path d="M144.46 259.408V260.278H139.84V264.193H143.74V265.063H139.84V269.894H138.79V259.408H144.46ZM153.598 265.378C153.598 265.738 153.588 266.013 153.568 266.203H146.773C146.803 266.823 146.953 267.353 147.223 267.793C147.493 268.233 147.848 268.568 148.288 268.798C148.728 269.019 149.208 269.129 149.728 269.129C150.408 269.129 150.978 268.964 151.438 268.633C151.908 268.303 152.218 267.858 152.368 267.298H153.478C153.278 268.098 152.848 268.753 152.188 269.264C151.538 269.764 150.718 270.014 149.728 270.014C148.958 270.014 148.268 269.844 147.658 269.504C147.048 269.154 146.568 268.663 146.218 268.033C145.878 267.393 145.708 266.648 145.708 265.798C145.708 264.948 145.878 264.203 146.218 263.563C146.558 262.923 147.033 262.433 147.643 262.093C148.253 261.753 148.948 261.583 149.728 261.583C150.508 261.583 151.188 261.753 151.768 262.093C152.358 262.433 152.808 262.893 153.118 263.473C153.438 264.043 153.598 264.678 153.598 265.378ZM152.533 265.348C152.543 264.738 152.418 264.218 152.158 263.788C151.908 263.358 151.563 263.033 151.123 262.813C150.683 262.593 150.203 262.483 149.683 262.483C148.903 262.483 148.238 262.733 147.688 263.233C147.138 263.733 146.833 264.438 146.773 265.348H152.533ZM155.039 265.798C155.039 264.948 155.209 264.208 155.549 263.578C155.889 262.938 156.359 262.448 156.959 262.108C157.559 261.758 158.244 261.583 159.014 261.583C160.024 261.583 160.854 261.833 161.504 262.333C162.164 262.833 162.59 263.513 162.78 264.373H161.654C161.514 263.783 161.209 263.323 160.739 262.993C160.279 262.653 159.704 262.483 159.014 262.483C158.464 262.483 157.969 262.608 157.529 262.858C157.089 263.108 156.739 263.483 156.479 263.983C156.229 264.473 156.104 265.078 156.104 265.798C156.104 266.518 156.229 267.128 156.479 267.628C156.739 268.128 157.089 268.503 157.529 268.753C157.969 269.004 158.464 269.129 159.014 269.129C159.704 269.129 160.279 268.964 160.739 268.633C161.209 268.293 161.514 267.823 161.654 267.223H162.78C162.59 268.063 162.164 268.738 161.504 269.249C160.844 269.759 160.014 270.014 159.014 270.014C158.244 270.014 157.559 269.844 156.959 269.504C156.359 269.154 155.889 268.663 155.549 268.033C155.209 267.393 155.039 266.648 155.039 265.798ZM168.619 261.553C169.239 261.553 169.794 261.683 170.284 261.943C170.784 262.203 171.174 262.603 171.454 263.143C171.744 263.673 171.889 264.323 171.889 265.093V269.894H170.854V265.213C170.854 264.323 170.629 263.643 170.179 263.173C169.739 262.703 169.134 262.468 168.364 262.468C167.574 262.468 166.944 262.718 166.474 263.218C166.004 263.718 165.769 264.453 165.769 265.423V269.894H164.719V258.793H165.769V263.098C166.029 262.608 166.409 262.228 166.909 261.958C167.419 261.688 167.989 261.553 168.619 261.553ZM173.732 265.783C173.732 264.943 173.897 264.208 174.227 263.578C174.567 262.938 175.032 262.448 175.622 262.108C176.222 261.758 176.897 261.583 177.647 261.583C178.427 261.583 179.097 261.763 179.657 262.123C180.227 262.483 180.637 262.943 180.887 263.503V261.703H181.937V269.894H180.887V268.078C180.627 268.638 180.212 269.104 179.642 269.474C179.082 269.834 178.412 270.014 177.632 270.014C176.892 270.014 176.222 269.839 175.622 269.489C175.032 269.139 174.567 268.643 174.227 268.003C173.897 267.363 173.732 266.623 173.732 265.783ZM180.887 265.798C180.887 265.138 180.752 264.558 180.482 264.058C180.212 263.558 179.842 263.173 179.372 262.903C178.912 262.633 178.402 262.498 177.842 262.498C177.262 262.498 176.742 262.628 176.282 262.888C175.822 263.148 175.457 263.528 175.187 264.028C174.927 264.518 174.797 265.103 174.797 265.783C174.797 266.453 174.927 267.043 175.187 267.553C175.457 268.053 175.822 268.438 176.282 268.708C176.742 268.969 177.262 269.099 177.842 269.099C178.402 269.099 178.912 268.964 179.372 268.693C179.842 268.423 180.212 268.038 180.482 267.538C180.752 267.038 180.887 266.458 180.887 265.798ZM187.971 265.783C187.971 264.943 188.141 264.208 188.481 263.578C188.821 262.938 189.286 262.448 189.876 262.108C190.476 261.758 191.151 261.583 191.901 261.583C192.621 261.583 193.271 261.758 193.851 262.108C194.431 262.458 194.856 262.913 195.126 263.473V258.793H196.176V269.894H195.126V268.063C194.876 268.633 194.466 269.104 193.896 269.474C193.326 269.834 192.656 270.014 191.886 270.014C191.136 270.014 190.461 269.839 189.861 269.489C189.271 269.139 188.806 268.643 188.466 268.003C188.136 267.363 187.971 266.623 187.971 265.783ZM195.126 265.798C195.126 265.138 194.991 264.558 194.721 264.058C194.451 263.558 194.081 263.173 193.611 262.903C193.151 262.633 192.641 262.498 192.081 262.498C191.501 262.498 190.981 262.628 190.521 262.888C190.061 263.148 189.696 263.528 189.426 264.028C189.166 264.518 189.036 265.103 189.036 265.783C189.036 266.453 189.166 267.043 189.426 267.553C189.696 268.053 190.061 268.438 190.521 268.708C190.981 268.969 191.501 269.099 192.081 269.099C192.641 269.099 193.151 268.964 193.611 268.693C194.081 268.423 194.451 268.038 194.721 267.538C194.991 267.038 195.126 266.458 195.126 265.798ZM205.984 265.378C205.984 265.738 205.974 266.013 205.954 266.203H199.158C199.188 266.823 199.338 267.353 199.608 267.793C199.878 268.233 200.233 268.568 200.673 268.798C201.113 269.019 201.593 269.129 202.113 269.129C202.794 269.129 203.364 268.964 203.824 268.633C204.294 268.303 204.604 267.858 204.754 267.298H205.864C205.664 268.098 205.234 268.753 204.574 269.264C203.924 269.764 203.104 270.014 202.113 270.014C201.343 270.014 200.653 269.844 200.043 269.504C199.433 269.154 198.953 268.663 198.603 268.033C198.263 267.393 198.093 266.648 198.093 265.798C198.093 264.948 198.263 264.203 198.603 263.563C198.943 262.923 199.418 262.433 200.028 262.093C200.638 261.753 201.333 261.583 202.113 261.583C202.894 261.583 203.574 261.753 204.154 262.093C204.744 262.433 205.194 262.893 205.504 263.473C205.824 264.043 205.984 264.678 205.984 265.378ZM204.919 265.348C204.929 264.738 204.804 264.218 204.544 263.788C204.294 263.358 203.949 263.033 203.509 262.813C203.069 262.593 202.588 262.483 202.068 262.483C201.288 262.483 200.623 262.733 200.073 263.233C199.523 263.733 199.218 264.438 199.158 265.348H204.919ZM213.071 260.263V264.178H217.047V265.048H213.071V269.024H217.497V269.894H212.021V259.393H217.497V260.263H213.071ZM223.856 269.894L221.741 266.593L219.701 269.894H218.591L221.231 265.798L218.621 261.703H219.806L221.891 264.958L223.916 261.703H225.011L222.401 265.753L225.041 269.894H223.856ZM227.501 263.503C227.761 262.953 228.171 262.498 228.731 262.138C229.301 261.768 229.976 261.583 230.756 261.583C231.496 261.583 232.161 261.758 232.751 262.108C233.351 262.448 233.816 262.938 234.146 263.578C234.486 264.208 234.656 264.943 234.656 265.783C234.656 266.623 234.486 267.363 234.146 268.003C233.816 268.643 233.351 269.139 232.751 269.489C232.161 269.839 231.496 270.014 230.756 270.014C229.986 270.014 229.316 269.834 228.746 269.474C228.176 269.104 227.761 268.643 227.501 268.093V273.764H226.465V261.703H227.501V263.503ZM233.591 265.783C233.591 265.103 233.456 264.518 233.186 264.028C232.926 263.528 232.566 263.148 232.106 262.888C231.646 262.628 231.126 262.498 230.546 262.498C229.986 262.498 229.471 262.633 229.001 262.903C228.541 263.173 228.176 263.558 227.906 264.058C227.636 264.558 227.501 265.138 227.501 265.798C227.501 266.458 227.636 267.038 227.906 267.538C228.176 268.038 228.541 268.423 229.001 268.693C229.471 268.964 229.986 269.099 230.546 269.099C231.126 269.099 231.646 268.969 232.106 268.708C232.566 268.438 232.926 268.053 233.186 267.553C233.456 267.043 233.591 266.453 233.591 265.783ZM237.113 260.158C236.903 260.158 236.723 260.083 236.573 259.933C236.423 259.783 236.348 259.598 236.348 259.378C236.348 259.158 236.423 258.978 236.573 258.838C236.723 258.688 236.903 258.613 237.113 258.613C237.323 258.613 237.503 258.688 237.653 258.838C237.803 258.978 237.878 259.158 237.878 259.378C237.878 259.598 237.803 259.783 237.653 259.933C237.503 260.083 237.323 260.158 237.113 260.158ZM237.638 261.703V269.894H236.588V261.703H237.638ZM241.066 263.158C241.296 262.648 241.646 262.253 242.116 261.973C242.596 261.693 243.181 261.553 243.871 261.553V262.648H243.586C242.826 262.648 242.216 262.853 241.756 263.263C241.296 263.673 241.066 264.358 241.066 265.318V269.894H240.016V261.703H241.066V263.158ZM244.971 265.783C244.971 264.943 245.136 264.208 245.466 263.578C245.806 262.938 246.271 262.448 246.861 262.108C247.461 261.758 248.136 261.583 248.886 261.583C249.666 261.583 250.336 261.763 250.896 262.123C251.466 262.483 251.876 262.943 252.126 263.503V261.703H253.176V269.894H252.126V268.078C251.866 268.638 251.451 269.104 250.881 269.474C250.321 269.834 249.651 270.014 248.871 270.014C248.131 270.014 247.461 269.839 246.861 269.489C246.271 269.139 245.806 268.643 245.466 268.003C245.136 267.363 244.971 266.623 244.971 265.783ZM252.126 265.798C252.126 265.138 251.991 264.558 251.721 264.058C251.451 263.558 251.081 263.173 250.611 262.903C250.151 262.633 249.641 262.498 249.081 262.498C248.501 262.498 247.981 262.628 247.521 262.888C247.061 263.148 246.696 263.528 246.426 264.028C246.166 264.518 246.036 265.103 246.036 265.783C246.036 266.453 246.166 267.043 246.426 267.553C246.696 268.053 247.061 268.438 247.521 268.708C247.981 268.969 248.501 269.099 249.081 269.099C249.641 269.099 250.151 268.964 250.611 268.693C251.081 268.423 251.451 268.038 251.721 267.538C251.991 267.038 252.126 266.458 252.126 265.798ZM255.093 265.798C255.093 264.948 255.263 264.208 255.604 263.578C255.944 262.938 256.414 262.448 257.014 262.108C257.614 261.758 258.299 261.583 259.069 261.583C260.079 261.583 260.909 261.833 261.559 262.333C262.219 262.833 262.644 263.513 262.834 264.373H261.709C261.569 263.783 261.264 263.323 260.794 262.993C260.334 262.653 259.759 262.483 259.069 262.483C258.519 262.483 258.024 262.608 257.584 262.858C257.144 263.108 256.794 263.483 256.534 263.983C256.284 264.473 256.159 265.078 256.159 265.798C256.159 266.518 256.284 267.128 256.534 267.628C256.794 268.128 257.144 268.503 257.584 268.753C258.024 269.004 258.519 269.129 259.069 269.129C259.759 269.129 260.334 268.964 260.794 268.633C261.264 268.293 261.569 267.823 261.709 267.223H262.834C262.644 268.063 262.219 268.738 261.559 269.249C260.899 269.759 260.069 270.014 259.069 270.014C258.299 270.014 257.614 269.844 257.014 269.504C256.414 269.154 255.944 268.663 255.604 268.033C255.263 267.393 255.093 266.648 255.093 265.798ZM265.298 260.158C265.088 260.158 264.908 260.083 264.758 259.933C264.608 259.783 264.533 259.598 264.533 259.378C264.533 259.158 264.608 258.978 264.758 258.838C264.908 258.688 265.088 258.613 265.298 258.613C265.508 258.613 265.688 258.688 265.838 258.838C265.988 258.978 266.063 259.158 266.063 259.378C266.063 259.598 265.988 259.783 265.838 259.933C265.688 260.083 265.508 260.158 265.298 260.158ZM265.823 261.703V269.894H264.773V261.703H265.823ZM271.786 270.014C271.016 270.014 270.321 269.844 269.701 269.504C269.091 269.154 268.606 268.663 268.246 268.033C267.896 267.393 267.721 266.648 267.721 265.798C267.721 264.948 267.901 264.208 268.261 263.578C268.621 262.938 269.111 262.448 269.731 262.108C270.351 261.758 271.046 261.583 271.816 261.583C272.586 261.583 273.281 261.758 273.901 262.108C274.532 262.448 275.022 262.938 275.372 263.578C275.732 264.208 275.912 264.948 275.912 265.798C275.912 266.638 275.732 267.378 275.372 268.018C275.012 268.658 274.517 269.154 273.886 269.504C273.256 269.844 272.556 270.014 271.786 270.014ZM271.786 269.099C272.326 269.099 272.826 268.979 273.286 268.738C273.746 268.488 274.116 268.118 274.397 267.628C274.687 267.128 274.832 266.518 274.832 265.798C274.832 265.078 274.692 264.473 274.412 263.983C274.131 263.483 273.761 263.113 273.301 262.873C272.841 262.623 272.341 262.498 271.801 262.498C271.261 262.498 270.761 262.623 270.301 262.873C269.841 263.113 269.471 263.483 269.191 263.983C268.921 264.473 268.786 265.078 268.786 265.798C268.786 266.518 268.921 267.128 269.191 267.628C269.471 268.118 269.836 268.488 270.286 268.738C270.746 268.979 271.246 269.099 271.786 269.099ZM273.226 259.213L270.151 260.998V260.188L273.226 258.268V259.213ZM281.666 261.553C282.646 261.553 283.446 261.858 284.066 262.468C284.686 263.068 284.996 263.943 284.996 265.093V269.894H283.961V265.213C283.961 264.323 283.736 263.643 283.286 263.173C282.846 262.703 282.241 262.468 281.471 262.468C280.681 262.468 280.051 262.718 279.581 263.218C279.111 263.718 278.876 264.453 278.876 265.423V269.894H277.826V261.703H278.876V263.098C279.136 262.598 279.511 262.218 280.001 261.958C280.491 261.688 281.046 261.553 281.666 261.553Z" fill="white"/>
<path opacity="0.5" d="M219.705 180.4H148.451C142.238 180.4 137.2 185.433 137.2 191.64C137.2 197.848 142.238 202.88 148.451 202.88H219.705C225.919 202.88 230.956 197.848 230.956 191.64C230.956 185.433 225.919 180.4 219.705 180.4Z" fill="#EDEEFF"/>
<path opacity="0.5" d="M332.211 180.4H260.957C254.744 180.4 249.707 185.433 249.707 191.64C249.707 197.848 254.744 202.88 260.957 202.88H332.211C338.425 202.88 343.462 197.848 343.462 191.64C343.462 185.433 338.425 180.4 332.211 180.4Z" fill="#EDEEFF"/>
<path opacity="0.5" d="M444.717 180.4H373.464C367.25 180.4 362.213 185.433 362.213 191.64C362.213 197.848 367.25 202.88 373.464 202.88H444.717C450.931 202.88 455.968 197.848 455.968 191.64C455.968 185.433 450.931 180.4 444.717 180.4Z" fill="#EDEEFF"/>
<path d="M486.465 185.357L480.21 199.781H477.622L483.945 185.627H475.62V183.445H486.465V185.357ZM491.428 191.208C489.868 190.428 489.088 189.198 489.088 187.518C489.088 186.708 489.291 185.965 489.696 185.29C490.101 184.615 490.708 184.082 491.518 183.692C492.328 183.287 493.318 183.085 494.488 183.085C495.643 183.085 496.626 183.287 497.436 183.692C498.261 184.082 498.876 184.615 499.281 185.29C499.686 185.965 499.889 186.708 499.889 187.518C499.889 188.358 499.671 189.1 499.236 189.745C498.816 190.375 498.254 190.863 497.549 191.208C498.404 191.523 499.079 192.04 499.574 192.76C500.069 193.465 500.316 194.298 500.316 195.258C500.316 196.233 500.069 197.096 499.574 197.846C499.079 198.596 498.389 199.173 497.504 199.578C496.619 199.983 495.613 200.186 494.488 200.186C493.363 200.186 492.358 199.983 491.473 199.578C490.603 199.173 489.921 198.596 489.426 197.846C488.931 197.096 488.683 196.233 488.683 195.258C488.683 194.283 488.931 193.443 489.426 192.738C489.921 192.033 490.588 191.523 491.428 191.208ZM497.436 187.833C497.436 186.993 497.174 186.348 496.649 185.897C496.124 185.447 495.403 185.222 494.488 185.222C493.588 185.222 492.876 185.447 492.351 185.897C491.826 186.348 491.563 187 491.563 187.855C491.563 188.605 491.833 189.22 492.373 189.7C492.928 190.165 493.633 190.398 494.488 190.398C495.343 190.398 496.049 190.158 496.604 189.678C497.159 189.198 497.436 188.583 497.436 187.833ZM494.488 192.333C493.498 192.333 492.688 192.58 492.058 193.075C491.443 193.555 491.136 194.253 491.136 195.168C491.136 196.023 491.436 196.721 492.036 197.261C492.636 197.786 493.453 198.048 494.488 198.048C495.508 198.048 496.311 197.778 496.896 197.238C497.496 196.698 497.796 196.008 497.796 195.168C497.796 194.268 497.489 193.57 496.874 193.075C496.274 192.58 495.478 192.333 494.488 192.333ZM506.205 195.326C506.355 196.076 506.677 196.646 507.172 197.036C507.667 197.426 508.335 197.621 509.175 197.621C510.24 197.621 511.02 197.201 511.515 196.361C512.01 195.521 512.258 194.088 512.258 192.063C511.898 192.573 511.388 192.97 510.727 193.255C510.082 193.525 509.377 193.66 508.612 193.66C507.637 193.66 506.752 193.465 505.957 193.075C505.162 192.67 504.532 192.078 504.067 191.298C503.617 190.503 503.392 189.543 503.392 188.418C503.392 186.768 503.872 185.455 504.832 184.48C505.807 183.49 507.142 182.995 508.837 182.995C510.877 182.995 512.325 183.677 513.18 185.042C514.05 186.393 514.485 188.47 514.485 191.275C514.485 193.21 514.32 194.793 513.99 196.023C513.675 197.253 513.12 198.183 512.325 198.813C511.53 199.443 510.427 199.758 509.017 199.758C507.412 199.758 506.175 199.338 505.305 198.498C504.435 197.658 503.947 196.601 503.842 195.326H506.205ZM509.062 191.5C509.962 191.5 510.667 191.223 511.177 190.668C511.703 190.098 511.965 189.348 511.965 188.418C511.965 187.383 511.688 186.58 511.132 186.01C510.592 185.425 509.85 185.132 508.905 185.132C507.96 185.132 507.21 185.432 506.655 186.032C506.115 186.618 505.845 187.39 505.845 188.35C505.845 189.265 506.107 190.023 506.632 190.623C507.172 191.208 507.982 191.5 509.062 191.5ZM520.488 195.326C520.638 196.076 520.96 196.646 521.455 197.036C521.95 197.426 522.618 197.621 523.458 197.621C524.523 197.621 525.303 197.201 525.798 196.361C526.293 195.521 526.541 194.088 526.541 192.063C526.181 192.573 525.671 192.97 525.01 193.255C524.365 193.525 523.66 193.66 522.895 193.66C521.92 193.66 521.035 193.465 520.24 193.075C519.445 192.67 518.815 192.078 518.35 191.298C517.9 190.503 517.675 189.543 517.675 188.418C517.675 186.768 518.155 185.455 519.115 184.48C520.09 183.49 521.425 182.995 523.12 182.995C525.16 182.995 526.608 183.677 527.463 185.042C528.333 186.393 528.768 188.47 528.768 191.275C528.768 193.21 528.603 194.793 528.273 196.023C527.958 197.253 527.403 198.183 526.608 198.813C525.813 199.443 524.71 199.758 523.3 199.758C521.695 199.758 520.458 199.338 519.588 198.498C518.718 197.658 518.23 196.601 518.125 195.326H520.488ZM523.345 191.5C524.245 191.5 524.95 191.223 525.461 190.668C525.986 190.098 526.248 189.348 526.248 188.418C526.248 187.383 525.971 186.58 525.416 186.01C524.875 185.425 524.133 185.132 523.188 185.132C522.243 185.132 521.493 185.432 520.938 186.032C520.398 186.618 520.128 187.39 520.128 188.35C520.128 189.265 520.39 190.023 520.915 190.623C521.455 191.208 522.265 191.5 523.345 191.5Z" fill="white"/>
<path opacity="0.8" d="M589.49 75.1542L595.205 43.0405H604.134L598.597 75.1542H589.49Z" fill="white"/>
<path opacity="0.8" d="M589.49 75.1542L596.803 43.0405H604.116L598.597 75.1542H589.49Z" fill="white"/>
<path opacity="0.8" d="M630.93 43.3983C628.303 42.4188 625.518 41.9347 622.715 41.9709C613.785 41.9709 607.358 46.4312 607.358 52.8547C607.358 57.6709 611.822 60.1605 615.394 61.7752C618.966 63.39 620.037 64.4522 620.037 65.8777C620.037 68.0189 617.179 69.0885 614.68 69.0885C611.724 69.1539 608.793 68.544 606.109 67.3052L604.858 66.7694L603.607 74.0752C606.862 75.2766 610.306 75.8839 613.776 75.868C623.242 75.868 629.491 71.4077 629.491 64.6282C629.491 60.8817 627.17 58.0268 621.803 55.7077C618.59 54.1023 616.624 53.2106 616.624 51.6052C616.624 50.1777 618.231 48.7503 621.803 48.7503C624.129 48.6806 626.442 49.1066 628.589 49.9998L629.482 50.3557L630.911 43.3983H630.93Z" fill="white"/>
<path opacity="0.8" d="M630.93 43.3983C628.303 42.4188 625.518 41.9347 622.715 41.9709C613.785 41.9709 608.965 46.4312 608.965 52.8547C608.965 57.6709 611.822 60.1605 615.394 61.7752C618.966 63.39 620.037 64.4522 620.037 65.8777C620.037 68.0189 617.179 69.0885 614.68 69.0885C611.724 69.1539 608.793 68.544 606.109 67.3052L604.858 66.7694L603.607 74.0752C606.862 75.2766 610.306 75.8839 613.776 75.868C623.242 75.868 629.491 71.4077 629.491 64.6282C629.491 60.8817 627.17 58.0268 621.803 55.7077C618.59 54.1023 616.624 53.2106 616.624 51.6052C616.624 50.1777 618.231 48.7503 621.803 48.7503C624.129 48.6806 626.442 49.1066 628.589 49.9998L629.482 50.3557L630.911 43.3983H630.93Z" fill="white"/>
<path opacity="0.8" d="M646.279 43.0405C644.136 43.0405 642.529 43.2279 641.636 45.3597L628.242 75.1449H637.886L639.671 69.7929H651.109L652.18 75.1449H660.744L653.243 43.0405H646.279ZM642.18 64.4409C642.716 62.8355 645.743 54.9846 645.743 54.9846C645.743 54.9846 646.457 53.0214 646.993 51.7738L647.53 54.8066C647.53 54.8066 649.305 62.8449 649.681 64.6283H642.18V64.4409Z" fill="white"/>
<path opacity="0.8" d="M648.422 43.0405C646.279 43.0405 644.672 43.2279 643.78 45.3597L628.242 75.1449H637.886L639.671 69.7929H651.109L652.18 75.1449H660.744L653.243 43.0405H648.422ZM642.18 64.4409C642.895 62.6576 645.743 54.9846 645.743 54.9846C645.743 54.9846 646.457 53.0214 646.993 51.7738L647.53 54.8066C647.53 54.8066 649.305 62.8449 649.681 64.6283H642.18V64.4409Z" fill="white"/>
<path opacity="0.8" d="M573.06 65.5197L572.167 60.8815C569.923 54.7823 565.464 49.7504 559.675 46.7869L567.712 75.332H577.356L591.82 43.2183H582.177L573.06 65.5197Z" fill="white"/>
<path opacity="0.8" d="M573.06 65.5197L572.167 60.8815C569.923 54.7823 565.464 49.7504 559.675 46.7869L567.712 75.332H577.356L591.82 43.2183H583.964L573.06 65.5197Z" fill="white"/>
<path opacity="0.8" d="M548.237 43.0408L549.844 43.3967C561.282 46.0736 569.132 52.853 572.158 60.8801L568.944 45.7065C568.408 43.5653 566.801 43.0295 564.838 43.0295L548.237 43.0408Z" fill="white"/>
<path opacity="0.8" d="M548.237 43.0405C559.675 45.7081 569.132 52.6748 572.167 60.6944L569.132 48.0272C568.911 47.0584 568.366 46.1939 567.586 45.5772C566.807 44.9604 565.84 44.6286 564.845 44.6366L548.237 43.0405Z" fill="white"/>
<path opacity="0.8" d="M548.237 43.0405C559.675 45.7081 569.132 52.6748 572.167 60.6944L570.024 53.7445C569.488 51.6033 568.773 49.4621 566.274 48.5705L548.237 43.0405Z" fill="white"/>
<g opacity="0.8">
<path opacity="0.8" d="M581.989 64.4409L575.917 58.3752L573.06 65.1546L572.345 60.6944C570.097 54.5971 565.634 49.5686 559.844 46.6091L567.881 75.1542H577.524L581.989 64.4409Z" fill="white"/>
<path opacity="0.8" d="M598.597 75.1542L590.909 67.3052L589.489 75.1542H598.597Z" fill="white"/>
<path opacity="0.8" d="M619.135 64.0923C619.849 64.806 620.205 65.3418 620.027 66.0555C620.027 68.1967 617.17 69.2663 614.67 69.2663C611.714 69.3317 608.783 68.7217 606.099 67.4829L604.848 66.9472L603.598 74.253C606.856 75.4525 610.305 76.0566 613.778 76.0363C619.493 76.0363 624.136 74.4309 626.813 71.5761L619.135 64.0923Z" fill="white"/>
<path opacity="0.8" d="M629.491 75.1539H637.886L639.671 69.8019H651.109L652.18 75.1539H660.743L657.708 62.1308L646.993 51.7828L647.529 54.6377C647.529 54.6377 649.305 62.6647 649.68 64.4406H642.18C642.894 62.6572 645.743 54.9842 645.743 54.9842C645.743 54.9842 646.457 53.021 646.993 51.7734" fill="white"/>
</g>
<g opacity="0.6">
<path d="M573.207 354.181C578.527 359.501 578.527 368.126 573.207 373.446C567.887 378.766 559.262 378.766 553.942 373.446M650.268 277.12C655.588 282.44 655.588 291.065 650.268 296.385C644.948 301.705 636.323 301.705 631.003 296.385M611.738 315.65C617.058 320.97 617.058 329.596 611.738 334.916C606.418 340.236 597.792 340.236 592.472 334.916M688.798 238.59C694.118 243.91 694.118 252.535 688.798 257.855C683.478 263.175 674.853 263.175 669.533 257.855M573.316 354.289C567.996 348.97 567.924 340.272 573.243 334.952C578.563 329.632 587.189 329.632 592.509 334.952M650.377 277.229C645.057 271.909 644.984 263.211 650.304 257.891C655.624 252.571 664.249 252.571 669.569 257.891M611.846 315.759C606.526 310.439 606.454 301.741 611.774 296.421C617.094 291.102 625.719 291.102 631.039 296.421M688.907 238.698C683.587 233.378 683.515 224.681 688.835 219.361C694.154 214.041 702.78 214.041 708.1 219.361" stroke="#EDEEFF" stroke-width="4.71155"/>
</g>
</g>
<defs>
<linearGradient id="paint0_linear_111_3890" x1="2" y1="368.536" x2="794" y2="368.536" gradientUnits="userSpaceOnUse">
<stop stop-color="#B224EF" stop-opacity="0.1"/>
<stop offset="0.213542" stop-color="#B224EF"/>
<stop offset="0.776042" stop-color="#7579FF"/>
<stop offset="0.984375" stop-color="#7579FF" stop-opacity="0.1"/>
</linearGradient>
<linearGradient id="paint1_linear_111_3890" x1="-43.5261" y1="657.702" x2="679.071" y2="-64.8949" gradientUnits="userSpaceOnUse">
<stop stop-color="#B224EF"/>
<stop offset="1" stop-color="#7579FF"/>
</linearGradient>
<clipPath id="clip0_111_3890">
<rect width="600.033" height="354.051" fill="white" transform="translate(98)"/>
</clipPath>
</defs>
</svg>
