<svg width="67" height="67" viewBox="0 0 67 67" fill="none" xmlns="http://www.w3.org/2000/svg">
<path d="M1.50537 40.3642C1.74256 39.9311 2.04162 39.8589 2.50568 40.1064C3.57818 40.6839 4.63006 41.282 5.72318 41.8286C9.90669 43.9147 14.3146 45.5166 18.8613 46.6033C21.0104 47.1209 23.1864 47.5273 25.3788 47.8201C28.6252 48.2574 31.9004 48.4348 35.1757 48.3564C42.8122 48.1311 50.342 46.5021 57.3888 43.5508C57.6879 43.427 57.9972 43.3445 58.3272 43.427C59.0182 43.6126 59.2554 44.3551 58.7501 44.8604C58.4427 45.143 58.1107 45.3988 57.7601 45.6236C54.5941 47.7995 51.1394 49.3773 47.4888 50.5633C44.9608 51.3777 42.3707 51.9847 39.7441 52.3783C37.9271 52.6567 36.0956 52.8217 34.2579 52.8733C34.1714 52.8784 34.0853 52.8887 34.0001 52.9042H31.8241C31.7387 52.8897 31.6527 52.8794 31.5663 52.8733C31.1951 52.8526 30.8238 52.8423 30.4629 52.832C25.857 52.6091 21.3105 51.6984 16.9741 50.1301C11.4384 48.1337 6.34007 45.0873 1.95912 41.1583C1.7735 40.9933 1.64975 40.7664 1.50537 40.5704V40.3642ZM17.7991 13.5311L17.3557 13.5929C15.9377 13.768 14.5883 14.3041 13.4369 15.1501C13.1894 15.3254 12.9626 15.5111 12.7047 15.707C12.6829 15.6616 12.669 15.6127 12.6635 15.5626C12.6222 15.2842 12.581 14.9954 12.5294 14.717C12.4572 14.2426 12.2201 14.0364 11.7457 14.0364H10.5597C9.84818 14.0364 9.71412 14.1704 9.71412 14.882V36.4661C9.71412 36.5692 9.71412 36.6723 9.72443 36.7754C9.74506 37.0848 9.93068 37.2808 10.2297 37.2911C10.9516 37.3014 11.6838 37.3014 12.4057 37.2911C12.7047 37.2911 12.8904 37.0848 12.9213 36.7754C12.9316 36.6723 12.9316 36.5692 12.9316 36.4661V28.9998C13.0451 29.0926 13.1069 29.1442 13.1585 29.1958C15.0044 30.7323 17.1288 31.2376 19.4491 30.7839C21.5529 30.3714 23.0172 29.0823 23.966 27.1848C24.6879 25.7514 24.9869 24.2251 25.0282 22.637C25.0797 20.8736 24.9044 19.1411 24.1929 17.5014C23.3163 15.4801 21.8622 14.1498 19.6657 13.6961C19.3357 13.6239 18.9954 13.5929 18.6551 13.5414C18.3663 13.5311 18.0879 13.5311 17.7991 13.5311V13.5311ZM12.911 17.852C12.9049 17.7845 12.9181 17.7166 12.9492 17.6563C12.9802 17.5961 13.0278 17.5459 13.0863 17.5117C14.4991 16.532 16.0563 16.0164 17.7888 16.1504C19.3254 16.2639 20.5835 17.0167 21.2435 18.8214C21.6457 19.9248 21.7488 21.0695 21.7488 22.2245C21.7488 23.297 21.6663 24.3489 21.3363 25.3801C20.6351 27.5767 19.0263 28.412 16.9432 28.3192C15.4994 28.2573 14.2413 27.7004 13.0863 26.8858C13.0286 26.8506 12.9817 26.8003 12.9508 26.7403C12.9199 26.6802 12.9061 26.6128 12.911 26.5454C12.9213 25.0914 12.911 23.6476 12.911 22.1936C12.911 20.7395 12.9213 19.3061 12.911 17.852V17.852ZM34.1238 13.5311C34.0207 13.5414 33.9176 13.562 33.8247 13.5723C32.8198 13.615 31.8216 13.7566 30.8444 13.9951C30.2154 14.1601 29.6069 14.387 28.9985 14.5933C28.6272 14.717 28.4416 14.9851 28.4519 15.3873C28.4622 15.7276 28.4416 16.0679 28.4519 16.4083C28.4622 16.9033 28.6685 17.0373 29.1532 16.9136C29.9576 16.7073 30.7619 16.4804 31.5766 16.3258C32.8451 16.0886 34.1238 15.9854 35.4129 16.1814C36.0832 16.2845 36.7122 16.4804 37.1454 17.0476C37.5269 17.5426 37.6713 18.1304 37.6919 18.7389C37.7229 19.5948 37.7126 20.4508 37.7229 21.3067C37.7202 21.3553 37.7133 21.4036 37.7022 21.4511C37.6507 21.4408 37.6094 21.4511 37.5682 21.4408C36.4858 21.1726 35.3812 21.0035 34.2682 20.9354C33.1029 20.8736 31.9479 20.9458 30.8341 21.3376C29.5038 21.8017 28.4313 22.6061 27.8022 23.9054C27.3176 24.9161 27.2454 25.9886 27.4001 27.0714C27.6063 28.5151 28.3282 29.6289 29.6069 30.3404C30.8341 31.0211 32.1644 31.1036 33.5154 30.8973C35.0481 30.6568 36.4856 30.0005 37.6713 28.9998C37.721 28.9549 37.7765 28.9167 37.8363 28.8864C37.8982 29.2783 37.9497 29.6495 38.0219 30.0208C38.0838 30.3404 38.2797 30.5467 38.5788 30.557C39.1357 30.5673 39.7029 30.5673 40.2597 30.557C40.3889 30.556 40.5127 30.5049 40.605 30.4145C40.6973 30.3241 40.751 30.2015 40.7547 30.0723C40.7634 29.9763 40.7668 29.8799 40.7651 29.7836V18.8523C40.7713 18.4071 40.7402 17.9621 40.6722 17.522C40.4763 16.1917 39.9091 15.0986 38.7129 14.387C38.0219 13.9745 37.2588 13.7683 36.4647 13.6548C36.0935 13.6033 35.7222 13.5723 35.351 13.5208C34.9488 13.5311 34.5363 13.5311 34.1238 13.5311V13.5311ZM37.7332 26.7001C37.737 26.7608 37.7247 26.8213 37.6975 26.8756C37.6703 26.93 37.6293 26.9762 37.5785 27.0095C36.4235 27.8448 35.1551 28.4017 33.7216 28.5461C33.1338 28.6079 32.546 28.5873 31.9891 28.3604C31.6831 28.2486 31.4078 28.066 31.1856 27.8277C30.9634 27.5894 30.8006 27.302 30.7104 26.9889C30.5059 26.3382 30.5023 25.641 30.7001 24.9883C30.9579 24.1323 31.5663 23.6476 32.3913 23.3795C33.2192 23.1294 34.0898 23.0522 34.9488 23.1526C35.8151 23.2248 36.6607 23.3898 37.5269 23.5033C37.6919 23.5239 37.7435 23.6064 37.7435 23.7714C37.7332 24.2664 37.7435 24.7511 37.7435 25.2461C37.7435 25.7411 37.7229 26.2154 37.7332 26.7001V26.7001ZM64.5354 40.0445C64.4322 39.5289 64.0404 39.3329 63.5969 39.1886C62.894 38.9675 62.1668 38.8324 61.4313 38.7864C60.0811 38.6709 58.7215 38.7368 57.3888 38.9823C55.9141 39.2608 54.5116 39.7351 53.2638 40.5911C53.1152 40.6865 52.9858 40.8089 52.8822 40.952C52.8465 41.0138 52.8235 41.0822 52.8147 41.153C52.8058 41.2239 52.8113 41.2958 52.8307 41.3645C52.8719 41.5192 53.0472 41.5604 53.2019 41.5501C53.2777 41.5518 53.3535 41.5484 53.4288 41.5398C54.2332 41.4573 55.0272 41.3645 55.8316 41.282C57.0072 41.1686 58.1932 41.0964 59.3688 41.1892C59.8721 41.2304 60.3691 41.3233 60.8538 41.4676C61.3797 41.612 61.6169 42.0039 61.6376 42.5401C61.6788 43.3651 61.4932 44.1592 61.2766 44.9429C60.8538 46.5311 60.2454 48.0676 59.6472 49.5939C59.6037 49.6937 59.5691 49.7972 59.5441 49.9033C59.4926 50.2023 59.6679 50.3983 59.9669 50.3261C60.1517 50.285 60.3223 50.196 60.4619 50.0683C60.9281 49.6351 61.3653 49.1752 61.7716 48.6864C63.0916 46.9951 63.8651 45.0461 64.3188 42.9526C64.4013 42.5814 64.4632 42.1998 64.5354 41.8286V40.0445ZM50.9126 27.3395L46.9216 16.2845C46.7154 15.6967 46.4885 15.1192 46.2719 14.5417C46.1585 14.2426 45.9419 14.0467 45.6119 14.0467C44.8282 14.0364 44.0444 14.0261 43.2504 14.0364C42.9926 14.0364 42.8688 14.2426 42.9204 14.5004C42.9699 14.7149 43.0359 14.9253 43.1163 15.1295C45.1376 20.1311 47.1691 25.1326 49.211 30.1342C49.3863 30.557 49.4276 30.9179 49.2316 31.3511C48.8913 32.1039 48.6232 32.8979 48.2726 33.6508C47.9632 34.3211 47.4476 34.8264 46.7051 35.0223C46.1872 35.1578 45.6488 35.1963 45.1169 35.1358C44.8591 35.1151 44.6013 35.0533 44.3435 35.0326C43.9929 35.012 43.8176 35.1667 43.8072 35.5276C43.7969 35.8679 43.7969 36.2083 43.8072 36.5486C43.8176 37.1158 44.0135 37.3736 44.5704 37.4664C45.1458 37.5798 45.7274 37.6499 46.3132 37.6726C48.0766 37.7139 49.4791 37.0023 50.3866 35.4658C50.7517 34.8594 51.0693 34.2241 51.3354 33.5683C53.7794 27.4014 56.207 21.2283 58.616 15.047C58.6923 14.8655 58.7459 14.6737 58.781 14.4798C58.8222 14.1911 58.6882 14.0261 58.3994 14.0261C57.7188 14.0158 57.0279 14.0261 56.3472 14.0261C56.174 14.0139 56.0017 14.0602 55.8578 14.1573C55.7139 14.2545 55.6067 14.3971 55.5532 14.5623C55.5016 14.7067 55.4397 14.8408 55.3882 14.9851L51.7994 25.2976C51.5416 26.0401 51.2735 26.7929 51.0054 27.587C50.9641 27.4736 50.9435 27.4117 50.9126 27.3395V27.3395Z" fill="#5F6073"/>
</svg>
