<svg width="119" height="50" viewBox="0 0 119 50" fill="none" xmlns="http://www.w3.org/2000/svg">
<g clip-path="url(#clip0_111_6083)">
<path d="M10.2827 14.76H14.4371L12.354 9.48584L10.2827 14.76Z" fill="#5F6073"/>
<path d="M61.7184 10.2396C61.2352 10.0693 60.7217 10.0019 60.2109 10.0418H56.4521V13.0567H60.2109C60.7217 13.0966 61.2352 13.0292 61.7184 12.8589C61.9179 12.7059 62.0748 12.5042 62.1739 12.2731C62.2729 12.042 62.3109 11.7894 62.2842 11.5394C62.3696 11.2912 62.3589 11.02 62.2542 10.7794C62.1494 10.5387 61.9582 10.3461 61.7184 10.2396Z" fill="#5F6073"/>
<path d="M102.038 4.58591V6.8471L100.908 4.58591H92.0516V6.8471L90.9121 4.58591H78.8445C77.021 4.5377 75.2123 4.92494 73.5684 5.71551V4.58591H65.1092V5.71551C64.0879 4.92536 62.8184 4.52489 61.5285 4.58591H31.1953L29.1221 9.29623L27.0488 4.58591H17.4422V6.8471L16.3106 4.58591H8.21941L4.46065 13.4408L0.108398 23.2392H9.71698L10.8466 20.2243H13.4856L14.6152 23.2392H25.5433V20.9781L26.485 23.2392H31.9589L32.9006 20.9781V23.2392H59.0814V18.341H59.4572C59.8331 18.341 59.8331 18.341 59.8331 18.9068V23.0612H73.3983V21.9316C74.9824 22.6997 76.7242 23.0865 78.4845 23.0612H84.1365L85.2661 20.0463H87.9031L89.0327 23.0612H99.9608V20.2243L101.656 23.0513H110.517V4.58591H102.038ZM38.3567 20.4123H35.1519V10.05L30.6295 20.4123H27.8045L23.2821 10.05V20.4123H16.8764L15.5589 17.5873H9.15118L8.02158 20.6022H4.44086L10.0948 7.21506H14.8052L20.0892 19.8485V7.21506H25.1754L29.3298 16.2578L33.0886 7.21506H38.3647L38.3567 20.4123ZM51.1682 10.05H43.8287V12.4991H50.9882V15.1282H43.8287V17.7653H51.1682V20.5923H40.616V7.21506H51.1682V10.05ZM65.2972 15.5239C65.7039 16.274 65.8995 17.1205 65.863 17.973V20.6101H62.6601V18.9068C62.7463 17.9905 62.5488 17.07 62.0943 16.2697C61.5285 15.7039 60.9647 15.7039 59.8331 15.7039H56.4423V20.6022H53.2395V7.21506H60.3989C61.6799 7.06468 62.9777 7.26004 64.1577 7.78085C64.6637 8.09427 65.0727 8.54219 65.3389 9.07458C65.6051 9.60698 65.718 10.2029 65.6651 10.7958C65.6941 11.5509 65.4948 12.2973 65.0932 12.9375C64.6916 13.5776 64.1063 14.0819 63.4138 14.3844C64.1456 14.5572 64.8045 14.9558 65.2972 15.5239ZM70.9492 20.4222H67.7463V7.03701H70.9511L70.9492 20.4222ZM108.066 20.4222H103.546L97.5157 10.4357V20.4222H91.11L89.9804 17.5952H83.3946L82.265 20.6101H78.6843C77.0414 20.6907 75.4279 20.1529 74.1619 19.1026C73.5403 18.4199 73.0684 17.6147 72.7764 16.7388C72.4844 15.8629 72.3789 14.9356 72.4665 14.0164C72.3587 12.1085 72.9629 10.2284 74.1619 8.74033C74.79 8.16305 75.5352 7.72798 76.3467 7.46477C77.1582 7.20156 78.0169 7.11638 78.8643 7.21506H81.8792V10.042H78.8643C77.9817 9.97201 77.1057 10.2416 76.4152 10.7958C75.741 11.6506 75.4057 12.7241 75.4735 13.8107C75.397 14.3807 75.4413 14.9605 75.6035 15.5123C75.7657 16.0641 76.0423 16.5756 76.4152 17.0136C76.7207 17.2869 77.0789 17.4947 77.4678 17.6244C77.8567 17.754 78.268 17.8026 78.6764 17.7673H79.9959L84.3264 7.41289H89.0367L94.3128 20.0364V7.41289H99.0231L104.487 16.6456V7.41289H107.69V20.4123L108.066 20.4222Z" fill="#5F6073"/>
<path d="M84.5161 14.7599H88.8486L86.7773 9.48572L84.5161 14.7599Z" fill="#5F6073"/>
<path d="M52.4857 41.8924V31.1522L47.5874 36.4283L52.4857 41.8924Z" fill="#5F6073"/>
<path d="M32.3271 32.4722V34.9114H39.2987V37.5485H32.3271V40.3755H40.0425L43.6232 36.4189L40.2324 32.4623L32.3271 32.4722Z" fill="#5F6073"/>
<path d="M59.6548 32.4718H55.6982V35.8626H59.8527C60.9823 35.8626 61.736 35.2968 61.736 34.1672C61.6841 33.6667 61.4359 33.2073 61.0458 32.8895C60.6556 32.5717 60.1555 32.4215 59.6548 32.4718Z" fill="#5F6073"/>
<path d="M117.864 35.6743V27.1953H109.951C108.542 27.109 107.146 27.5077 105.994 28.3249V27.1953H97.3276C95.9832 27.1381 94.6589 27.5361 93.5688 28.3249V27.1953H78.2983V28.3249C77.059 27.5384 75.6109 27.1447 74.1439 27.1953H63.9794V28.3249C62.6957 27.4959 61.1801 27.1 59.6549 27.1953H48.341L45.7039 30.0223L43.2548 27.1953H26.2969V45.6587H42.877L45.514 42.8239L47.9632 45.6508H58.1375V41.3184H59.4571C60.9241 41.4093 62.395 41.2172 63.7895 40.7526V45.8388H72.2685V40.9484H72.6444C73.2102 40.9484 73.2102 40.9484 73.2102 41.5142V45.8467H98.8251C100.351 45.9274 101.865 45.5327 103.158 44.7171V45.8467H111.269C112.834 45.9582 114.4 45.6322 115.791 44.905C116.743 44.3107 117.523 43.4768 118.052 42.4867C118.581 41.4966 118.841 40.385 118.806 39.2629C118.81 38.0051 118.486 36.768 117.864 35.6743ZM59.4571 38.6892H55.6983V43.2195H49.6605L45.9018 38.887L41.9452 43.2195H29.4997V29.8324H42.1232L45.882 34.1649L49.8386 29.8324H59.8329C62.2821 29.8324 65.109 30.5861 65.109 34.1649C64.9211 37.9355 62.284 38.6892 59.4571 38.6892ZM78.2983 37.9355C78.7281 38.6767 78.9252 39.53 78.8641 40.3846V43.0217H75.6593V41.3263C75.7629 40.4081 75.5613 39.4814 75.0856 38.6892C74.7097 38.1234 73.956 38.1234 72.8244 38.1234H69.4435V43.0217H66.2406V29.6444H73.4001C74.6807 29.5109 75.9743 29.7057 77.1588 30.2102C77.6902 30.5096 78.1292 30.949 78.4282 31.4806C78.7271 32.0122 78.8745 32.6156 78.8542 33.2252C78.8808 33.9801 78.6793 34.7256 78.2759 35.3643C77.8726 36.003 77.2861 36.5054 76.593 36.8059C77.2691 36.9872 77.8676 37.3838 78.2983 37.9355ZM91.3076 32.4714H83.9503V34.9107H91.1098V37.5477H83.9503V40.1848H91.3076V43.0217H80.7475V29.6444H91.3076V32.4714ZM99.2208 43.0217H93.183V40.1947H99.2208C99.4548 40.2351 99.695 40.2222 99.9234 40.1572C100.152 40.0921 100.363 39.9765 100.54 39.8188C100.782 39.565 100.917 39.2278 100.917 38.8771C100.917 38.5265 100.782 38.1893 100.54 37.9355C100.227 37.6689 99.8217 37.5342 99.4107 37.5596C96.3958 37.3618 92.817 37.5596 92.817 33.4052C92.817 31.5219 93.9466 29.4486 97.3394 29.4486H103.557V32.6515H97.7034C97.2541 32.6098 96.8013 32.6777 96.3839 32.8493C96.008 33.0471 96.008 33.4151 96.008 33.791C96.008 34.3567 96.3839 34.5447 96.7618 34.7326C97.1167 34.8893 97.5044 34.9572 97.8914 34.9305H99.5868C100.229 34.8683 100.877 34.9363 101.492 35.1304C102.107 35.3245 102.677 35.6407 103.167 36.0601C103.843 36.8406 104.182 37.8572 104.109 38.887C104.109 41.7022 102.414 43.0217 99.2208 43.0217ZM115.423 41.7022C114.329 42.645 112.907 43.119 111.466 43.0217H105.429V40.1947H111.459C111.693 40.2351 111.933 40.2222 112.161 40.1572C112.39 40.0921 112.6 39.9765 112.778 39.8188C113.02 39.565 113.155 39.2278 113.155 38.8771C113.155 38.5265 113.02 38.1893 112.778 37.9355C112.464 37.6689 112.059 37.5342 111.648 37.5596C108.634 37.3618 105.055 37.5596 105.055 33.4052C105.055 31.5219 106.184 29.4486 109.577 29.4486H115.795V32.6515H110.139C109.69 32.6098 109.237 32.6777 108.819 32.8493C108.444 33.0471 108.444 33.4151 108.444 33.791C108.444 34.3567 108.641 34.5447 109.197 34.7326C109.552 34.8893 109.94 34.9572 110.327 34.9305H112.022C112.664 34.8683 113.313 34.9363 113.928 35.1304C114.543 35.3245 115.113 35.6407 115.603 36.0601C115.63 36.058 115.656 36.0617 115.681 36.0709C115.706 36.0801 115.729 36.0946 115.748 36.1134C115.766 36.1322 115.781 36.1548 115.79 36.1798C115.799 36.2047 115.803 36.2314 115.801 36.2579C116.331 37.0319 116.596 37.9575 116.555 38.895C116.565 39.4157 116.47 39.9332 116.274 40.4159C116.078 40.8985 115.786 41.3362 115.415 41.7022H115.423Z" fill="#5F6073"/>
<path d="M74.9078 32.8481C74.4246 32.6778 73.9111 32.6104 73.4004 32.6503H69.6416V35.6652H73.4004C73.9111 35.7051 74.4246 35.6377 74.9078 35.4674C75.1074 35.3144 75.2642 35.1127 75.3633 34.8817C75.4624 34.6506 75.5004 34.3979 75.4736 34.1479C75.5591 33.8997 75.5484 33.6286 75.4436 33.3879C75.3389 33.1473 75.1477 32.9547 74.9078 32.8481Z" fill="#5F6073"/>
<path d="M61.7184 10.2395C61.2352 10.0692 60.7217 10.0018 60.2109 10.0417H56.4521V13.0566H60.2109C60.7217 13.0965 61.2352 13.0291 61.7184 12.8588C61.9179 12.7058 62.0748 12.5041 62.1739 12.273C62.2729 12.0419 62.3109 11.7892 62.2842 11.5392C62.3696 11.2911 62.3589 11.0199 62.2542 10.7793C62.1494 10.5386 61.9582 10.346 61.7184 10.2395Z" fill="#5F6073"/>
<path d="M84.5161 14.7599H88.8486L86.7773 9.48572L84.5161 14.7599Z" fill="#5F6073"/>
<path d="M52.4857 41.8924V31.1522L47.5874 36.4283L52.4857 41.8924Z" fill="#5F6073"/>
<path d="M59.6548 32.4718H55.6982V35.8626H59.8527C60.9823 35.8626 61.736 35.2968 61.736 34.1672C61.6841 33.6667 61.4359 33.2073 61.0458 32.8895C60.6556 32.5717 60.1555 32.4215 59.6548 32.4718Z" fill="#5F6073"/>
<path d="M74.9078 32.8481C74.4246 32.6778 73.9111 32.6104 73.4004 32.6503H69.6416V35.6652H73.4004C73.9111 35.7051 74.4246 35.6377 74.9078 35.4674C75.1074 35.3144 75.2642 35.1127 75.3633 34.8817C75.4624 34.6506 75.5004 34.3979 75.4736 34.1479C75.5591 33.8997 75.5484 33.6286 75.4436 33.3879C75.3389 33.1473 75.1477 32.9547 74.9078 32.8481Z" fill="#5F6073"/>
<path d="M58.3274 42.6464L55.6983 39.8194V43.0223H49.4706L45.7119 38.6898L41.5574 43.0223H29.1239V29.833H41.7474L45.7039 34.1655L47.5873 31.9062L42.877 27.1959H26.2969V45.6593H42.877L45.7039 42.8245L48.1531 45.6514H58.3274V42.6464Z" fill="#5F6073"/>
<path d="M38.7326 23.0411L36.2835 20.404H35.1539V19.2823L32.3269 16.4553L30.4436 20.4119H27.8045L23.2821 10.0496V20.4119H16.8764L15.5589 17.5869H9.15118L7.82375 20.4119H4.44086L10.0948 7.21473H14.8052L20.0892 19.8481V7.21473H22.9162L20.2672 4.58557H17.4422V6.84677L16.5005 4.58557H8.21941L4.46065 13.4404L0.108398 23.0411H9.90491L11.0345 20.2141H13.6736L14.9931 23.0411H25.5433V20.7898L26.485 23.051H31.9589L32.9006 20.7898V23.0411H38.7326Z" fill="#5F6073"/>
<path d="M30.0657 14.3844L27.0508 11.3695L29.312 16.2678L30.0657 14.3844Z" fill="#5F6073"/>
<path d="M115.791 44.7179C116.639 44.1469 117.35 43.3942 117.872 42.5145C118.393 41.6348 118.712 40.65 118.806 39.6317L116.169 36.9946C116.402 37.5959 116.529 38.2332 116.545 38.878C116.56 39.4013 116.467 39.9222 116.273 40.4084C116.078 40.8946 115.787 41.3358 115.415 41.7049C114.321 42.6478 112.9 43.1218 111.459 43.0245H105.429V40.1955H111.459C111.693 40.2359 111.933 40.2231 112.161 40.158C112.39 40.0929 112.6 39.9773 112.778 39.8196C113.02 39.5658 113.155 39.2286 113.155 38.878C113.155 38.5273 113.02 38.1901 112.778 37.9363C112.464 37.6697 112.059 37.535 111.648 37.5604C108.634 37.3626 105.055 37.5604 105.055 33.406C105.055 31.5227 106.184 29.8253 109.011 29.4494L106.936 27.394C106.56 27.5918 106.37 27.7698 106.182 27.7698V26.6402H97.5156C96.1712 26.583 94.8469 26.981 93.7568 27.7698V26.6402H78.3063V27.7698C77.067 26.9833 75.6189 26.5896 74.1519 26.6402H63.9795V27.7698C62.6935 26.9392 61.1749 26.5432 59.647 26.6402H48.3411L45.704 29.4672L43.2549 26.6303H41.1816L46.8336 32.2823L49.6606 29.2674H59.655C62.1041 29.2674 64.9311 30.0211 64.9311 33.5999C64.9311 37.3586 62.294 38.1223 59.467 38.1223H55.6984V40.9492L58.5254 43.7762V40.9492H59.4571C60.9242 41.0402 62.3951 40.8481 63.7896 40.3834V45.4696H72.2686V40.5734H72.6444C73.2102 40.5734 73.2102 40.5734 73.2102 41.1392V45.4716H98.8252C100.351 45.5523 101.865 45.1577 103.158 44.342V45.4716H111.269C112.818 45.7002 114.4 45.4366 115.791 44.7179ZM78.2984 37.9363C78.7282 38.6775 78.9253 39.5308 78.8642 40.3854V43.0225H75.6594V41.3271C75.763 40.4089 75.5614 39.4822 75.0857 38.69C74.7098 38.1242 73.9561 38.1242 72.8245 38.1242H69.4436V43.0225H66.2407V29.6453H73.4002C74.6808 29.5118 75.9743 29.7065 77.1589 30.2111C77.6903 30.5104 78.1293 30.9498 78.4283 31.4814C78.7272 32.013 78.8746 32.6164 78.8543 33.226C78.8809 33.9809 78.6793 34.7264 78.276 35.3651C77.8726 36.0038 77.2862 36.5062 76.5931 36.8067C77.2691 36.9881 77.8677 37.3846 78.2984 37.9363ZM91.3077 32.4722H83.9504V34.9115H91.1098V37.5486H83.9504V40.1856H91.3077V43.0225H80.7475V29.6453H91.3077V32.4722ZM99.2208 43.0225H93.1831V40.1955H99.2208C99.4549 40.2359 99.695 40.2231 99.9235 40.158C100.152 40.0929 100.363 39.9773 100.54 39.8196C100.782 39.5658 100.917 39.2286 100.917 38.878C100.917 38.5273 100.782 38.1901 100.54 37.9363C100.227 37.6697 99.8217 37.535 99.4108 37.5604C96.3958 37.3626 92.8171 37.5604 92.8171 33.406C92.8171 31.5227 93.9467 29.4494 97.3395 29.4494H103.557V32.6523H97.7035C97.2541 32.6107 96.8014 32.6785 96.384 32.8501C96.0081 33.0479 96.0081 33.4159 96.0081 33.7918C96.0081 34.3576 96.384 34.5455 96.7618 34.7334C97.1167 34.8901 97.5044 34.958 97.8914 34.9313H99.5868C100.229 34.8691 100.877 34.9371 101.492 35.1312C102.108 35.3253 102.677 35.6415 103.168 36.0609C103.843 36.8414 104.182 37.858 104.109 38.8879C104.109 41.703 102.414 43.0225 99.2208 43.0225Z" fill="#5F6073"/>
<path d="M108.256 33.79C108.256 34.3558 108.454 34.5437 109.01 34.7316C109.364 34.8883 109.752 34.9562 110.139 34.9295H111.835C112.747 34.8951 113.654 35.0896 114.472 35.4953L111.645 32.6683H109.949C109.5 32.6267 109.047 32.6945 108.63 32.8661C108.399 33.1197 108.266 33.4473 108.256 33.79Z" fill="#5F6073"/>
<path d="M101.66 22.4857L102.036 23.0515H102.234L101.66 22.4857Z" fill="#5F6073"/>
<path d="M91.3076 12.1238L94.5105 19.8391V15.3266L91.3076 12.1238Z" fill="#5F6073"/>
<path d="M59.0813 18.3411H59.4572C59.8331 18.3411 59.8331 18.3411 59.8331 18.9069V23.0613H73.3983V21.9317C74.9824 22.6998 76.7242 23.0867 78.4845 23.0613H84.1364L85.2661 20.0464H87.9031L89.0327 23.0613H99.9608V21.178L97.3238 18.5409V20.6142H90.9121L89.9704 17.5993H83.3946L82.265 20.6142H78.6843C77.0414 20.6948 75.4278 20.157 74.1619 19.1067C73.5403 18.424 73.0683 17.6188 72.7764 16.7429C72.4844 15.867 72.3788 14.9397 72.4665 14.0205C72.3587 12.1126 72.9628 10.2325 74.1619 8.74443C74.7897 8.16645 75.5347 7.73066 76.3462 7.46676C77.1577 7.20286 78.0166 7.11705 78.8643 7.21521H81.8792V10.0422H78.8643C77.9817 9.97216 77.1057 10.2418 76.4152 10.7959C75.7409 11.6508 75.4057 12.7242 75.4735 13.8108C75.397 14.3809 75.4413 14.9607 75.6035 15.5125C75.7657 16.0643 76.0423 16.5758 76.4152 17.0137C76.7207 17.287 77.0789 17.4949 77.4678 17.6245C77.8567 17.7541 78.268 17.8028 78.6764 17.7674H79.9959L84.3264 7.41304H86.2097L83.5726 4.77597H78.6744C76.8509 4.72776 75.0422 5.115 73.3983 5.90558V4.77597H65.1092V5.90558C64.0878 5.11542 62.8184 4.71495 61.5285 4.77597H31.1953L29.122 9.48629L27.0488 4.77597H18.7617L21.3988 7.41304H25.1575L28.3604 14.3845L29.49 15.5142L32.8808 7.2251H38.1569V20.6023H34.964V10.24L31.7611 17.7753L37.2251 23.2394H58.8914L59.0813 18.3411ZM67.7463 7.21521H70.9511V20.5924H67.7463V7.21521ZM51.1682 10.0501H43.8287V12.4992H50.9881V15.1284H43.8287V17.7655H51.1682V20.5924H40.6159V7.21521H51.1682V10.0501ZM56.4443 20.4124H53.2394V7.03716H60.3989C61.6799 6.88677 62.9777 7.08214 64.1576 7.60295C64.6637 7.91637 65.0726 8.36429 65.3388 8.89668C65.605 9.42908 65.718 10.025 65.6651 10.6179C65.6921 11.3714 65.4918 12.1156 65.0903 12.7538C64.6888 13.392 64.1047 13.8947 63.4138 14.1966C64.0459 14.3589 64.588 14.7651 64.9213 15.3262C65.328 16.0763 65.5236 16.9228 65.4871 17.7753V20.4124H62.2842V18.717C62.3704 17.8008 62.1729 16.8802 61.7184 16.0799C61.5206 15.7041 60.9647 15.7041 59.8351 15.7041H56.4423V20.4144L56.4443 20.4124Z" fill="#5F6073"/>
</g>
<defs>
<clipPath id="clip0_111_6083">
<rect width="118.698" height="49.4574" fill="white" transform="translate(0.108398 0.489014)"/>
</clipPath>
</defs>
</svg>
