<svg width="85" height="57" viewBox="0 0 85 57" fill="none" xmlns="http://www.w3.org/2000/svg">
<g clip-path="url(#clip0_129_1424)">
<path d="M78.4615 56.2176H5.66152C4.17631 56.2176 2.75193 55.6277 1.70173 54.5774C0.651522 53.5272 0.0615234 52.1029 0.0615234 50.6177L0.0615234 5.81765C0.0615234 4.33244 0.651522 2.90806 1.70173 1.85785C2.75193 0.80765 4.17631 0.217651 5.66152 0.217651L78.4615 0.217651C79.9467 0.217651 81.3711 0.80765 82.4213 1.85785C83.4715 2.90806 84.0615 4.33244 84.0615 5.81765V50.6177C84.0615 52.1029 83.4715 53.5272 82.4213 54.5774C81.3711 55.6277 79.9467 56.2176 78.4615 56.2176V56.2176ZM64.9119 39.6276V42.2176C65.2829 42.269 65.7099 42.2993 66.1439 42.2993H66.1812H66.1789C69.4315 42.2993 70.9762 41.0346 72.3062 37.2896L78.1722 20.8397H74.7795L70.8455 33.547H70.7755L66.8415 20.8397H63.3509L69.0092 36.5033L68.7059 37.4553C68.6023 38.1144 68.2547 38.7106 67.7322 39.1255C67.2097 39.5404 66.5503 39.7438 65.8849 39.6953H65.8942C65.567 39.6817 65.2402 39.6591 64.9142 39.6276H64.9119ZM13.3919 19.0103H13.3312C12.3488 19.0371 11.3902 19.3179 10.5486 19.8254C9.70706 20.3328 9.01132 21.0497 8.52919 21.906L8.51519 21.934C6.54586 25.322 7.79886 30.5066 9.97819 33.6636C11.0002 35.157 12.1202 36.6177 13.5972 36.6177H13.6765C14.2949 36.578 14.8665 36.417 15.3822 36.158L15.3565 36.1697C15.9795 35.857 16.7122 35.6727 17.4869 35.6657H17.4892C18.2382 35.6703 18.9452 35.8523 19.5682 36.1697L19.5425 36.158C20.0442 36.4193 20.6345 36.578 21.2622 36.592H21.3299C22.9749 36.5616 24.0062 35.052 24.9185 33.722C25.5695 32.7793 26.1085 31.6943 26.4865 30.5347L26.5122 30.446V30.4226L26.4702 30.404C25.5594 29.9955 24.7853 29.3338 24.24 28.4978C23.6948 27.6617 23.4014 26.6865 23.3949 25.6883V25.686C23.4029 24.8045 23.6326 23.9392 24.0628 23.1698C24.493 22.4003 25.1098 21.7515 25.8565 21.283L25.8775 21.2713L25.9195 21.2433C25.4404 20.5481 24.804 19.9757 24.0621 19.5727C23.3201 19.1697 22.4935 18.9474 21.6495 18.924H21.3952C20.3944 18.9746 19.4128 19.2178 18.5042 19.6403L18.5532 19.6193C18.1247 19.8261 17.6651 19.9609 17.1929 20.0183L17.1719 20.0207C16.6639 19.9671 16.1694 19.8241 15.7112 19.5983L15.7369 19.61C15.0071 19.262 14.2174 19.0569 13.4105 19.0057H13.3919V19.0103ZM55.6555 23.2477C57.7089 23.2477 58.8429 24.209 58.8429 25.952V27.1397L54.6755 27.387C50.7672 27.6227 48.7022 29.207 48.7022 31.9673C48.709 32.6314 48.856 33.2866 49.1335 33.89C49.411 34.4934 49.8128 35.0314 50.3126 35.4689C50.8123 35.9063 51.3988 36.2333 52.0336 36.4284C52.6685 36.6236 53.3373 36.6825 53.9965 36.6013L53.9732 36.6036L54.1249 36.606C56.1525 36.606 57.9259 35.514 58.8872 33.883L58.9012 33.8573H58.9712V36.4287H62.0629V25.728C62.0629 22.6246 59.5872 20.6227 55.7559 20.6227C52.2232 20.6227 49.5959 22.648 49.4909 25.4363H52.5009C52.677 24.7505 53.0947 24.1512 53.6772 23.7487C54.2598 23.3462 54.9681 23.1674 55.6719 23.2453L55.6579 23.243L55.6555 23.2477ZM32.7282 14.927V36.431H36.0672V29.0763H40.6802C41.6307 29.1269 42.5813 28.9783 43.4711 28.6401C44.3608 28.3019 45.1702 27.7816 45.8472 27.1125C46.5242 26.4434 47.054 25.6403 47.4026 24.7545C47.7512 23.8688 47.9109 22.92 47.8715 21.969V21.983C47.9129 21.0422 47.7575 20.1031 47.4152 19.2257C47.0729 18.3484 46.5512 17.5522 45.8835 16.8881C45.2159 16.2239 44.4169 15.7065 43.5378 15.3688C42.6587 15.0311 41.7188 14.8806 40.7782 14.927H40.7945H32.7282ZM21.6519 13.2843C20.3179 13.4107 19.0838 14.0457 18.2055 15.0577L18.2009 15.0647C17.7638 15.5546 17.4291 16.1269 17.2164 16.7479C17.0036 17.369 16.9171 18.0263 16.9619 18.6813V18.6673C17.0412 18.6673 17.1252 18.6767 17.2185 18.6767C17.8403 18.6429 18.4479 18.4785 19.0019 18.1943C19.5559 17.9101 20.0438 17.5123 20.4339 17.027L20.4409 17.0177C21.3219 15.9746 21.7577 14.6271 21.6542 13.2657V13.282L21.6519 13.2843ZM54.8692 34.0533C53.1005 34.0533 51.9549 33.2016 51.9549 31.8856C51.9549 30.5276 53.0515 29.746 55.1282 29.6223L58.8382 29.389V30.6046C58.8176 31.0978 58.6962 31.5815 58.4816 32.026C58.267 32.4704 57.9637 32.8663 57.5904 33.1891C57.217 33.512 56.7815 33.755 56.3108 33.9032C55.84 34.0514 55.3438 34.1017 54.8529 34.051L54.8692 34.0533ZM39.8939 26.2833H36.0579V17.741H39.9079C40.5008 17.6598 41.1044 17.7121 41.6746 17.8941C42.2448 18.076 42.7671 18.3831 43.2034 18.7928C43.6397 19.2024 43.9789 19.7044 44.1964 20.262C44.4138 20.8196 44.504 21.4188 44.4602 22.0157V22.0017C44.5027 22.6017 44.4105 23.2036 44.1902 23.7634C43.9699 24.3231 43.6272 24.8265 43.1871 25.2366C42.747 25.6467 42.2208 25.9531 41.6469 26.1334C41.073 26.3137 40.4661 26.3634 39.8705 26.2786L39.8915 26.281L39.8939 26.2833Z" fill="#5F6073"/>
</g>
<defs>
<clipPath id="clip0_129_1424">
<rect width="84" height="56" fill="white" transform="translate(0.0615234 0.217651)"/>
</clipPath>
</defs>
</svg>
