<svg width="141" height="142" viewBox="0 0 141 142" fill="none" xmlns="http://www.w3.org/2000/svg">
<g clip-path="url(#clip0_111_6231)">
<path fill-rule="evenodd" clip-rule="evenodd" d="M74.325 64.3837C73.3198 61.8644 72.0947 60.0018 71.0611 58.6295C61.1245 45.5451 45.6522 48.4018 33.0172 55.2514C29.6308 57.0848 25.0595 61.0405 23.0094 65.4256C21.5676 68.5062 21.3444 71.7896 23.4318 74.7536C25.6954 77.9934 29.9151 79.5234 34.6801 79.9452C41.5713 80.5607 49.5988 78.8858 54.0263 77.2168C59.1326 75.2903 66.6874 71.469 73.559 66.7854C74.4292 69.5881 74.9977 73.0853 74.8251 77.4551C74.7553 79.3976 74.1712 81.5827 73.241 83.8003C69.7538 82.684 65.8902 82.2072 61.7739 82.4939C58.3141 82.7397 51.1482 84.6189 46.3324 87.8121C42.8966 90.0942 40.6781 93.0557 41.3684 96.4953C42.232 100.766 45.2221 102.561 48.8869 102.898C54.0469 103.376 60.5825 100.847 63.7562 98.6614C67.4473 96.1166 71.5377 90.9628 74.0355 85.7106C85.6202 90.1031 92.3969 102.12 89.1375 115.715C89.0449 116.12 89.2989 116.534 89.7033 116.639C90.1177 116.735 90.5361 116.476 90.6287 116.071C94.0744 101.685 86.922 88.9545 74.669 84.2921C75.6534 81.9295 76.2814 79.5889 76.3576 77.5134C76.5446 72.6998 75.8779 68.8853 74.8762 65.8714C76.1485 64.9721 77.3909 64.0427 78.5864 63.0866C83.9581 58.7957 88.2671 54.0398 89.6912 49.507C92.9836 39.0326 87.7821 30.0059 79.5328 24.3665C71.3603 18.784 60.2222 16.5513 51.6233 19.4878C51.2226 19.625 51.005 20.0649 51.1441 20.4629C51.2833 20.8611 51.7179 21.0766 52.1185 20.9393C60.3013 18.1445 70.8973 20.3133 78.6668 25.6322C86.3595 30.8944 91.2975 39.279 88.2319 49.0438C86.8682 53.3582 82.7338 57.8104 77.6285 61.8896C76.5655 62.7391 75.4625 63.5688 74.325 64.3837ZM72.6065 85.218C69.335 84.1978 65.7261 83.7565 61.8752 84.0297C58.582 84.2629 51.7735 86.0412 47.1758 89.0939C44.3259 90.9857 42.2955 93.3383 42.8747 96.1888C43.5716 99.6749 46.0462 101.093 49.0316 101.369C53.8317 101.826 59.9282 99.4356 62.8891 97.3959C66.358 95.0074 70.2357 90.1589 72.6065 85.218ZM73.036 65.2862C72.0644 62.7607 70.8529 60.9116 69.8383 59.5584C60.4191 47.1507 45.7246 50.1079 33.7477 56.5995C30.5928 58.3058 26.3165 61.9788 24.3971 66.0761C23.1994 68.6438 22.9432 71.396 24.6857 73.8757C26.713 76.7795 30.5446 78.0412 34.8109 78.4225C41.4615 79.0165 49.2171 77.3884 53.4869 75.7809C58.5933 73.8545 66.1819 70.0074 73.036 65.2862Z" fill="#1B1C37"/>
<path fill-rule="evenodd" clip-rule="evenodd" d="M89.9735 115.192C89.6568 114.477 88.7373 112.422 88.5899 112.115C88.1715 111.258 87.8408 110.888 87.4623 110.549C87.1545 110.281 86.7988 110.045 86.2868 109.473C86.0079 109.155 85.5148 109.14 85.201 109.424C84.8872 109.707 84.8693 110.188 85.1482 110.506C85.6194 111.017 85.9611 111.299 86.2639 111.542C86.6086 111.827 86.8636 112.062 87.2112 112.789C87.3836 113.14 88.1297 115.201 88.6576 116.068C88.9316 116.521 89.2543 116.744 89.4436 116.794C89.7145 116.866 90.0553 116.848 90.4447 116.679C90.9438 116.461 91.6232 115.945 92.3972 115.384C93.1234 114.856 93.9561 114.274 94.8387 113.921C95.5828 113.629 96.3579 113.508 97.1209 113.832C97.5084 114.001 97.9547 113.829 98.124 113.441C98.2934 113.053 98.117 112.597 97.7295 112.429C96.5879 111.925 95.4016 112.053 94.273 112.499C93.2738 112.894 92.3245 113.539 91.4957 114.144C90.9986 114.504 90.5473 114.85 90.1678 115.088C90.107 115.127 90.0403 115.159 89.9735 115.192Z" fill="#1B1C37"/>
</g>
<defs>
<clipPath id="clip0_111_6231">
<rect width="99.6592" height="99.6592" fill="white" transform="translate(0 71) rotate(-45)"/>
</clipPath>
</defs>
</svg>
