<svg width="53" height="54" viewBox="0 0 53 54" fill="none" xmlns="http://www.w3.org/2000/svg">
<g clip-path="url(#clip0_111_6072)">
<path fill-rule="evenodd" clip-rule="evenodd" d="M51.1376 50.7074C47.5108 25.8832 25.2369 13.8253 1.98408 11.0836C1.58479 11.0358 1.2977 10.6733 1.34554 10.274C1.39338 9.87468 1.75586 9.58764 2.15515 9.63548C26.0594 12.4526 48.8522 24.9779 52.5801 50.4977C52.639 50.8951 52.363 51.265 51.9637 51.3239C51.5662 51.3828 51.1964 51.1067 51.1376 50.7074Z" fill="black"/>
<path fill-rule="evenodd" clip-rule="evenodd" d="M2.50632 10.4107C3.54043 11.1669 4.84872 12.1017 4.99408 12.2121C8.93365 15.204 12.1979 18.6468 15.0721 22.6857C15.3058 23.0132 15.2285 23.4696 14.9009 23.7033C14.5734 23.937 14.1171 23.8596 13.8834 23.5321C11.0976 19.6146 7.93269 16.2749 4.11089 13.3732C3.88824 13.2039 0.945942 11.1044 0.382884 10.6352C0.151036 10.4438 0.0793245 10.2635 0.0664441 10.2193C-0.0108384 9.98746 0.0351487 9.8053 0.0977107 9.67282C0.169473 9.52377 0.347912 9.30663 0.693843 9.19623C1.05633 9.08214 1.86232 9.03061 2.06472 9.00117C5.11738 8.54852 8.56383 8.30931 11.7011 7.4408C14.6931 6.61278 17.4071 5.21067 19.1478 2.4009C19.3594 2.05865 19.8102 1.95376 20.1525 2.16537C20.4947 2.37697 20.5997 2.82778 20.388 3.17003C18.4413 6.31101 15.4345 7.92108 12.0912 8.84663C8.97226 9.70962 5.55714 9.97091 2.50632 10.4107Z" fill="black"/>
</g>
<defs>
<clipPath id="clip0_111_6072">
<rect width="52.7957" height="52.7957" fill="white" transform="matrix(1 0 0 -1 0 53.0815)"/>
</clipPath>
</defs>
</svg>
