<svg width="400" height="400" viewBox="0 0 400 400" fill="none" xmlns="http://www.w3.org/2000/svg">
<rect width="400" height="400" rx="100" fill="white"/>
<g clip-path="url(#clip0_105_2676)">
<path d="M298.859 251.16H212.551C211.581 251.16 209.641 251.16 208.671 252.129L143.698 303.526C143 304.5 142.5 305 143 306.5C143.906 307.406 144.668 307.406 145.638 307.406H299.828C315.345 307.406 328.921 293.828 327.952 277.343C326.982 261.827 313.405 251.159 298.859 251.159" fill="#B8C6EA"/>
<path d="M228.445 197.018C227.475 189.26 223.596 181.502 217.778 176.653L117.893 97.133C105.286 87.4351 87.831 89.375 78.133 101.982C68.435 114.589 70.375 132.044 82.982 141.742L155.713 199.927L82.982 258.112C70.375 267.81 68.435 285.266 78.133 297.872C87.831 310.479 105.286 312.419 117.893 302.722L217.778 221.262C224.566 215.443 228.445 207.685 228.445 198.957V197.017" fill="url(#paint0_linear_105_2676)"/>
<path d="M327.952 279.282C327.952 294.798 315.345 307.405 299.829 307.405C284.313 307.405 271.706 294.798 271.706 279.282C271.706 263.766 284.313 251.159 299.829 251.159C315.345 251.159 327.952 263.766 327.952 279.282Z" fill="#7000F2"/>
</g>
<defs>
<linearGradient id="paint0_linear_105_2676" x1="72" y1="200" x2="228" y2="200" gradientUnits="userSpaceOnUse">
<stop stop-color="#B028F0"/>
<stop offset="1" stop-color="#7E6DFD"/>
</linearGradient>
<clipPath id="clip0_105_2676">
<rect width="256" height="218" fill="white" transform="translate(72 91)"/>
</clipPath>
</defs>
</svg>
