<svg width="664" height="474" viewBox="0 0 664 474" fill="none" xmlns="http://www.w3.org/2000/svg">
<circle cx="290" cy="237" r="222" transform="rotate(90 290 237)" fill="white"/>
<path d="M439.759 241.38C439.759 319.185 376.685 382.259 298.88 382.259C221.074 382.259 158 319.185 158 241.38C158 163.574 221.074 100.5 298.88 100.5C376.685 100.5 439.759 163.574 439.759 241.38ZM179.132 241.38C179.132 307.514 232.745 361.127 298.88 361.127C365.014 361.127 418.627 307.514 418.627 241.38C418.627 175.245 365.014 121.632 298.88 121.632C232.745 121.632 179.132 175.245 179.132 241.38Z" fill="#EDEEFF"/>
<path d="M276.251 113.046C275.238 107.299 279.074 101.777 284.881 101.197C303.422 99.3456 322.183 101.187 340.069 106.656C361.33 113.156 380.75 124.595 396.743 140.039C412.735 155.483 424.846 174.493 432.084 195.514C439.322 216.535 441.482 238.97 438.388 260.986C435.294 283.002 427.033 303.973 414.281 322.185C401.53 340.397 384.648 355.332 365.019 365.769C345.389 376.206 323.567 381.85 301.338 382.238C282.638 382.564 264.096 379.163 246.783 372.273C241.362 370.115 239.196 363.75 241.754 358.505V358.505C244.312 353.26 250.624 351.129 256.074 353.215C270.365 358.685 285.604 361.377 300.969 361.109C319.864 360.779 338.412 355.982 355.098 347.111C371.783 338.239 386.132 325.544 396.971 310.064C407.81 294.584 414.832 276.759 417.462 258.045C420.092 239.332 418.256 220.261 412.103 202.394C405.951 184.526 395.657 168.368 382.063 155.24C368.47 142.113 351.962 132.389 333.89 126.864C319.195 122.371 303.804 120.759 288.559 122.078C282.745 122.58 277.264 118.793 276.251 113.046V113.046Z" fill="#167FFC"/>
<path d="M406.704 241.38C406.704 300.929 358.429 349.204 298.88 349.204C239.33 349.204 191.056 300.929 191.056 241.38C191.056 181.83 239.33 133.556 298.88 133.556C358.429 133.556 406.704 181.83 406.704 241.38ZM212.62 241.38C212.62 289.019 251.24 327.639 298.88 327.639C346.519 327.639 385.139 289.019 385.139 241.38C385.139 193.74 346.519 155.12 298.88 155.12C251.24 155.12 212.62 193.74 212.62 241.38Z" fill="#EDEEFF"/>
<path d="M294.647 144.43C294.387 138.481 299.009 133.391 304.955 133.726C329.682 135.121 353.303 145.003 371.725 161.883C392.808 181.203 405.354 208.107 406.601 236.676C407.849 265.246 397.696 293.141 378.376 314.224C361.496 332.646 338.826 344.549 314.314 348.094C308.42 348.946 303.372 344.278 303.113 338.329V338.329C302.853 332.38 307.487 327.415 313.357 326.416C332.148 323.217 349.463 313.857 362.477 299.656C377.932 282.789 386.055 260.473 385.057 237.617C384.059 214.761 374.023 193.238 357.156 177.783C342.954 164.769 324.889 156.954 305.891 155.405C299.956 154.922 294.907 150.38 294.647 144.43V144.43Z" fill="#7579FF"/>
<path d="M373.648 241.38C373.648 282.673 340.173 316.148 298.88 316.148C257.586 316.148 224.111 282.673 224.111 241.38C224.111 200.086 257.586 166.611 298.88 166.611C340.173 166.611 373.648 200.086 373.648 241.38ZM239.065 241.38C239.065 274.414 265.845 301.194 298.88 301.194C331.914 301.194 358.694 274.414 358.694 241.38C358.694 208.345 331.914 181.565 298.88 181.565C265.845 181.565 239.065 208.345 239.065 241.38Z" fill="#EDEEFF"/>
<path d="M275.865 178.146C274.452 174.266 276.447 169.936 280.449 168.918C289.421 166.636 298.76 166.035 307.992 167.168C319.703 168.606 330.908 172.796 340.69 179.394C350.472 185.992 358.553 194.811 364.274 205.131C369.994 215.451 373.191 226.978 373.603 238.77C374.014 250.562 371.63 262.284 366.643 272.978C361.656 283.672 354.21 293.033 344.912 300.298C335.614 307.562 324.729 312.523 313.146 314.774C304.017 316.549 294.658 316.601 285.549 314.95C281.486 314.214 279.194 310.034 280.332 306.065V306.065C281.47 302.095 285.61 299.85 289.69 300.484C296.51 301.545 303.481 301.42 310.293 300.095C319.559 298.294 328.267 294.326 335.705 288.514C343.144 282.703 349.101 275.213 353.09 266.658C357.08 258.103 358.987 248.726 358.658 239.292C358.329 229.858 355.771 220.637 351.195 212.381C346.618 204.125 340.153 197.069 332.328 191.791C324.502 186.512 315.538 183.161 306.169 182.011C299.281 181.165 292.318 181.526 285.589 183.06C281.563 183.978 277.277 182.026 275.865 178.146V178.146Z" fill="#FD3259"/>
<path d="M277.346 227.121C277.472 224.602 278.354 222.663 279.991 221.303C281.653 219.918 283.832 219.225 286.526 219.225C288.365 219.225 289.939 219.553 291.249 220.207C292.558 220.837 293.54 221.706 294.195 222.814C294.875 223.897 295.215 225.131 295.215 226.516C295.215 228.103 294.8 229.45 293.969 230.558C293.163 231.641 292.193 232.372 291.06 232.75V232.901C292.52 233.354 293.654 234.16 294.46 235.318C295.291 236.477 295.706 237.963 295.706 239.776C295.706 241.287 295.354 242.635 294.649 243.818C293.969 245.002 292.949 245.934 291.589 246.614C290.254 247.269 288.642 247.596 286.753 247.596C283.907 247.596 281.59 246.878 279.802 245.443C278.014 244.007 277.069 241.892 276.969 239.096H282.106C282.157 240.33 282.572 241.325 283.353 242.081C284.159 242.811 285.254 243.176 286.64 243.176C287.924 243.176 288.906 242.824 289.586 242.118C290.292 241.388 290.644 240.456 290.644 239.323C290.644 237.812 290.166 236.729 289.209 236.074C288.252 235.419 286.766 235.092 284.751 235.092H283.655V230.747H284.751C288.327 230.747 290.115 229.551 290.115 227.158C290.115 226.075 289.788 225.232 289.133 224.627C288.503 224.023 287.584 223.721 286.375 223.721C285.192 223.721 284.272 224.048 283.617 224.703C282.988 225.333 282.623 226.138 282.522 227.121H277.346ZM299.886 233.278C299.886 228.921 300.667 225.509 302.228 223.041C303.815 220.573 306.434 219.338 310.086 219.338C313.738 219.338 316.344 220.573 317.906 223.041C319.492 225.509 320.286 228.921 320.286 233.278C320.286 237.661 319.492 241.098 317.906 243.592C316.344 246.085 313.738 247.332 310.086 247.332C306.434 247.332 303.815 246.085 302.228 243.592C300.667 241.098 299.886 237.661 299.886 233.278ZM315.072 233.278C315.072 231.415 314.947 229.853 314.695 228.594C314.468 227.31 313.989 226.264 313.259 225.458C312.554 224.653 311.496 224.25 310.086 224.25C308.675 224.25 307.605 224.653 306.875 225.458C306.169 226.264 305.691 227.31 305.439 228.594C305.212 229.853 305.099 231.415 305.099 233.278C305.099 235.193 305.212 236.804 305.439 238.114C305.666 239.398 306.144 240.444 306.875 241.25C307.605 242.03 308.675 242.421 310.086 242.421C311.496 242.421 312.567 242.03 313.297 241.25C314.027 240.444 314.506 239.398 314.732 238.114C314.959 236.804 315.072 235.193 315.072 233.278Z" fill="#1B1C37"/>
<path d="M285.818 255.339C286.866 255.339 287.782 255.542 288.566 255.949C289.359 256.345 289.969 256.921 290.394 257.677C290.828 258.423 291.045 259.297 291.045 260.298C291.045 261.299 290.828 262.168 290.394 262.904C289.969 263.641 289.359 264.208 288.566 264.604C287.782 264.992 286.866 265.185 285.818 265.185H282.602V255.339H285.818ZM285.818 263.868C286.97 263.868 287.853 263.556 288.467 262.933C289.081 262.309 289.388 261.431 289.388 260.298C289.388 259.155 289.081 258.262 288.467 257.62C287.853 256.978 286.97 256.657 285.818 256.657H284.217V263.868H285.818ZM292.108 261.247C292.108 260.463 292.268 259.769 292.589 259.164C292.92 258.56 293.364 258.092 293.921 257.762C294.488 257.422 295.111 257.252 295.791 257.252C296.405 257.252 296.938 257.375 297.392 257.62C297.855 257.856 298.223 258.154 298.497 258.513V257.379H300.126V265.185H298.497V264.024C298.223 264.392 297.85 264.699 297.378 264.944C296.905 265.19 296.367 265.313 295.763 265.313C295.092 265.313 294.478 265.143 293.921 264.803C293.364 264.453 292.92 263.972 292.589 263.358C292.268 262.734 292.108 262.031 292.108 261.247ZM298.497 261.275C298.497 260.737 298.383 260.269 298.157 259.873C297.94 259.476 297.651 259.174 297.293 258.966C296.934 258.758 296.546 258.654 296.131 258.654C295.715 258.654 295.328 258.758 294.969 258.966C294.61 259.164 294.318 259.462 294.091 259.859C293.874 260.246 293.765 260.709 293.765 261.247C293.765 261.785 293.874 262.257 294.091 262.664C294.318 263.07 294.61 263.381 294.969 263.599C295.338 263.806 295.725 263.91 296.131 263.91C296.546 263.91 296.934 263.806 297.293 263.599C297.651 263.391 297.94 263.089 298.157 262.692C298.383 262.286 298.497 261.814 298.497 261.275ZM309.274 257.379L304.485 268.854H302.814L304.4 265.058L301.326 257.379H303.125L305.321 263.329L307.602 257.379H309.274ZM313.326 265.313C312.712 265.313 312.16 265.204 311.668 264.987C311.187 264.76 310.804 264.458 310.521 264.08C310.238 263.693 310.086 263.263 310.068 262.791H311.739C311.768 263.122 311.923 263.4 312.207 263.627C312.5 263.844 312.863 263.953 313.298 263.953C313.751 263.953 314.1 263.868 314.346 263.698C314.601 263.518 314.728 263.292 314.728 263.018C314.728 262.725 314.587 262.508 314.303 262.366C314.03 262.224 313.59 262.069 312.986 261.899C312.4 261.738 311.923 261.582 311.555 261.431C311.187 261.28 310.866 261.049 310.592 260.737C310.327 260.425 310.195 260.014 310.195 259.504C310.195 259.089 310.318 258.711 310.563 258.371C310.809 258.022 311.158 257.748 311.612 257.549C312.075 257.351 312.603 257.252 313.198 257.252C314.086 257.252 314.799 257.479 315.338 257.932C315.885 258.376 316.178 258.985 316.216 259.759H314.601C314.573 259.41 314.431 259.131 314.176 258.924C313.921 258.716 313.576 258.612 313.142 258.612C312.717 258.612 312.391 258.692 312.164 258.853C311.938 259.013 311.824 259.226 311.824 259.49C311.824 259.698 311.9 259.873 312.051 260.014C312.202 260.156 312.386 260.269 312.603 260.354C312.821 260.43 313.142 260.529 313.567 260.652C314.133 260.803 314.596 260.959 314.955 261.119C315.323 261.27 315.64 261.497 315.904 261.799C316.169 262.102 316.306 262.503 316.315 263.004C316.315 263.447 316.192 263.844 315.947 264.194C315.701 264.543 315.352 264.817 314.898 265.015C314.455 265.214 313.93 265.313 313.326 265.313Z" fill="#1B1C37" fill-opacity="0.8"/>
<line x1="491.704" y1="194.157" x2="523.185" y2="194.157" stroke="#167FFC" stroke-width="15.7407" stroke-linecap="round"/>
<line x1="491.704" y1="233.509" x2="523.185" y2="233.509" stroke="#7579FF" stroke-width="15.7407" stroke-linecap="round"/>
<line x1="491.704" y1="272.861" x2="523.185" y2="272.861" stroke="#FD3259" stroke-width="15.7407" stroke-linecap="round"/>
<path d="M551.134 185.954C552.52 185.954 553.735 186.225 554.78 186.767C555.838 187.308 556.65 188.083 557.217 189.09C557.796 190.085 558.086 191.243 558.086 192.566C558.086 193.888 557.796 195.046 557.217 196.041C556.65 197.023 555.838 197.785 554.78 198.327C553.735 198.868 552.52 199.139 551.134 199.139H546.526V185.954H551.134ZM551.04 196.891C552.425 196.891 553.496 196.513 554.251 195.758C555.007 195.002 555.384 193.938 555.384 192.566C555.384 191.193 555.007 190.123 554.251 189.354C553.496 188.574 552.425 188.183 551.04 188.183H549.17V196.891H551.04ZM569.793 193.68C569.793 194.058 569.768 194.398 569.717 194.7H562.067C562.13 195.456 562.395 196.047 562.861 196.476C563.326 196.904 563.899 197.118 564.579 197.118C565.562 197.118 566.261 196.696 566.676 195.852H569.528C569.226 196.86 568.647 197.691 567.791 198.346C566.934 198.988 565.883 199.309 564.636 199.309C563.629 199.309 562.722 199.089 561.916 198.648C561.123 198.194 560.499 197.559 560.046 196.74C559.605 195.922 559.385 194.977 559.385 193.907C559.385 192.824 559.605 191.873 560.046 191.054C560.487 190.236 561.104 189.606 561.897 189.166C562.691 188.725 563.604 188.504 564.636 188.504C565.631 188.504 566.519 188.719 567.299 189.147C568.093 189.575 568.704 190.186 569.132 190.979C569.572 191.76 569.793 192.66 569.793 193.68ZM567.054 192.924C567.041 192.244 566.796 191.703 566.317 191.3C565.839 190.884 565.253 190.677 564.561 190.677C563.906 190.677 563.352 190.878 562.898 191.281C562.458 191.672 562.187 192.219 562.086 192.924H567.054ZM575.727 199.309C574.871 199.309 574.103 199.158 573.423 198.856C572.743 198.541 572.202 198.119 571.799 197.59C571.408 197.061 571.194 196.476 571.156 195.833H573.82C573.87 196.236 574.065 196.57 574.405 196.834C574.758 197.099 575.192 197.231 575.709 197.231C576.212 197.231 576.603 197.13 576.88 196.929C577.169 196.727 577.314 196.469 577.314 196.154C577.314 195.814 577.138 195.563 576.785 195.399C576.445 195.223 575.897 195.034 575.142 194.832C574.361 194.643 573.719 194.448 573.215 194.247C572.724 194.045 572.296 193.737 571.931 193.321C571.578 192.906 571.402 192.345 571.402 191.64C571.402 191.061 571.566 190.532 571.893 190.053C572.233 189.575 572.712 189.197 573.329 188.92C573.958 188.643 574.695 188.504 575.539 188.504C576.785 188.504 577.78 188.819 578.523 189.449C579.266 190.066 579.675 190.903 579.751 191.961H577.22C577.182 191.546 577.006 191.218 576.691 190.979C576.389 190.727 575.979 190.601 575.463 190.601C574.984 190.601 574.613 190.689 574.349 190.866C574.097 191.042 573.971 191.287 573.971 191.602C573.971 191.955 574.147 192.226 574.5 192.414C574.852 192.591 575.4 192.773 576.143 192.962C576.899 193.151 577.522 193.346 578.013 193.548C578.504 193.749 578.926 194.064 579.279 194.492C579.644 194.908 579.833 195.462 579.845 196.154C579.845 196.759 579.675 197.3 579.335 197.779C579.008 198.257 578.529 198.635 577.9 198.912C577.283 199.177 576.559 199.309 575.727 199.309ZM583.357 187.428C582.891 187.428 582.501 187.283 582.186 186.993C581.884 186.691 581.733 186.32 581.733 185.879C581.733 185.438 581.884 185.073 582.186 184.783C582.501 184.481 582.891 184.33 583.357 184.33C583.823 184.33 584.207 184.481 584.509 184.783C584.824 185.073 584.982 185.438 584.982 185.879C584.982 186.32 584.824 186.691 584.509 186.993C584.207 187.283 583.823 187.428 583.357 187.428ZM584.66 188.674V199.139H582.016V188.674H584.66ZM591.372 188.504C592.153 188.504 592.839 188.662 593.431 188.977C594.023 189.279 594.489 189.676 594.829 190.167V188.674H597.492V199.214C597.492 200.184 597.297 201.047 596.906 201.802C596.516 202.57 595.931 203.175 595.15 203.616C594.369 204.069 593.425 204.296 592.316 204.296C590.831 204.296 589.609 203.949 588.652 203.257C587.708 202.564 587.172 201.62 587.046 200.423H589.672C589.811 200.902 590.106 201.28 590.56 201.557C591.026 201.846 591.586 201.991 592.241 201.991C593.009 201.991 593.632 201.758 594.111 201.292C594.589 200.839 594.829 200.146 594.829 199.214V197.59C594.489 198.081 594.016 198.49 593.412 198.818C592.82 199.145 592.14 199.309 591.372 199.309C590.491 199.309 589.685 199.082 588.954 198.629C588.224 198.176 587.645 197.54 587.216 196.721C586.801 195.89 586.593 194.939 586.593 193.869C586.593 192.811 586.801 191.873 587.216 191.054C587.645 190.236 588.218 189.606 588.935 189.166C589.666 188.725 590.478 188.504 591.372 188.504ZM594.829 193.907C594.829 193.264 594.703 192.717 594.451 192.263C594.199 191.797 593.859 191.445 593.431 191.206C593.003 190.954 592.543 190.828 592.052 190.828C591.561 190.828 591.108 190.947 590.692 191.187C590.276 191.426 589.936 191.779 589.672 192.244C589.42 192.698 589.294 193.239 589.294 193.869C589.294 194.499 589.42 195.053 589.672 195.531C589.936 195.997 590.276 196.356 590.692 196.608C591.12 196.86 591.573 196.986 592.052 196.986C592.543 196.986 593.003 196.866 593.431 196.627C593.859 196.375 594.199 196.022 594.451 195.569C594.703 195.103 594.829 194.549 594.829 193.907ZM605.874 188.523C607.12 188.523 608.128 188.92 608.896 189.713C609.664 190.494 610.048 191.59 610.048 193V199.139H607.404V193.359C607.404 192.528 607.196 191.892 606.78 191.451C606.365 190.998 605.798 190.771 605.08 190.771C604.35 190.771 603.771 190.998 603.343 191.451C602.927 191.892 602.719 192.528 602.719 193.359V199.139H600.075V188.674H602.719V189.978C603.072 189.524 603.519 189.172 604.06 188.92C604.614 188.656 605.219 188.523 605.874 188.523Z" fill="white"/>
<path d="M556.14 229.386C556.14 230.091 555.97 230.753 555.63 231.37C555.303 231.987 554.78 232.484 554.062 232.862C553.357 233.24 552.463 233.429 551.38 233.429H549.17V238.491H546.526V225.306H551.38C552.4 225.306 553.269 225.483 553.987 225.835C554.704 226.188 555.24 226.673 555.592 227.29C555.957 227.907 556.14 228.606 556.14 229.386ZM551.267 231.294C551.997 231.294 552.538 231.13 552.891 230.803C553.244 230.463 553.42 229.991 553.42 229.386C553.42 228.102 552.702 227.46 551.267 227.46H549.17V231.294H551.267ZM560.662 229.651C561.002 229.097 561.443 228.662 561.984 228.347C562.538 228.033 563.168 227.875 563.873 227.875V230.652H563.174C562.343 230.652 561.713 230.847 561.285 231.237C560.87 231.628 560.662 232.308 560.662 233.277V238.491H558.017V228.026H560.662V229.651ZM570.301 238.661C569.293 238.661 568.387 238.44 567.581 238C566.775 237.546 566.139 236.91 565.673 236.092C565.22 235.273 564.993 234.329 564.993 233.259C564.993 232.188 565.226 231.244 565.692 230.425C566.17 229.607 566.819 228.977 567.638 228.536C568.456 228.083 569.369 227.856 570.376 227.856C571.384 227.856 572.297 228.083 573.115 228.536C573.934 228.977 574.576 229.607 575.042 230.425C575.52 231.244 575.76 232.188 575.76 233.259C575.76 234.329 575.514 235.273 575.023 236.092C574.545 236.91 573.89 237.546 573.059 238C572.24 238.44 571.321 238.661 570.301 238.661ZM570.301 236.356C570.779 236.356 571.226 236.243 571.642 236.016C572.07 235.777 572.41 235.424 572.662 234.959C572.914 234.493 573.04 233.926 573.04 233.259C573.04 232.264 572.775 231.502 572.246 230.973C571.73 230.431 571.094 230.161 570.339 230.161C569.583 230.161 568.947 230.431 568.431 230.973C567.927 231.502 567.675 232.264 567.675 233.259C567.675 234.253 567.921 235.021 568.412 235.563C568.916 236.092 569.545 236.356 570.301 236.356ZM581.798 227.856C582.579 227.856 583.265 228.014 583.857 228.328C584.449 228.631 584.915 229.027 585.255 229.518V228.026H587.918V238.566C587.918 239.536 587.723 240.399 587.333 241.154C586.943 241.922 586.357 242.527 585.576 242.967C584.795 243.421 583.851 243.647 582.743 243.647C581.257 243.647 580.035 243.301 579.078 242.609C578.134 241.916 577.599 240.971 577.473 239.775H580.098C580.237 240.254 580.533 240.631 580.986 240.909C581.452 241.198 582.013 241.343 582.667 241.343C583.435 241.343 584.059 241.11 584.537 240.644C585.016 240.191 585.255 239.498 585.255 238.566V236.942C584.915 237.433 584.443 237.842 583.838 238.17C583.247 238.497 582.567 238.661 581.798 238.661C580.917 238.661 580.111 238.434 579.381 237.981C578.65 237.527 578.071 236.891 577.643 236.073C577.227 235.242 577.02 234.291 577.02 233.221C577.02 232.163 577.227 231.225 577.643 230.406C578.071 229.588 578.644 228.958 579.362 228.517C580.092 228.077 580.904 227.856 581.798 227.856ZM585.255 233.259C585.255 232.616 585.129 232.069 584.877 231.615C584.625 231.149 584.285 230.797 583.857 230.557C583.429 230.306 582.97 230.18 582.478 230.18C581.987 230.18 581.534 230.299 581.118 230.538C580.703 230.778 580.363 231.13 580.098 231.596C579.847 232.05 579.721 232.591 579.721 233.221C579.721 233.85 579.847 234.404 580.098 234.883C580.363 235.349 580.703 235.708 581.118 235.96C581.547 236.211 582 236.337 582.478 236.337C582.97 236.337 583.429 236.218 583.857 235.979C584.285 235.727 584.625 235.374 584.877 234.921C585.129 234.455 585.255 233.901 585.255 233.259ZM593.146 229.651C593.486 229.097 593.926 228.662 594.468 228.347C595.022 228.033 595.652 227.875 596.357 227.875V230.652H595.658C594.827 230.652 594.197 230.847 593.769 231.237C593.353 231.628 593.146 232.308 593.146 233.277V238.491H590.501V228.026H593.146V229.651ZM597.458 233.221C597.458 232.163 597.666 231.225 598.081 230.406C598.509 229.588 599.082 228.958 599.8 228.517C600.531 228.077 601.343 227.856 602.237 227.856C603.018 227.856 603.698 228.014 604.277 228.328C604.869 228.643 605.341 229.04 605.693 229.518V228.026H608.357V238.491H605.693V236.961C605.353 237.452 604.881 237.861 604.277 238.189C603.685 238.503 602.999 238.661 602.218 238.661C601.336 238.661 600.531 238.434 599.8 237.981C599.082 237.527 598.509 236.891 598.081 236.073C597.666 235.242 597.458 234.291 597.458 233.221ZM605.693 233.259C605.693 232.616 605.568 232.069 605.316 231.615C605.064 231.149 604.724 230.797 604.296 230.557C603.868 230.306 603.408 230.18 602.917 230.18C602.426 230.18 601.972 230.299 601.557 230.538C601.141 230.778 600.801 231.13 600.537 231.596C600.285 232.05 600.159 232.591 600.159 233.221C600.159 233.85 600.285 234.404 600.537 234.883C600.801 235.349 601.141 235.708 601.557 235.96C601.985 236.211 602.438 236.337 602.917 236.337C603.408 236.337 603.868 236.218 604.296 235.979C604.724 235.727 605.064 235.374 605.316 234.921C605.568 234.455 605.693 233.901 605.693 233.259ZM623.935 227.875C625.22 227.875 626.252 228.272 627.033 229.065C627.826 229.846 628.223 230.941 628.223 232.352V238.491H625.578V232.711C625.578 231.892 625.371 231.269 624.955 230.841C624.54 230.4 623.973 230.18 623.255 230.18C622.537 230.18 621.964 230.4 621.536 230.841C621.121 231.269 620.913 231.892 620.913 232.711V238.491H618.268V232.711C618.268 231.892 618.061 231.269 617.645 230.841C617.23 230.4 616.663 230.18 615.945 230.18C615.215 230.18 614.635 230.4 614.207 230.841C613.792 231.269 613.584 231.892 613.584 232.711V238.491H610.94V228.026H613.584V229.292C613.924 228.851 614.358 228.505 614.887 228.253C615.429 228.001 616.021 227.875 616.663 227.875C617.481 227.875 618.212 228.051 618.854 228.404C619.496 228.744 619.994 229.235 620.346 229.877C620.686 229.273 621.177 228.788 621.82 228.423C622.474 228.058 623.18 227.875 623.935 227.875ZM632.073 226.78C631.608 226.78 631.217 226.635 630.902 226.345C630.6 226.043 630.449 225.671 630.449 225.231C630.449 224.79 630.6 224.425 630.902 224.135C631.217 223.833 631.608 223.682 632.073 223.682C632.539 223.682 632.923 223.833 633.226 224.135C633.54 224.425 633.698 224.79 633.698 225.231C633.698 225.671 633.54 226.043 633.226 226.345C632.923 226.635 632.539 226.78 632.073 226.78ZM633.377 228.026V238.491H630.732V228.026H633.377ZM641.788 227.875C643.035 227.875 644.042 228.272 644.811 229.065C645.579 229.846 645.963 230.941 645.963 232.352V238.491H643.318V232.711C643.318 231.88 643.111 231.244 642.695 230.803C642.279 230.35 641.713 230.123 640.995 230.123C640.265 230.123 639.685 230.35 639.257 230.803C638.842 231.244 638.634 231.88 638.634 232.711V238.491H635.989V228.026H638.634V229.33C638.987 228.876 639.434 228.524 639.975 228.272C640.529 228.007 641.134 227.875 641.788 227.875ZM652.576 227.856C653.357 227.856 654.043 228.014 654.635 228.328C655.227 228.631 655.693 229.027 656.033 229.518V228.026H658.696V238.566C658.696 239.536 658.501 240.399 658.111 241.154C657.721 241.922 657.135 242.527 656.354 242.967C655.573 243.421 654.629 243.647 653.521 243.647C652.035 243.647 650.813 243.301 649.856 242.609C648.912 241.916 648.377 240.971 648.251 239.775H650.876C651.015 240.254 651.311 240.631 651.764 240.909C652.23 241.198 652.791 241.343 653.445 241.343C654.213 241.343 654.837 241.11 655.315 240.644C655.794 240.191 656.033 239.498 656.033 238.566V236.942C655.693 237.433 655.221 237.842 654.616 238.17C654.025 238.497 653.345 238.661 652.576 238.661C651.695 238.661 650.889 238.434 650.159 237.981C649.428 237.527 648.849 236.891 648.421 236.073C648.005 235.242 647.798 234.291 647.798 233.221C647.798 232.163 648.005 231.225 648.421 230.406C648.849 229.588 649.422 228.958 650.14 228.517C650.87 228.077 651.682 227.856 652.576 227.856ZM656.033 233.259C656.033 232.616 655.907 232.069 655.655 231.615C655.403 231.149 655.063 230.797 654.635 230.557C654.207 230.306 653.748 230.18 653.256 230.18C652.765 230.18 652.312 230.299 651.896 230.538C651.481 230.778 651.141 231.13 650.876 231.596C650.625 232.05 650.499 232.591 650.499 233.221C650.499 233.85 650.625 234.404 650.876 234.883C651.141 235.349 651.481 235.708 651.896 235.96C652.325 236.211 652.778 236.337 653.256 236.337C653.748 236.337 654.207 236.218 654.635 235.979C655.063 235.727 655.403 235.374 655.655 234.921C655.907 234.455 656.033 233.901 656.033 233.259Z" fill="white"/>
<path d="M555.498 267.806V269.941H551.984V280.991H549.34V269.941H545.827V267.806H555.498ZM567.155 275.532C567.155 275.91 567.13 276.25 567.079 276.552H559.429C559.492 277.307 559.757 277.899 560.223 278.327C560.689 278.756 561.262 278.97 561.942 278.97C562.924 278.97 563.623 278.548 564.038 277.704H566.891C566.588 278.711 566.009 279.543 565.153 280.197C564.296 280.84 563.245 281.161 561.998 281.161C560.991 281.161 560.084 280.94 559.278 280.5C558.485 280.046 557.862 279.41 557.408 278.592C556.968 277.773 556.747 276.829 556.747 275.759C556.747 274.676 556.968 273.725 557.408 272.906C557.849 272.088 558.466 271.458 559.259 271.017C560.053 270.577 560.966 270.356 561.998 270.356C562.993 270.356 563.881 270.57 564.662 270.998C565.455 271.427 566.066 272.037 566.494 272.831C566.935 273.611 567.155 274.512 567.155 275.532ZM564.416 274.776C564.403 274.096 564.158 273.555 563.679 273.152C563.201 272.736 562.615 272.528 561.923 272.528C561.268 272.528 560.714 272.73 560.261 273.133C559.82 273.523 559.549 274.071 559.448 274.776H564.416ZM573.09 281.161C572.233 281.161 571.465 281.01 570.785 280.707C570.105 280.393 569.564 279.971 569.161 279.442C568.77 278.913 568.556 278.327 568.519 277.685H571.182C571.232 278.088 571.427 278.422 571.767 278.686C572.12 278.951 572.554 279.083 573.071 279.083C573.574 279.083 573.965 278.982 574.242 278.781C574.531 278.579 574.676 278.321 574.676 278.006C574.676 277.666 574.5 277.414 574.147 277.251C573.807 277.074 573.26 276.886 572.504 276.684C571.723 276.495 571.081 276.3 570.577 276.099C570.086 275.897 569.658 275.589 569.293 275.173C568.94 274.757 568.764 274.197 568.764 273.492C568.764 272.913 568.928 272.384 569.255 271.905C569.595 271.427 570.074 271.049 570.691 270.772C571.32 270.495 572.057 270.356 572.901 270.356C574.147 270.356 575.142 270.671 575.885 271.301C576.628 271.918 577.037 272.755 577.113 273.813H574.582C574.544 273.397 574.368 273.07 574.053 272.831C573.751 272.579 573.341 272.453 572.825 272.453C572.347 272.453 571.975 272.541 571.711 272.717C571.459 272.894 571.333 273.139 571.333 273.454C571.333 273.807 571.509 274.077 571.862 274.266C572.214 274.443 572.762 274.625 573.505 274.814C574.261 275.003 574.884 275.198 575.375 275.4C575.866 275.601 576.288 275.916 576.641 276.344C577.006 276.76 577.195 277.314 577.207 278.006C577.207 278.611 577.037 279.152 576.697 279.631C576.37 280.109 575.891 280.487 575.262 280.764C574.645 281.029 573.921 281.161 573.09 281.161ZM582.457 272.699V277.761C582.457 278.113 582.539 278.371 582.703 278.535C582.879 278.686 583.169 278.762 583.571 278.762H584.799V280.991H583.137C580.908 280.991 579.794 279.908 579.794 277.742V272.699H578.547V270.526H579.794V267.938H582.457V270.526H584.799V272.699H582.457Z" fill="white"/>
<path d="M243.414 16.4142C244.195 15.6332 244.195 14.3668 243.414 13.5858L230.686 0.857864C229.905 0.0768158 228.639 0.0768158 227.858 0.857864C227.077 1.63891 227.077 2.90524 227.858 3.68629L239.172 15L227.858 26.3137C227.077 27.0948 227.077 28.3611 227.858 29.1421C228.639 29.9232 229.905 29.9232 230.686 29.1421L243.414 16.4142ZM2 15V13H0V15H2ZM2 459H0V461H2V459ZM243.414 460.414C244.195 459.633 244.195 458.367 243.414 457.586L230.686 444.858C229.905 444.077 228.639 444.077 227.858 444.858C227.077 445.639 227.077 446.905 227.858 447.686L239.172 459L227.858 470.314C227.077 471.095 227.077 472.361 227.858 473.142C228.639 473.923 229.905 473.923 230.686 473.142L243.414 460.414ZM242 13H238V17H242V13ZM222 13H198V17H222V13ZM166 13H158V17H166V13ZM142 13H118V17H142V13ZM86 13H78V17H86V13ZM62 13H38V17H62V13ZM6 13H2V17H6V13ZM0 15V18.7H4V15H0ZM0 33.5V55.7H4V33.5H0ZM0 85.3V92.7H4V85.3H0ZM0 107.5V129.7H4V107.5H0ZM0 159.3V166.7H4V159.3H0ZM0 181.5V203.7H4V181.5H0ZM0 233.3V240.7H4V233.3H0ZM0 255.5V277.7H4V255.5H0ZM0 307.3V314.7H4V307.3H0ZM0 329.5V351.7H4V329.5H0ZM0 381.3V388.7H4V381.3H0ZM0 403.5V425.7H4V403.5H0ZM0 455.3V459H4V455.3H0ZM2 461H6V457H2V461ZM22 461H46V457H22V461ZM78 461H86V457H78V461ZM102 461H126V457H102V461ZM158 461H166V457H158V461ZM182 461H206V457H182V461ZM238 461H242V457H238V461Z" fill="#5F6073"/>
</svg>
