<svg width="662" height="467" viewBox="0 0 662 467" fill="none" xmlns="http://www.w3.org/2000/svg">
<circle cx="290" cy="237.041" r="222" transform="rotate(90 290 237.041)" fill="white"/>
<path d="M439.759 241.42C439.759 319.226 376.685 382.3 298.88 382.3C221.074 382.3 158 319.226 158 241.42C158 163.615 221.074 100.541 298.88 100.541C376.685 100.541 439.759 163.615 439.759 241.42ZM179.132 241.42C179.132 307.555 232.745 361.168 298.88 361.168C365.014 361.168 418.627 307.555 418.627 241.42C418.627 175.286 365.014 121.673 298.88 121.673C232.745 121.673 179.132 175.286 179.132 241.42Z" fill="#EDEEFF"/>
<path d="M276.251 113.086C275.238 107.34 279.074 101.818 284.881 101.238C303.422 99.3864 322.183 101.228 340.069 106.697C361.33 113.197 380.75 124.636 396.743 140.08C412.735 155.524 424.846 174.533 432.084 195.555C439.322 216.576 441.482 239.011 438.388 261.027C435.294 283.043 427.033 304.014 414.281 322.226C401.53 340.437 384.648 355.372 365.019 365.81C345.389 376.247 323.567 381.891 301.338 382.279C282.638 382.605 264.096 379.204 246.783 372.314C241.362 370.156 239.196 363.79 241.754 358.545V358.545C244.312 353.301 250.624 351.17 256.074 353.256C270.365 358.726 285.604 361.418 300.969 361.15C319.864 360.82 338.412 356.023 355.098 347.151C371.783 338.28 386.132 325.585 396.971 310.105C407.81 294.625 414.832 276.8 417.462 258.086C420.092 239.373 418.256 220.302 412.103 202.434C405.951 184.567 395.657 168.408 382.063 155.281C368.47 142.154 351.962 132.43 333.89 126.905C319.195 122.412 303.804 120.799 288.559 122.118C282.745 122.621 277.264 118.833 276.251 113.086V113.086Z" fill="#167FFC"/>
<path d="M406.704 241.42C406.704 300.97 358.429 349.244 298.88 349.244C239.33 349.244 191.056 300.97 191.056 241.42C191.056 181.871 239.33 133.596 298.88 133.596C358.429 133.596 406.704 181.871 406.704 241.42ZM212.62 241.42C212.62 289.06 251.24 327.68 298.88 327.68C346.519 327.68 385.139 289.06 385.139 241.42C385.139 193.781 346.519 155.161 298.88 155.161C251.24 155.161 212.62 193.781 212.62 241.42Z" fill="#EDEEFF"/>
<path d="M294.647 144.471C294.387 138.522 299.009 133.432 304.955 133.767C329.682 135.162 353.303 145.044 371.725 161.924C392.808 181.244 405.354 208.148 406.601 236.717C407.849 265.287 397.696 293.182 378.376 314.265C361.496 332.687 338.826 344.59 314.314 348.134C308.42 348.987 303.372 344.319 303.113 338.37V338.37C302.853 332.42 307.487 327.456 313.357 326.456C332.148 323.258 349.463 313.898 362.477 299.696C377.932 282.829 386.055 260.513 385.057 237.658C384.059 214.802 374.023 193.279 357.156 177.823C342.954 164.81 324.889 156.995 305.891 155.446C299.956 154.962 294.907 150.42 294.647 144.471V144.471Z" fill="#7579FF"/>
<path d="M373.648 241.42C373.648 282.714 340.173 316.189 298.88 316.189C257.586 316.189 224.111 282.714 224.111 241.42C224.111 200.127 257.586 166.652 298.88 166.652C340.173 166.652 373.648 200.127 373.648 241.42ZM239.065 241.42C239.065 274.455 265.845 301.235 298.88 301.235C331.915 301.235 358.695 274.455 358.695 241.42C358.695 208.386 331.915 181.606 298.88 181.606C265.845 181.606 239.065 208.386 239.065 241.42Z" fill="#EDEEFF"/>
<path d="M275.865 178.187C274.452 174.307 276.448 169.977 280.45 168.959C289.421 166.677 298.761 166.076 307.992 167.209C319.703 168.647 330.908 172.836 340.69 179.434C350.472 186.032 358.553 194.852 364.274 205.172C369.994 215.492 373.191 227.019 373.603 238.811C374.015 250.603 371.63 262.325 366.643 273.019C361.657 283.712 354.21 293.074 344.912 300.339C335.614 307.603 324.729 312.564 313.147 314.815C304.017 316.59 294.658 316.641 285.55 314.991C281.486 314.255 279.194 310.075 280.332 306.105V306.105C281.47 302.136 285.61 299.891 289.69 300.525C296.51 301.585 303.481 301.46 310.293 300.136C319.559 298.335 328.267 294.366 335.706 288.555C343.144 282.743 349.101 275.254 353.091 266.699C357.08 258.144 358.988 248.766 358.658 239.333C358.329 229.899 355.771 220.677 351.195 212.421C346.619 204.166 340.153 197.11 332.328 191.832C324.502 186.553 315.538 183.202 306.169 182.051C299.282 181.206 292.319 181.567 285.589 183.101C281.563 184.018 277.277 182.067 275.865 178.187V178.187Z" fill="#FD3259"/>
<path d="M277.346 227.162C277.472 224.643 278.354 222.704 279.991 221.344C281.653 219.959 283.832 219.266 286.526 219.266C288.365 219.266 289.939 219.593 291.249 220.248C292.558 220.878 293.54 221.747 294.195 222.855C294.875 223.938 295.215 225.172 295.215 226.557C295.215 228.144 294.8 229.491 293.969 230.599C293.163 231.682 292.193 232.413 291.06 232.79V232.942C292.52 233.395 293.654 234.201 294.46 235.359C295.291 236.518 295.706 238.004 295.706 239.817C295.706 241.328 295.354 242.676 294.649 243.859C293.969 245.043 292.949 245.975 291.589 246.655C290.254 247.31 288.642 247.637 286.753 247.637C283.907 247.637 281.59 246.919 279.802 245.484C278.014 244.048 277.069 241.933 276.969 239.137H282.106C282.157 240.371 282.572 241.366 283.353 242.122C284.159 242.852 285.254 243.217 286.64 243.217C287.924 243.217 288.906 242.864 289.586 242.159C290.292 241.429 290.644 240.497 290.644 239.364C290.644 237.853 290.166 236.77 289.209 236.115C288.252 235.46 286.766 235.133 284.751 235.133H283.655V230.788H284.751C288.327 230.788 290.115 229.592 290.115 227.199C290.115 226.116 289.788 225.273 289.133 224.668C288.503 224.064 287.584 223.762 286.375 223.762C285.192 223.762 284.272 224.089 283.617 224.744C282.988 225.373 282.623 226.179 282.522 227.162H277.346ZM299.886 233.319C299.886 228.962 300.667 225.55 302.228 223.082C303.815 220.613 306.434 219.379 310.086 219.379C313.738 219.379 316.344 220.613 317.906 223.082C319.492 225.55 320.286 228.962 320.286 233.319C320.286 237.702 319.492 241.139 317.906 243.633C316.344 246.126 313.738 247.373 310.086 247.373C306.434 247.373 303.815 246.126 302.228 243.633C300.667 241.139 299.886 237.702 299.886 233.319ZM315.072 233.319C315.072 231.456 314.947 229.894 314.695 228.635C314.468 227.35 313.989 226.305 313.259 225.499C312.554 224.693 311.496 224.29 310.086 224.29C308.675 224.29 307.605 224.693 306.875 225.499C306.169 226.305 305.691 227.35 305.439 228.635C305.212 229.894 305.099 231.456 305.099 233.319C305.099 235.233 305.212 236.845 305.439 238.155C305.666 239.439 306.144 240.484 306.875 241.29C307.605 242.071 308.675 242.462 310.086 242.462C311.496 242.462 312.567 242.071 313.297 241.29C314.027 240.484 314.506 239.439 314.732 238.155C314.959 236.845 315.072 235.233 315.072 233.319Z" fill="#1B1C37"/>
<path d="M289.152 255.38L286.234 265.226H284.406L282.338 257.774L280.142 265.226L278.329 265.24L275.538 255.38H277.252L279.292 263.398L281.502 255.38H283.315L285.369 263.356L287.424 255.38H289.152ZM297.638 261.132C297.638 261.425 297.619 261.689 297.581 261.925H291.617C291.664 262.548 291.896 263.049 292.311 263.427C292.727 263.805 293.237 263.993 293.841 263.993C294.71 263.993 295.324 263.63 295.683 262.903H297.426C297.189 263.62 296.76 264.211 296.136 264.673C295.522 265.127 294.757 265.353 293.841 265.353C293.095 265.353 292.425 265.188 291.83 264.858C291.244 264.518 290.781 264.045 290.441 263.441C290.111 262.827 289.946 262.119 289.946 261.316C289.946 260.513 290.106 259.81 290.427 259.205C290.758 258.591 291.216 258.119 291.801 257.788C292.396 257.458 293.076 257.293 293.841 257.293C294.578 257.293 295.234 257.453 295.811 257.774C296.387 258.095 296.835 258.549 297.156 259.134C297.477 259.71 297.638 260.376 297.638 261.132ZM295.952 260.622C295.943 260.027 295.73 259.55 295.315 259.191C294.899 258.832 294.384 258.653 293.771 258.653C293.213 258.653 292.736 258.832 292.34 259.191C291.943 259.54 291.707 260.017 291.631 260.622H295.952ZM306.382 261.132C306.382 261.425 306.363 261.689 306.325 261.925H300.361C300.408 262.548 300.639 263.049 301.055 263.427C301.47 263.805 301.98 263.993 302.585 263.993C303.454 263.993 304.068 263.63 304.427 262.903H306.169C305.933 263.62 305.503 264.211 304.88 264.673C304.266 265.127 303.501 265.353 302.585 265.353C301.839 265.353 301.168 265.188 300.573 264.858C299.988 264.518 299.525 264.045 299.185 263.441C298.854 262.827 298.689 262.119 298.689 261.316C298.689 260.513 298.85 259.81 299.171 259.205C299.501 258.591 299.959 258.119 300.545 257.788C301.14 257.458 301.82 257.293 302.585 257.293C303.322 257.293 303.978 257.453 304.554 257.774C305.13 258.095 305.579 258.549 305.9 259.134C306.221 259.71 306.382 260.376 306.382 261.132ZM304.696 260.622C304.686 260.027 304.474 259.55 304.058 259.191C303.643 258.832 303.128 258.653 302.514 258.653C301.957 258.653 301.48 258.832 301.083 259.191C300.687 259.54 300.45 260.017 300.375 260.622H304.696ZM311.059 261.33L314.658 265.226H312.476L309.586 261.868V265.226H307.971V254.743H309.586V260.834L312.419 257.42H314.658L311.059 261.33ZM318.648 265.353C318.035 265.353 317.482 265.245 316.991 265.028C316.509 264.801 316.127 264.499 315.843 264.121C315.56 263.734 315.409 263.304 315.39 262.832H317.062C317.09 263.162 317.246 263.441 317.529 263.668C317.822 263.885 318.186 263.993 318.62 263.993C319.073 263.993 319.423 263.908 319.668 263.738C319.923 263.559 320.051 263.332 320.051 263.058C320.051 262.766 319.909 262.548 319.626 262.407C319.352 262.265 318.913 262.109 318.308 261.939C317.723 261.779 317.246 261.623 316.878 261.472C316.509 261.321 316.188 261.089 315.914 260.778C315.65 260.466 315.518 260.055 315.518 259.545C315.518 259.13 315.64 258.752 315.886 258.412C316.131 258.062 316.481 257.788 316.934 257.59C317.397 257.392 317.926 257.293 318.521 257.293C319.409 257.293 320.122 257.519 320.66 257.973C321.208 258.417 321.501 259.026 321.538 259.8H319.923C319.895 259.451 319.753 259.172 319.498 258.964C319.243 258.757 318.899 258.653 318.464 258.653C318.039 258.653 317.713 258.733 317.487 258.893C317.26 259.054 317.147 259.267 317.147 259.531C317.147 259.739 317.222 259.913 317.373 260.055C317.525 260.197 317.709 260.31 317.926 260.395C318.143 260.471 318.464 260.57 318.889 260.693C319.456 260.844 319.919 261 320.278 261.16C320.646 261.311 320.962 261.538 321.227 261.84C321.491 262.142 321.628 262.544 321.638 263.044C321.638 263.488 321.515 263.885 321.269 264.234C321.024 264.584 320.674 264.858 320.221 265.056C319.777 265.254 319.253 265.353 318.648 265.353Z" fill="#1B1C37" fill-opacity="0.8"/>
<line x1="491.704" y1="194.198" x2="523.185" y2="194.198" stroke="#167FFC" stroke-width="15.7407" stroke-linecap="round"/>
<line x1="491.704" y1="233.55" x2="523.185" y2="233.55" stroke="#7579FF" stroke-width="15.7407" stroke-linecap="round"/>
<line x1="491.704" y1="272.902" x2="523.185" y2="272.902" stroke="#FD3259" stroke-width="15.7407" stroke-linecap="round"/>
<path d="M551.134 185.995C552.52 185.995 553.735 186.266 554.78 186.807C555.838 187.349 556.65 188.123 557.217 189.131C557.796 190.126 558.086 191.284 558.086 192.606C558.086 193.929 557.796 195.087 557.217 196.082C556.65 197.064 555.838 197.826 554.78 198.367C553.735 198.909 552.52 199.18 551.134 199.18H546.526V185.995H551.134ZM551.04 196.932C552.425 196.932 553.496 196.554 554.251 195.799C555.007 195.043 555.384 193.979 555.384 192.606C555.384 191.234 555.007 190.163 554.251 189.395C553.496 188.615 552.425 188.224 551.04 188.224H549.17V196.932H551.04ZM569.793 193.721C569.793 194.099 569.768 194.439 569.717 194.741H562.067C562.13 195.496 562.395 196.088 562.861 196.516C563.326 196.945 563.899 197.159 564.579 197.159C565.562 197.159 566.261 196.737 566.676 195.893H569.528C569.226 196.9 568.647 197.732 567.791 198.386C566.934 199.029 565.883 199.35 564.636 199.35C563.629 199.35 562.722 199.129 561.916 198.689C561.123 198.235 560.499 197.599 560.046 196.781C559.605 195.962 559.385 195.018 559.385 193.947C559.385 192.865 559.605 191.914 560.046 191.095C560.487 190.277 561.104 189.647 561.897 189.206C562.691 188.766 563.604 188.545 564.636 188.545C565.631 188.545 566.519 188.759 567.299 189.187C568.093 189.616 568.704 190.226 569.132 191.02C569.572 191.8 569.793 192.701 569.793 193.721ZM567.054 192.965C567.041 192.285 566.796 191.744 566.317 191.341C565.839 190.925 565.253 190.717 564.561 190.717C563.906 190.717 563.352 190.919 562.898 191.322C562.458 191.712 562.187 192.26 562.086 192.965H567.054ZM575.727 199.35C574.871 199.35 574.103 199.199 573.423 198.896C572.743 198.582 572.202 198.16 571.799 197.631C571.408 197.102 571.194 196.516 571.156 195.874H573.82C573.87 196.277 574.065 196.611 574.405 196.875C574.758 197.14 575.192 197.272 575.709 197.272C576.212 197.272 576.603 197.171 576.88 196.97C577.169 196.768 577.314 196.51 577.314 196.195C577.314 195.855 577.138 195.603 576.785 195.44C576.445 195.263 575.897 195.075 575.142 194.873C574.361 194.684 573.719 194.489 573.215 194.287C572.724 194.086 572.296 193.777 571.931 193.362C571.578 192.946 571.402 192.386 571.402 191.681C571.402 191.102 571.566 190.573 571.893 190.094C572.233 189.616 572.712 189.238 573.329 188.961C573.958 188.684 574.695 188.545 575.539 188.545C576.785 188.545 577.78 188.86 578.523 189.49C579.266 190.107 579.675 190.944 579.751 192.002H577.22C577.182 191.586 577.006 191.259 576.691 191.02C576.389 190.768 575.979 190.642 575.463 190.642C574.984 190.642 574.613 190.73 574.349 190.906C574.097 191.083 573.971 191.328 573.971 191.643C573.971 191.996 574.147 192.266 574.5 192.455C574.852 192.632 575.4 192.814 576.143 193.003C576.899 193.192 577.522 193.387 578.013 193.589C578.504 193.79 578.926 194.105 579.279 194.533C579.644 194.949 579.833 195.503 579.845 196.195C579.845 196.8 579.675 197.341 579.335 197.82C579.008 198.298 578.529 198.676 577.9 198.953C577.283 199.217 576.559 199.35 575.727 199.35ZM583.357 187.469C582.891 187.469 582.501 187.324 582.186 187.034C581.884 186.732 581.733 186.36 581.733 185.92C581.733 185.479 581.884 185.114 582.186 184.824C582.501 184.522 582.891 184.371 583.357 184.371C583.823 184.371 584.207 184.522 584.509 184.824C584.824 185.114 584.982 185.479 584.982 185.92C584.982 186.36 584.824 186.732 584.509 187.034C584.207 187.324 583.823 187.469 583.357 187.469ZM584.66 188.715V199.18H582.016V188.715H584.66ZM593.072 188.564C594.319 188.564 595.326 188.961 596.094 189.754C596.862 190.535 597.246 191.63 597.246 193.041V199.18H594.602V193.4C594.602 192.569 594.394 191.933 593.979 191.492C593.563 191.039 592.996 190.812 592.279 190.812C591.548 190.812 590.969 191.039 590.541 191.492C590.125 191.933 589.918 192.569 589.918 193.4V199.18H587.273V188.715H589.918V190.019C590.27 189.565 590.717 189.213 591.259 188.961C591.813 188.696 592.417 188.564 593.072 188.564ZM603.86 188.545C604.641 188.545 605.327 188.703 605.919 189.017C606.511 189.32 606.977 189.716 607.317 190.207V188.715H609.98V199.255C609.98 200.225 609.785 201.087 609.395 201.843C609.004 202.611 608.419 203.216 607.638 203.656C606.857 204.11 605.913 204.336 604.805 204.336C603.319 204.336 602.097 203.99 601.14 203.297C600.196 202.605 599.66 201.66 599.535 200.464H602.16C602.299 200.943 602.595 201.32 603.048 201.597C603.514 201.887 604.074 202.032 604.729 202.032C605.497 202.032 606.12 201.799 606.599 201.333C607.077 200.88 607.317 200.187 607.317 199.255V197.631C606.977 198.122 606.505 198.531 605.9 198.859C605.308 199.186 604.628 199.35 603.86 199.35C602.979 199.35 602.173 199.123 601.442 198.67C600.712 198.216 600.133 197.58 599.705 196.762C599.289 195.931 599.081 194.98 599.081 193.91C599.081 192.852 599.289 191.914 599.705 191.095C600.133 190.277 600.706 189.647 601.423 189.206C602.154 188.766 602.966 188.545 603.86 188.545ZM607.317 193.947C607.317 193.305 607.191 192.757 606.939 192.304C606.687 191.838 606.347 191.486 605.919 191.246C605.491 190.995 605.031 190.869 604.54 190.869C604.049 190.869 603.596 190.988 603.18 191.227C602.765 191.467 602.425 191.819 602.16 192.285C601.908 192.739 601.782 193.28 601.782 193.91C601.782 194.539 601.908 195.093 602.16 195.572C602.425 196.038 602.765 196.397 603.18 196.649C603.608 196.9 604.062 197.026 604.54 197.026C605.031 197.026 605.491 196.907 605.919 196.667C606.347 196.416 606.687 196.063 606.939 195.61C607.191 195.144 607.317 194.59 607.317 193.947Z" fill="white"/>
<path d="M556.14 229.427C556.14 230.132 555.97 230.793 555.63 231.41C555.303 232.027 554.78 232.525 554.062 232.903C553.357 233.28 552.463 233.469 551.38 233.469H549.17V238.531H546.526V225.347H551.38C552.4 225.347 553.269 225.523 553.987 225.876C554.704 226.229 555.24 226.713 555.592 227.33C555.957 227.947 556.14 228.646 556.14 229.427ZM551.267 231.335C551.997 231.335 552.538 231.171 552.891 230.844C553.244 230.504 553.42 230.031 553.42 229.427C553.42 228.143 552.702 227.5 551.267 227.5H549.17V231.335H551.267ZM560.662 229.691C561.002 229.137 561.443 228.703 561.984 228.388C562.538 228.073 563.168 227.916 563.873 227.916V230.693H563.174C562.343 230.693 561.713 230.888 561.285 231.278C560.87 231.669 560.662 232.349 560.662 233.318V238.531H558.017V228.067H560.662V229.691ZM570.301 238.701C569.293 238.701 568.387 238.481 567.581 238.04C566.775 237.587 566.139 236.951 565.673 236.133C565.22 235.314 564.993 234.37 564.993 233.299C564.993 232.229 565.226 231.284 565.692 230.466C566.17 229.647 566.819 229.018 567.638 228.577C568.456 228.124 569.369 227.897 570.376 227.897C571.384 227.897 572.297 228.124 573.115 228.577C573.934 229.018 574.576 229.647 575.042 230.466C575.52 231.284 575.76 232.229 575.76 233.299C575.76 234.37 575.514 235.314 575.023 236.133C574.545 236.951 573.89 237.587 573.059 238.04C572.24 238.481 571.321 238.701 570.301 238.701ZM570.301 236.397C570.779 236.397 571.226 236.284 571.642 236.057C572.07 235.818 572.41 235.465 572.662 234.999C572.914 234.533 573.04 233.967 573.04 233.299C573.04 232.304 572.775 231.543 572.246 231.014C571.73 230.472 571.094 230.201 570.339 230.201C569.583 230.201 568.947 230.472 568.431 231.014C567.927 231.543 567.675 232.304 567.675 233.299C567.675 234.294 567.921 235.062 568.412 235.604C568.916 236.133 569.545 236.397 570.301 236.397ZM581.798 227.897C582.579 227.897 583.265 228.054 583.857 228.369C584.449 228.671 584.915 229.068 585.255 229.559V228.067H587.918V238.607C587.918 239.577 587.723 240.439 587.333 241.195C586.943 241.963 586.357 242.567 585.576 243.008C584.795 243.461 583.851 243.688 582.743 243.688C581.257 243.688 580.035 243.342 579.078 242.649C578.134 241.957 577.599 241.012 577.473 239.816H580.098C580.237 240.294 580.533 240.672 580.986 240.949C581.452 241.239 582.013 241.384 582.667 241.384C583.435 241.384 584.059 241.151 584.537 240.685C585.016 240.231 585.255 239.539 585.255 238.607V236.983C584.915 237.474 584.443 237.883 583.838 238.21C583.247 238.538 582.567 238.701 581.798 238.701C580.917 238.701 580.111 238.475 579.381 238.021C578.65 237.568 578.071 236.932 577.643 236.114C577.227 235.283 577.02 234.332 577.02 233.261C577.02 232.204 577.227 231.266 577.643 230.447C578.071 229.629 578.644 228.999 579.362 228.558C580.092 228.117 580.904 227.897 581.798 227.897ZM585.255 233.299C585.255 232.657 585.129 232.109 584.877 231.656C584.625 231.19 584.285 230.837 583.857 230.598C583.429 230.346 582.97 230.22 582.478 230.22C581.987 230.22 581.534 230.34 581.118 230.579C580.703 230.819 580.363 231.171 580.098 231.637C579.847 232.09 579.721 232.632 579.721 233.261C579.721 233.891 579.847 234.445 580.098 234.924C580.363 235.39 580.703 235.749 581.118 236C581.547 236.252 582 236.378 582.478 236.378C582.97 236.378 583.429 236.259 583.857 236.019C584.285 235.767 584.625 235.415 584.877 234.961C585.129 234.496 585.255 233.941 585.255 233.299ZM593.146 229.691C593.486 229.137 593.926 228.703 594.468 228.388C595.022 228.073 595.652 227.916 596.357 227.916V230.693H595.658C594.827 230.693 594.197 230.888 593.769 231.278C593.353 231.669 593.146 232.349 593.146 233.318V238.531H590.501V228.067H593.146V229.691ZM597.458 233.261C597.458 232.204 597.666 231.266 598.081 230.447C598.509 229.629 599.082 228.999 599.8 228.558C600.531 228.117 601.343 227.897 602.237 227.897C603.018 227.897 603.698 228.054 604.277 228.369C604.869 228.684 605.341 229.081 605.693 229.559V228.067H608.357V238.531H605.693V237.001C605.353 237.493 604.881 237.902 604.277 238.229C603.685 238.544 602.999 238.701 602.218 238.701C601.336 238.701 600.531 238.475 599.8 238.021C599.082 237.568 598.509 236.932 598.081 236.114C597.666 235.283 597.458 234.332 597.458 233.261ZM605.693 233.299C605.693 232.657 605.568 232.109 605.316 231.656C605.064 231.19 604.724 230.837 604.296 230.598C603.868 230.346 603.408 230.22 602.917 230.22C602.426 230.22 601.972 230.34 601.557 230.579C601.141 230.819 600.801 231.171 600.537 231.637C600.285 232.09 600.159 232.632 600.159 233.261C600.159 233.891 600.285 234.445 600.537 234.924C600.801 235.39 601.141 235.749 601.557 236C601.985 236.252 602.438 236.378 602.917 236.378C603.408 236.378 603.868 236.259 604.296 236.019C604.724 235.767 605.064 235.415 605.316 234.961C605.568 234.496 605.693 233.941 605.693 233.299ZM623.935 227.916C625.22 227.916 626.252 228.313 627.033 229.106C627.826 229.887 628.223 230.982 628.223 232.393V238.531H625.578V232.751C625.578 231.933 625.371 231.31 624.955 230.881C624.54 230.441 623.973 230.22 623.255 230.22C622.537 230.22 621.964 230.441 621.536 230.881C621.121 231.31 620.913 231.933 620.913 232.751V238.531H618.268V232.751C618.268 231.933 618.061 231.31 617.645 230.881C617.23 230.441 616.663 230.22 615.945 230.22C615.215 230.22 614.635 230.441 614.207 230.881C613.792 231.31 613.584 231.933 613.584 232.751V238.531H610.94V228.067H613.584V229.333C613.924 228.892 614.358 228.546 614.887 228.294C615.429 228.042 616.021 227.916 616.663 227.916C617.481 227.916 618.212 228.092 618.854 228.445C619.496 228.785 619.994 229.276 620.346 229.918C620.686 229.314 621.177 228.829 621.82 228.464C622.474 228.099 623.18 227.916 623.935 227.916ZM632.073 226.82C631.608 226.82 631.217 226.676 630.902 226.386C630.6 226.084 630.449 225.712 630.449 225.271C630.449 224.831 630.6 224.466 630.902 224.176C631.217 223.874 631.608 223.723 632.073 223.723C632.539 223.723 632.923 223.874 633.226 224.176C633.54 224.466 633.698 224.831 633.698 225.271C633.698 225.712 633.54 226.084 633.226 226.386C632.923 226.676 632.539 226.82 632.073 226.82ZM633.377 228.067V238.531H630.732V228.067H633.377ZM641.788 227.916C643.035 227.916 644.042 228.313 644.811 229.106C645.579 229.887 645.963 230.982 645.963 232.393V238.531H643.318V232.751C643.318 231.92 643.111 231.284 642.695 230.844C642.279 230.39 641.713 230.164 640.995 230.164C640.265 230.164 639.685 230.39 639.257 230.844C638.842 231.284 638.634 231.92 638.634 232.751V238.531H635.989V228.067H638.634V229.37C638.987 228.917 639.434 228.564 639.975 228.313C640.529 228.048 641.134 227.916 641.788 227.916ZM652.576 227.897C653.357 227.897 654.043 228.054 654.635 228.369C655.227 228.671 655.693 229.068 656.033 229.559V228.067H658.696V238.607C658.696 239.577 658.501 240.439 658.111 241.195C657.721 241.963 657.135 242.567 656.354 243.008C655.573 243.461 654.629 243.688 653.521 243.688C652.035 243.688 650.813 243.342 649.856 242.649C648.912 241.957 648.377 241.012 648.251 239.816H650.876C651.015 240.294 651.311 240.672 651.764 240.949C652.23 241.239 652.791 241.384 653.445 241.384C654.213 241.384 654.837 241.151 655.315 240.685C655.794 240.231 656.033 239.539 656.033 238.607V236.983C655.693 237.474 655.221 237.883 654.616 238.21C654.025 238.538 653.345 238.701 652.576 238.701C651.695 238.701 650.889 238.475 650.159 238.021C649.428 237.568 648.849 236.932 648.421 236.114C648.005 235.283 647.798 234.332 647.798 233.261C647.798 232.204 648.005 231.266 648.421 230.447C648.849 229.629 649.422 228.999 650.14 228.558C650.87 228.117 651.682 227.897 652.576 227.897ZM656.033 233.299C656.033 232.657 655.907 232.109 655.655 231.656C655.403 231.19 655.063 230.837 654.635 230.598C654.207 230.346 653.748 230.22 653.256 230.22C652.765 230.22 652.312 230.34 651.896 230.579C651.481 230.819 651.141 231.171 650.876 231.637C650.625 232.09 650.499 232.632 650.499 233.261C650.499 233.891 650.625 234.445 650.876 234.924C651.141 235.39 651.481 235.749 651.896 236C652.325 236.252 652.778 236.378 653.256 236.378C653.748 236.378 654.207 236.259 654.635 236.019C655.063 235.767 655.403 235.415 655.655 234.961C655.907 234.496 656.033 233.941 656.033 233.299Z" fill="white"/>
<path d="M555.498 267.847V269.981H551.984V281.031H549.34V269.981H545.827V267.847H555.498ZM567.155 275.573C567.155 275.95 567.13 276.29 567.079 276.593H559.429C559.492 277.348 559.757 277.94 560.223 278.368C560.689 278.796 561.262 279.01 561.942 279.01C562.924 279.01 563.623 278.589 564.038 277.745H566.891C566.588 278.752 566.009 279.583 565.153 280.238C564.296 280.88 563.245 281.201 561.998 281.201C560.991 281.201 560.084 280.981 559.278 280.54C558.485 280.087 557.862 279.451 557.408 278.633C556.968 277.814 556.747 276.87 556.747 275.799C556.747 274.716 556.968 273.766 557.408 272.947C557.849 272.129 558.466 271.499 559.259 271.058C560.053 270.617 560.966 270.397 561.998 270.397C562.993 270.397 563.881 270.611 564.662 271.039C565.455 271.467 566.066 272.078 566.494 272.871C566.935 273.652 567.155 274.553 567.155 275.573ZM564.416 274.817C564.403 274.137 564.158 273.596 563.679 273.193C563.201 272.777 562.615 272.569 561.923 272.569C561.268 272.569 560.714 272.771 560.261 273.174C559.82 273.564 559.549 274.112 559.448 274.817H564.416ZM573.09 281.201C572.233 281.201 571.465 281.05 570.785 280.748C570.105 280.433 569.564 280.011 569.161 279.483C568.77 278.954 568.556 278.368 568.519 277.726H571.182C571.232 278.129 571.427 278.463 571.767 278.727C572.12 278.991 572.554 279.124 573.071 279.124C573.574 279.124 573.965 279.023 574.242 278.821C574.531 278.62 574.676 278.362 574.676 278.047C574.676 277.707 574.5 277.455 574.147 277.291C573.807 277.115 573.26 276.926 572.504 276.725C571.723 276.536 571.081 276.341 570.577 276.139C570.086 275.938 569.658 275.629 569.293 275.214C568.94 274.798 568.764 274.238 568.764 273.533C568.764 272.953 568.928 272.424 569.255 271.946C569.595 271.467 570.074 271.09 570.691 270.813C571.32 270.536 572.057 270.397 572.901 270.397C574.147 270.397 575.142 270.712 575.885 271.341C576.628 271.959 577.037 272.796 577.113 273.854H574.582C574.544 273.438 574.368 273.111 574.053 272.871C573.751 272.62 573.341 272.494 572.825 272.494C572.347 272.494 571.975 272.582 571.711 272.758C571.459 272.934 571.333 273.18 571.333 273.495C571.333 273.847 571.509 274.118 571.862 274.307C572.214 274.483 572.762 274.666 573.505 274.855C574.261 275.044 574.884 275.239 575.375 275.44C575.866 275.642 576.288 275.957 576.641 276.385C577.006 276.8 577.195 277.354 577.207 278.047C577.207 278.651 577.037 279.193 576.697 279.671C576.37 280.15 575.891 280.528 575.262 280.805C574.645 281.069 573.921 281.201 573.09 281.201ZM582.457 272.739V277.801C582.457 278.154 582.539 278.412 582.703 278.576C582.879 278.727 583.169 278.803 583.571 278.803H584.799V281.031H583.137C580.908 281.031 579.794 279.949 579.794 277.783V272.739H578.547V270.567H579.794V267.979H582.457V270.567H584.799V272.739H582.457Z" fill="white"/>
<path d="M242.914 16.455C243.695 15.6739 243.695 14.4076 242.914 13.6266L230.186 0.898636C229.405 0.117587 228.139 0.117587 227.358 0.898636C226.577 1.67968 226.577 2.94601 227.358 3.72706L238.672 15.0408L227.358 26.3545C226.577 27.1355 226.577 28.4019 227.358 29.1829C228.139 29.964 229.405 29.964 230.186 29.1829L242.914 16.455ZM2 15.0408V13.0408H0V15.0408H2ZM2 452.041H0V454.041H2V452.041ZM242.914 453.455C243.695 452.674 243.695 451.408 242.914 450.627L230.186 437.899C229.405 437.118 228.139 437.118 227.358 437.899C226.577 438.68 226.577 439.946 227.358 440.727L238.672 452.041L227.358 463.354C226.577 464.136 226.577 465.402 227.358 466.183C228.139 466.964 229.405 466.964 230.186 466.183L242.914 453.455ZM241.5 13.0408H237.508V17.0408H241.5V13.0408ZM221.542 13.0408H197.592V17.0408H221.542V13.0408ZM165.658 13.0408H157.675V17.0408H165.658V13.0408ZM141.708 13.0408H117.758V17.0408H141.708V13.0408ZM85.825 13.0408H77.8417V17.0408H85.825V13.0408ZM61.875 13.0408H37.925V17.0408H61.875V13.0408ZM5.99166 13.0408H2V17.0408H5.99166V13.0408ZM0 15.0408V19.4108H4V15.0408H0ZM0 36.8908V63.1108H4V36.8908H0ZM0 98.0708V106.811H4V98.0708H0ZM0 124.291V150.511H4V124.291H0ZM0 185.471V194.211H4V185.471H0ZM0 211.691V237.911H4V211.691H0ZM0 272.871V281.611H4V272.871H0ZM0 299.091V325.311H4V299.091H0ZM0 360.271V369.011H4V360.271H0ZM0 386.491V412.711H4V386.491H0ZM0 447.671V452.041H4V447.671H0ZM2 454.041H5.99167V450.041H2V454.041ZM21.9583 454.041H45.9083V450.041H21.9583V454.041ZM77.8417 454.041H85.825V450.041H77.8417V454.041ZM101.792 454.041H125.742V450.041H101.792V454.041ZM157.675 454.041H165.658V450.041H157.675V454.041ZM181.625 454.041H205.575V450.041H181.625V454.041ZM237.508 454.041H241.5V450.041H237.508V454.041Z" fill="#5F6073"/>
</svg>
