<svg width="95" height="30" viewBox="0 0 95 30" fill="none" xmlns="http://www.w3.org/2000/svg">
<g clip-path="url(#clip0_129_1430)">
<path d="M19.4852 2.70001C15.9129 2.70001 13.0142 5.59201 13.0142 9.15601C13.0142 12.72 15.9129 15.612 19.4852 15.612C23.0574 15.612 25.9561 12.72 25.9561 9.15601C25.9561 5.59201 23.0574 2.70001 19.4852 2.70001Z" fill="url(#paint0_linear_129_1430)"/>
<path d="M8.38321 16.236C6.18211 16.236 4.37793 18.024 4.37793 20.232C4.37793 22.44 6.17008 24.228 8.38321 24.228C10.5843 24.228 12.3885 22.44 12.3885 20.232C12.3885 18.024 10.5843 16.236 8.38321 16.236Z" fill="url(#paint1_linear_129_1430)"/>
<path d="M20.7246 20.5442C18.8602 20.5442 17.3447 22.0562 17.3447 23.9162C17.3447 25.7762 18.8602 27.2882 20.7246 27.2882C22.5889 27.2882 24.1044 25.7762 24.1044 23.9162C24.1044 22.0562 22.5889 20.5442 20.7246 20.5442Z" fill="url(#paint2_linear_129_1430)"/>
<path d="M44.7905 18.4454H48.5836V21.0434H41.3957V8.8327H44.7905V18.4454ZM54.4241 21.1646C53.4542 21.1646 52.5824 20.9626 51.8088 20.5584C51.0467 20.1543 50.4462 19.577 50.0075 18.8264C49.5687 18.0759 49.3493 17.1926 49.3493 16.1764C49.3493 15.1719 49.5687 14.2943 50.0075 13.5438C50.4578 12.7932 51.064 12.2159 51.8261 11.8118C52.5997 11.4076 53.4715 11.2056 54.4414 11.2056C55.4114 11.2056 56.2774 11.4076 57.0394 11.8118C57.8131 12.2159 58.4193 12.7932 58.8581 13.5438C59.3084 14.2943 59.5335 15.1719 59.5335 16.1764C59.5335 17.181 59.3084 18.0643 58.8581 18.8264C58.4193 19.577 57.8131 20.1543 57.0394 20.5584C56.2658 20.9626 55.394 21.1646 54.4241 21.1646ZM54.4241 18.2202C54.8975 18.2202 55.2901 18.047 55.6019 17.7006C55.9252 17.3427 56.0868 16.8346 56.0868 16.1764C56.0868 15.5183 55.9252 15.016 55.6019 14.6696C55.2901 14.3232 54.9033 14.15 54.4414 14.15C53.9796 14.15 53.5927 14.3232 53.281 14.6696C52.9692 15.016 52.8133 15.5183 52.8133 16.1764C52.8133 16.8462 52.9634 17.3542 53.2637 17.7006C53.5639 18.047 53.9507 18.2202 54.4241 18.2202ZM64.5 11.2056C65.1581 11.2056 65.7297 11.3383 66.2146 11.6039C66.7112 11.8695 67.0922 12.2274 67.3578 12.6778V11.3268H70.7525V20.9395C70.7525 21.8517 70.5793 22.6715 70.2329 23.3989C69.8865 24.1379 69.3438 24.7268 68.6048 25.1656C67.8774 25.6044 66.9536 25.8238 65.8336 25.8238C64.3325 25.8238 63.1317 25.4716 62.231 24.7672C61.3304 24.0629 60.8165 23.1045 60.6895 21.8921H64.0323C64.1016 22.2038 64.2748 22.4463 64.5519 22.6195C64.829 22.7927 65.187 22.8793 65.6258 22.8793C66.7804 22.8793 67.3578 22.2327 67.3578 20.9395V19.6924C67.0922 20.1427 66.7112 20.5007 66.2146 20.7663C65.7297 21.0318 65.1581 21.1646 64.5 21.1646C63.7263 21.1646 63.022 20.9626 62.3869 20.5584C61.7634 20.1543 61.2669 19.577 60.8974 18.8264C60.5394 18.0643 60.3604 17.181 60.3604 16.1764C60.3604 15.1719 60.5394 14.2943 60.8974 13.5438C61.2669 12.7932 61.7634 12.2159 62.3869 11.8118C63.022 11.4076 63.7263 11.2056 64.5 11.2056ZM67.3578 16.1764C67.3578 15.5529 67.1846 15.0622 66.8382 14.7042C66.5033 14.3463 66.0876 14.1673 65.5911 14.1673C65.0831 14.1673 64.6616 14.3463 64.3268 14.7042C63.9919 15.0506 63.8245 15.5414 63.8245 16.1764C63.8245 16.8 63.9919 17.2965 64.3268 17.666C64.6616 18.0239 65.0831 18.2029 65.5911 18.2029C66.0876 18.2029 66.5033 18.0239 66.8382 17.666C67.1846 17.308 67.3578 16.8115 67.3578 16.1764ZM77.2075 21.1646C76.2376 21.1646 75.3658 20.9626 74.5922 20.5584C73.8301 20.1543 73.2297 19.577 72.7909 18.8264C72.3521 18.0759 72.1327 17.1926 72.1327 16.1764C72.1327 15.1719 72.3521 14.2943 72.7909 13.5438C73.2412 12.7932 73.8474 12.2159 74.6095 11.8118C75.3831 11.4076 76.2549 11.2056 77.2248 11.2056C78.1948 11.2056 79.0608 11.4076 79.8229 11.8118C80.5965 12.2159 81.2027 12.7932 81.6415 13.5438C82.0918 14.2943 82.317 15.1719 82.317 16.1764C82.317 17.181 82.0918 18.0643 81.6415 18.8264C81.2027 19.577 80.5965 20.1543 79.8229 20.5584C79.0492 20.9626 78.1774 21.1646 77.2075 21.1646ZM77.2075 18.2202C77.6809 18.2202 78.0735 18.047 78.3853 17.7006C78.7086 17.3427 78.8703 16.8346 78.8703 16.1764C78.8703 15.5183 78.7086 15.016 78.3853 14.6696C78.0735 14.3232 77.6867 14.15 77.2248 14.15C76.763 14.15 76.3762 14.3232 76.0644 14.6696C75.7526 15.016 75.5967 15.5183 75.5967 16.1764C75.5967 16.8462 75.7469 17.3542 76.0471 17.7006C76.3473 18.047 76.7341 18.2202 77.2075 18.2202Z" fill="url(#paint3_linear_129_1430)"/>
</g>
<defs>
<linearGradient id="paint0_linear_129_1430" x1="13.0142" y1="9.15601" x2="25.9561" y2="9.15601" gradientUnits="userSpaceOnUse">
<stop stop-color="#B224EF"/>
<stop offset="1" stop-color="#7579FF"/>
</linearGradient>
<linearGradient id="paint1_linear_129_1430" x1="4.37793" y1="20.232" x2="12.3885" y2="20.232" gradientUnits="userSpaceOnUse">
<stop stop-color="#B224EF"/>
<stop offset="1" stop-color="#7579FF"/>
</linearGradient>
<linearGradient id="paint2_linear_129_1430" x1="17.3447" y1="23.9162" x2="24.1044" y2="23.9162" gradientUnits="userSpaceOnUse">
<stop stop-color="#B224EF"/>
<stop offset="1" stop-color="#7579FF"/>
</linearGradient>
<linearGradient id="paint3_linear_129_1430" x1="35.8946" y1="21" x2="82.9899" y2="21" gradientUnits="userSpaceOnUse">
<stop stop-color="#C215FF"/>
<stop offset="1" stop-color="#4F10D5"/>
</linearGradient>
<clipPath id="clip0_129_1430">
<rect width="93.8174" height="28.8" fill="white" transform="translate(0.733398 0.599976)"/>
</clipPath>
</defs>
</svg>
