<svg width="29" height="28" viewBox="0 0 29 28" fill="none" xmlns="http://www.w3.org/2000/svg">
<path fill-rule="evenodd" clip-rule="evenodd" d="M8.52073 7.65481C6.87487 7.65481 5.39044 8.63938 4.75742 10.1509C4.17984 11.53 3.40028 14.9491 3.04786 16.5815C2.95027 17.0336 2.90969 17.4219 2.941 17.7706C3.04594 18.9386 3.40981 19.4965 3.74974 19.7832C4.10663 20.0843 4.64872 20.2652 5.4407 20.2652C6.31259 20.2652 7.12297 19.8184 7.58508 19.0827L9.77944 15.5897L12.6969 10.7521L12.0166 9.62401C12.0166 9.624 12.0166 9.624 12.0166 9.62398C11.2798 8.40232 9.95277 7.65481 8.52073 7.65481ZM14.2529 8.17346C13.0241 6.2023 10.8568 5 8.52073 5C5.79762 5 3.34159 6.62899 2.29424 9.12979C1.60019 10.787 0.770143 14.4898 0.438923 16.0241C0.311224 16.6156 0.218963 17.2923 0.283152 18.0069C0.430971 19.6523 1.00238 20.9464 2.02406 21.8082C3.02878 22.6557 4.27461 22.92 5.4407 22.92C7.23264 22.92 8.89818 22.0016 9.8479 20.4898L12.0488 16.9865L12.0614 16.9659L14.2529 13.3321L16.4443 16.9659L16.457 16.9865L18.6578 20.4898C19.6075 22.0016 21.273 22.92 23.065 22.92C24.3763 22.92 25.7392 22.5479 26.7627 21.4788C27.7776 20.4185 28.2622 18.877 28.2622 16.9467C28.2622 15.7219 27.7954 13.9386 27.3625 12.5111C26.9114 11.0234 26.4247 9.69723 26.2752 9.29655C26.2403 9.20314 26.1986 9.09642 26.148 8.98323C25.0673 6.56545 22.6545 5 19.985 5C17.6489 5 15.4817 6.20231 14.2529 8.17346ZM15.8089 10.7521L18.7263 15.5897L20.9207 19.0827C21.3827 19.8184 22.1931 20.2652 23.065 20.2652C23.8872 20.2652 24.4557 20.0393 24.8303 19.6479C25.2135 19.2477 25.5938 18.4663 25.5938 16.9467C25.5938 16.1712 25.2541 14.7497 24.8078 13.2778C24.3799 11.8664 23.9148 10.5987 23.7738 10.2211C23.7489 10.1546 23.7289 10.1047 23.7098 10.062C23.0567 8.60099 21.5984 7.65481 19.985 7.65481C18.5529 7.65481 17.2259 8.40234 16.4892 9.62405L15.8089 10.7521Z" fill="white"/>
</svg>
