<svg width="28" height="28" viewBox="0 0 28 28" fill="none" xmlns="http://www.w3.org/2000/svg">
<path fill-rule="evenodd" clip-rule="evenodd" d="M8.25852 7.65481C6.61266 7.65481 5.12824 8.63938 4.49522 10.1509C3.91763 11.53 3.13807 14.9491 2.78565 16.5815C2.68807 17.0336 2.64748 17.4219 2.67879 17.7706C2.78373 18.9386 3.1476 19.4965 3.48753 19.7832C3.84442 20.0843 4.38652 20.2652 5.1785 20.2652C6.05038 20.2652 6.86076 19.8184 7.32287 19.0827L9.51724 15.5897L12.4347 10.7521L11.7544 9.62401C11.7544 9.624 11.7544 9.624 11.7544 9.62398C11.0176 8.40232 9.69057 7.65481 8.25852 7.65481ZM13.9907 8.17346C12.7619 6.2023 10.5946 5 8.25852 5C5.53541 5 3.07938 6.62899 2.03203 9.12979C1.33798 10.787 0.507936 14.4898 0.176716 16.0241C0.0490173 16.6156 -0.043244 17.2923 0.0209453 18.0069C0.168764 19.6523 0.740171 20.9464 1.76185 21.8082C2.76657 22.6557 4.0124 22.92 5.1785 22.92C6.97044 22.92 8.63597 22.0016 9.5857 20.4898L11.7865 16.9865L11.7992 16.9659L13.9907 13.3321L16.1821 16.9659L16.1948 16.9865L18.3956 20.4898C19.3453 22.0016 21.0108 22.92 22.8028 22.92C24.1141 22.92 25.477 22.5479 26.5005 21.4788C27.5154 20.4185 28 18.877 28 16.9467C28 15.7219 27.5332 13.9386 27.1003 12.5111C26.6492 11.0234 26.1625 9.69723 26.0129 9.29655C25.9781 9.20314 25.9364 9.09642 25.8858 8.98323C24.8051 6.56545 22.3923 5 19.7228 5C17.3867 5 15.2195 6.20231 13.9907 8.17346ZM15.5466 10.7521L18.4641 15.5897L20.6584 19.0827C21.1205 19.8184 21.9309 20.2652 22.8028 20.2652C23.625 20.2652 24.1935 20.0393 24.5681 19.6479C24.9513 19.2477 25.3316 18.4663 25.3316 16.9467C25.3316 16.1712 24.9919 14.7497 24.5456 13.2778C24.1177 11.8664 23.6526 10.5987 23.5115 10.2211C23.4867 10.1546 23.4667 10.1047 23.4476 10.062C22.7945 8.60099 21.3362 7.65481 19.7228 7.65481C18.2907 7.65481 16.9637 8.40234 16.227 9.62405L15.5466 10.7521Z" fill="#5F6073"/>
</svg>
