<svg width="66" height="67" viewBox="0 0 66 67" fill="none" xmlns="http://www.w3.org/2000/svg">
<g clip-path="url(#clip0_129_1426)">
<path d="M4.16484 9.3202C4.79744 14.2757 6.96285 24.8357 7.94418 29.2935C8.201 30.5557 8.48756 31.6392 8.74979 32.0792C10.1042 34.458 11.2018 31.29 11.2018 31.29C15.438 18.4117 8.74979 10.1095 6.61411 7.88195C6.23834 7.46945 5.57601 6.96895 4.97045 6.79295C4.10537 6.5317 3.95938 7.02945 3.95938 7.44195C3.98642 7.84895 4.13511 8.9957 4.16214 9.31745L4.16484 9.3202ZM63.1934 5.29695C64.0314 5.91295 66.9403 9.0232 63.1934 9.49345C57.8298 10.137 47.6218 10.5192 30.6932 24.921C24.2943 30.3797 9.93117 45.073 2.23462 63.3495C2.18931 63.4624 2.10481 63.5545 1.99716 63.6082C1.88952 63.6619 1.76623 63.6736 1.65069 63.6409C0.961326 63.4374 -0.27953 62.673 0.353063 59.7415C1.21815 55.7815 9.00661 35.162 29.5956 16.9735C36.3136 11.0472 52.3474 -2.91455 63.1879 5.2997L63.1934 5.29695Z" fill="#5F6073"/>
</g>
<defs>
<clipPath id="clip0_129_1426">
<rect width="64.8814" height="66" fill="white" transform="translate(0.180176 0.217651)"/>
</clipPath>
</defs>
</svg>
