<svg width="68" height="67" viewBox="0 0 68 67" fill="none" xmlns="http://www.w3.org/2000/svg">
<path d="M53.4005 19.3769C53.4005 19.8752 53.3729 20.3457 53.3175 20.8163C52.9853 24.8301 51.2137 28.4564 48.5286 31.1138C45.539 34.1311 41.3868 35.9857 36.7917 35.9857H28.1274C26.7434 35.9857 25.5808 37.0099 25.387 38.3663L23.2832 52.9821C23.1171 54.0617 22.3421 54.9475 21.3178 55.2243C21.0687 55.335 20.8196 55.3627 20.5428 55.3627H15.1449C13.4286 55.3627 12.1276 53.8402 12.4044 52.1516L19.0202 12.4843C19.6846 8.47051 23.1448 5.53625 27.214 5.53625H39.5599C47.1999 5.53625 53.4005 11.7369 53.4005 19.3769Z" fill="#5F6073"/>
<path d="M58.9368 30.4496C58.9368 34.2696 57.3867 37.7298 54.8954 40.2488C52.3764 42.7401 48.9162 44.2902 45.0961 44.2902H39.1447C37.7883 44.2902 36.6256 45.2591 36.4042 46.6155L34.4112 58.5738C34.1897 59.9302 33.0271 60.8991 31.6707 60.8991H23.5601C23.0618 60.8991 22.6189 60.7883 22.2313 60.5669C21.6223 60.2347 22.0099 59.4319 22.6742 59.1551C25.1656 58.3524 26.9926 56.2209 27.3801 53.5635L29.1517 41.3283C29.2624 40.6363 29.8437 40.138 30.5081 40.138H36.7917C42.3557 40.138 47.5874 37.9789 51.4628 34.0758C53.7604 31.8059 55.4766 29.0102 56.4731 25.9929C56.6946 25.3009 57.6081 25.1624 57.9126 25.7991C58.577 27.2385 58.9368 28.7887 58.9368 30.4496Z" fill="#5F6073"/>
</svg>
