<svg width="29" height="28" viewBox="0 0 29 28" fill="none" xmlns="http://www.w3.org/2000/svg">
<path fill-rule="evenodd" clip-rule="evenodd" d="M5.05347 10.0549V11.3184C5.21178 11.4763 5.21178 11.9501 5.21178 12.1081C5.21178 12.424 5.37009 12.7398 5.37009 12.8978C5.5284 13.3716 5.68671 13.8454 6.00333 14.3192C6.63657 14.951 7.58644 15.5827 8.37799 15.7407C8.85292 15.2669 9.01123 14.3192 8.69461 13.6875C8.5363 13.0557 8.06137 12.7398 7.90306 11.9501C6.9532 8.15962 10.5943 3.89527 15.1854 4.05321C16.7685 4.21114 17.8766 4.8429 18.8265 5.63259C19.6181 6.42229 20.2513 7.6858 20.4096 9.10725C20.7262 12.7398 18.8265 17.478 15.3437 16.8463C11.0693 16.0566 16.9268 9.26519 14.3938 7.52786C12.969 6.58023 11.5442 7.52786 11.0693 8.47549C10.436 9.739 10.1194 11.3184 10.7527 12.7398C10.7527 12.8978 10.911 13.0557 10.911 13.2137C10.911 13.3716 10.7527 13.6875 10.7527 13.6875C10.2777 16.2145 9.48617 18.4256 9.01123 20.9527C8.85292 22.3741 8.85292 24.4273 9.01123 25.6908C9.48617 25.5329 10.2777 24.7432 10.436 24.2694C11.7025 22.69 12.3358 19.8471 12.6524 17.7939C13.4439 17.9518 14.2355 19.2153 16.4518 19.2153C20.5679 19.2153 23.1009 15.5827 23.5758 11.9501C23.5758 11.6343 23.7341 10.8446 23.7341 10.6866V9.58107C23.5758 9.26519 23.5758 8.79137 23.5758 8.63343C23.1009 4.52702 19.7764 2.47382 16.1352 2C15.8186 2 15.3437 2 15.1854 2H14.0772C13.7606 2 13.2856 2 13.1273 2C9.64448 2.47382 6.31995 4.8429 5.37009 8.31755C5.21178 8.94931 5.05347 10.0549 5.05347 10.0549Z" fill="#5F6073"/>
</svg>
