<svg width="29" height="28" viewBox="0 0 29 28" fill="none" xmlns="http://www.w3.org/2000/svg">
<path fill-rule="evenodd" clip-rule="evenodd" d="M5.31567 10.0549V11.3184C5.47398 11.4763 5.47398 11.9501 5.47398 12.1081C5.47398 12.424 5.6323 12.7398 5.6323 12.8978C5.79061 13.3716 5.94892 13.8454 6.26554 14.3192C6.89878 14.951 7.84865 15.5827 8.6402 15.7407C9.11513 15.2669 9.27344 14.3192 8.95682 13.6875C8.79851 13.0557 8.32358 12.7398 8.16527 11.9501C7.2154 8.15962 10.8565 3.89527 15.4476 4.05321C17.0307 4.21114 18.1388 4.8429 19.0887 5.63259C19.8803 6.42229 20.5135 7.6858 20.6718 9.10725C20.9884 12.7398 19.0887 17.478 15.6059 16.8463C11.3315 16.0566 17.189 9.26519 14.656 7.52786C13.2312 6.58023 11.8064 7.52786 11.3315 8.47549C10.6982 9.739 10.3816 11.3184 11.0149 12.7398C11.0149 12.8978 11.1732 13.0557 11.1732 13.2137C11.1732 13.3716 11.0149 13.6875 11.0149 13.6875C10.5399 16.2145 9.74837 18.4256 9.27344 20.9527C9.11513 22.3741 9.11513 24.4273 9.27344 25.6908C9.74837 25.5329 10.5399 24.7432 10.6982 24.2694C11.9647 22.69 12.598 19.8471 12.9146 17.7939C13.7061 17.9518 14.4977 19.2153 16.714 19.2153C20.8301 19.2153 23.3631 15.5827 23.838 11.9501C23.838 11.6343 23.9963 10.8446 23.9963 10.6866V9.58107C23.838 9.26519 23.838 8.79137 23.838 8.63343C23.3631 4.52702 20.0386 2.47382 16.3974 2C16.0808 2 15.6059 2 15.4476 2H14.3394C14.0228 2 13.5478 2 13.3895 2C9.90668 2.47382 6.58216 4.8429 5.6323 8.31755C5.47398 8.94931 5.31567 10.0549 5.31567 10.0549Z" fill="white"/>
</svg>
