<svg width="29" height="28" viewBox="0 0 29 28" fill="none" xmlns="http://www.w3.org/2000/svg">
<path fill-rule="evenodd" clip-rule="evenodd" d="M20.81 17.5287C20.4597 17.7622 20.2262 17.7622 19.9927 17.8789C19.7592 17.8789 19.6424 17.9957 19.5257 18.1124C19.2922 18.1124 19.2922 18.3459 19.2922 18.4627C19.2922 18.5794 19.2922 18.6962 19.1754 18.8129C19.0586 18.9297 18.8251 18.9297 18.5916 18.9297C18.2414 18.9297 17.7743 18.9297 17.3073 19.1632C17.0738 19.28 16.8403 19.3967 16.6068 19.5135C16.1398 19.8637 15.6728 20.0972 14.7387 20.0972C13.8047 20.0972 13.3377 19.747 12.8707 19.5135C12.6372 19.3967 12.4037 19.1632 12.1701 19.1632C11.7031 19.0465 11.2361 18.9297 10.8859 18.9297C10.6523 18.9297 10.4188 18.9297 10.3021 18.8129C9.95182 18.6962 9.95182 18.5794 9.95182 18.4627C9.95182 18.3459 9.95182 18.1124 9.71831 18.1124C9.60156 17.9957 9.36805 17.9957 9.2513 17.8789C9.01779 17.7622 8.78428 17.7622 8.43402 17.5287C8.08375 17.2951 8.31726 17.1784 8.43402 17.0616C10.6523 16.0108 11.0026 14.2595 11.0026 14.1428C11.0026 14.026 11.0026 13.9093 10.8859 13.7925C10.7691 13.6758 10.4188 13.4423 10.0686 13.3255C9.95182 13.2087 9.83507 13.2087 9.71831 13.092C9.36805 12.8585 9.25129 12.625 9.36805 12.3915C9.4848 12.158 9.60156 12.158 9.83507 12.158C9.95182 12.158 9.95182 12.158 10.0686 12.158C10.3021 12.158 10.5356 12.2747 10.6523 12.3915C10.7691 12.3915 10.8859 12.5082 11.0026 12.5082C11.0026 12.5082 11.0026 12.5082 11.1194 12.5082C11.2361 12.5082 11.2361 12.5082 11.2361 12.2747V12.158C11.2361 11.8077 11.1194 10.9904 11.2361 10.4066C11.3529 9.47261 11.5864 8.88884 12.0534 8.53858C12.2869 8.30507 13.1042 7.48779 14.7387 7.48779C16.3733 7.48779 17.1906 8.42183 17.4241 8.53858C17.7743 9.0056 18.1246 9.47261 18.2414 10.4066C18.3581 11.1072 18.2414 11.8077 18.2414 12.2747C18.2414 12.3915 18.2414 12.5082 18.3581 12.5082C18.3581 12.5082 18.3581 12.5082 18.4749 12.5082C18.5916 12.5082 18.7084 12.3915 18.8251 12.3915C19.0586 12.2747 19.1754 12.2747 19.4089 12.158C19.4089 12.158 19.5257 12.158 19.6424 12.158C19.8759 12.158 19.9927 12.2747 20.1094 12.3915C20.2262 12.625 20.1094 12.8585 19.7592 13.092C19.6424 13.092 19.5257 13.2087 19.4089 13.3255C19.1754 13.559 18.7084 13.7925 18.5916 13.7925C18.4749 13.9093 18.4749 14.026 18.4749 14.1428C18.4749 14.2595 18.8251 15.8941 21.0435 17.0616C21.0435 17.1784 21.277 17.2951 20.81 17.5287Z" stroke="white" stroke-width="1.75131" stroke-miterlimit="10" stroke-linejoin="round"/>
<path d="M14.6222 25.3508C21.0704 25.3508 26.2976 20.1236 26.2976 13.6754C26.2976 7.22726 21.0704 2 14.6222 2C8.17404 2 2.94678 7.22726 2.94678 13.6754C2.94678 20.1236 8.17404 25.3508 14.6222 25.3508Z" stroke="white" stroke-width="1.75131" stroke-miterlimit="10" stroke-linejoin="round"/>
</svg>
