<svg width="29" height="28" viewBox="0 0 29 28" fill="none" xmlns="http://www.w3.org/2000/svg">
<path fill-rule="evenodd" clip-rule="evenodd" d="M20.5477 17.5285C20.1975 17.762 19.964 17.762 19.7305 17.8788C19.497 17.8788 19.3802 17.9955 19.2635 18.1123C19.0299 18.1123 19.0299 18.3458 19.0299 18.4626C19.0299 18.5793 19.0299 18.6961 18.9132 18.8128C18.7964 18.9296 18.5629 18.9296 18.3294 18.9296C17.9792 18.9296 17.5121 18.9296 17.0451 19.1631C16.8116 19.2798 16.5781 19.3966 16.3446 19.5133C15.8776 19.8636 15.4106 20.0971 14.4765 20.0971C13.5425 20.0971 13.0755 19.7469 12.6085 19.5133C12.375 19.3966 12.1414 19.1631 11.9079 19.1631C11.4409 19.0463 10.9739 18.9296 10.6236 18.9296C10.3901 18.9296 10.1566 18.9296 10.0399 18.8128C9.68961 18.6961 9.68961 18.5793 9.68961 18.4626C9.68961 18.3458 9.68961 18.1123 9.4561 18.1123C9.33935 17.9955 9.10584 17.9955 8.98909 17.8788C8.75558 17.762 8.52207 17.762 8.17181 17.5285C7.82155 17.295 8.05505 17.1783 8.17181 17.0615C10.3901 16.0107 10.7404 14.2594 10.7404 14.1427C10.7404 14.0259 10.7404 13.9092 10.6236 13.7924C10.5069 13.6756 10.1566 13.4421 9.80637 13.3254C9.68961 13.2086 9.57286 13.2086 9.4561 13.0919C9.10584 12.8584 8.98909 12.6249 9.10584 12.3913C9.2226 12.1578 9.33935 12.1578 9.57286 12.1578C9.68961 12.1578 9.68961 12.1578 9.80637 12.1578C10.0399 12.1578 10.2734 12.2746 10.3901 12.3913C10.5069 12.3913 10.6236 12.5081 10.7404 12.5081C10.7404 12.5081 10.7404 12.5081 10.8572 12.5081C10.9739 12.5081 10.9739 12.5081 10.9739 12.2746V12.1578C10.9739 11.8076 10.8572 10.9903 10.9739 10.4065C11.0907 9.47249 11.3242 8.88872 11.7912 8.53846C12.0247 8.30495 12.842 7.48767 14.4765 7.48767C16.1111 7.48767 16.9284 8.4217 17.1619 8.53846C17.5121 9.00548 17.8624 9.47249 17.9792 10.4065C18.0959 11.107 17.9792 11.8076 17.9792 12.2746C17.9792 12.3913 17.9792 12.5081 18.0959 12.5081C18.0959 12.5081 18.0959 12.5081 18.2127 12.5081C18.3294 12.5081 18.4462 12.3913 18.5629 12.3913C18.7964 12.2746 18.9132 12.2746 19.1467 12.1578C19.1467 12.1578 19.2635 12.1578 19.3802 12.1578C19.6137 12.1578 19.7305 12.2746 19.8472 12.3913C19.964 12.6249 19.8472 12.8584 19.497 13.0919C19.3802 13.0919 19.2635 13.2086 19.1467 13.3254C18.9132 13.5589 18.4462 13.7924 18.3294 13.7924C18.2127 13.9092 18.2127 14.0259 18.2127 14.1427C18.2127 14.2594 18.5629 15.894 20.7813 17.0615C20.7813 17.1783 21.0148 17.295 20.5477 17.5285Z" stroke="#5F6073" stroke-width="1.75131" stroke-miterlimit="10" stroke-linejoin="round"/>
<path d="M14.3599 25.3508C20.808 25.3508 26.0353 20.1236 26.0353 13.6754C26.0353 7.22726 20.808 2 14.3599 2C7.91171 2 2.68445 7.22726 2.68445 13.6754C2.68445 20.1236 7.91171 25.3508 14.3599 25.3508Z" stroke="#5F6073" stroke-width="1.75131" stroke-miterlimit="10" stroke-linejoin="round"/>
</svg>
