<svg width="29" height="28" viewBox="0 0 29 28" fill="none" xmlns="http://www.w3.org/2000/svg">
<g clip-path="url(#clip0_111_3856)">
<path d="M25.0355 0H3.70222C1.86423 0 0.368896 1.49533 0.368896 3.33333V24.6666C0.368896 26.5046 1.86423 28 3.70222 28H25.0355C26.8735 28 28.3688 26.5046 28.3688 24.6666V3.33333C28.3688 1.49533 26.8735 0 25.0355 0ZM22.3729 12.2153C22.22 12.2302 22.0665 12.238 21.9129 12.2386C21.0835 12.2388 20.2671 12.0323 19.5375 11.638C18.8078 11.2437 18.1879 10.6739 17.7335 9.97998V17.6713C17.7335 18.7956 17.4001 19.8947 16.7755 20.8295C16.1509 21.7644 15.263 22.493 14.2243 22.9232C13.1856 23.3535 12.0426 23.4661 10.9399 23.2467C9.83714 23.0274 8.82423 22.486 8.02922 21.691C7.2342 20.8959 6.69279 19.883 6.47345 18.7803C6.25411 17.6776 6.36668 16.5346 6.79694 15.4959C7.2272 14.4571 7.95581 13.5693 8.89065 12.9447C9.82549 12.32 10.9246 11.9866 12.0489 11.9866C12.1675 11.9866 12.2835 11.9973 12.4002 12.0046V14.806C12.2835 14.792 12.1689 14.7706 12.0489 14.7706C11.2794 14.7706 10.5414 15.0763 9.99733 15.6204C9.45322 16.1645 9.14755 16.9025 9.14755 17.672C9.14755 18.4415 9.45322 19.1794 9.99733 19.7235C10.5414 20.2676 11.2794 20.5733 12.0489 20.5733C13.6515 20.5733 15.0669 19.3106 15.0669 17.708L15.0949 4.64533H17.7749C17.8973 5.80978 18.4252 6.89415 19.2662 7.70882C20.1072 8.52349 21.2078 9.01662 22.3755 9.10198V12.2153" fill="#5F6073"/>
</g>
<defs>
<clipPath id="clip0_111_3856">
<rect width="28" height="28" fill="white" transform="translate(0.369019)"/>
</clipPath>
</defs>
</svg>
