<svg width="29" height="28" viewBox="0 0 29 28" fill="none" xmlns="http://www.w3.org/2000/svg">
<g clip-path="url(#clip0_141_1360)">
<path d="M25.2977 0H3.96443C2.12643 0 0.631104 1.49533 0.631104 3.33333V24.6666C0.631104 26.5046 2.12643 28 3.96443 28H25.2977C27.1357 28 28.6311 26.5046 28.6311 24.6666V3.33333C28.6311 1.49533 27.1357 0 25.2977 0ZM22.6351 12.2153C22.4822 12.2302 22.3287 12.238 22.1751 12.2386C21.3457 12.2388 20.5293 12.0323 19.7997 11.638C19.07 11.2437 18.4501 10.6739 17.9957 9.97998V17.6713C17.9957 18.7956 17.6623 19.8947 17.0377 20.8295C16.4131 21.7644 15.5252 22.493 14.4865 22.9232C13.4478 23.3535 12.3048 23.4661 11.2021 23.2467C10.0993 23.0274 9.08644 22.486 8.29142 21.691C7.49641 20.8959 6.955 19.883 6.73566 18.7803C6.51631 17.6776 6.62889 16.5346 7.05915 15.4959C7.4894 14.4571 8.21802 13.5693 9.15286 12.9447C10.0877 12.32 11.1868 11.9866 12.3111 11.9866C12.4298 11.9866 12.5458 11.9973 12.6624 12.0046V14.806C12.5458 14.792 12.4311 14.7706 12.3111 14.7706C11.5416 14.7706 10.8036 15.0763 10.2595 15.6204C9.71543 16.1645 9.40976 16.9025 9.40976 17.672C9.40976 18.4415 9.71543 19.1794 10.2595 19.7235C10.8036 20.2676 11.5416 20.5733 12.3111 20.5733C13.9137 20.5733 15.3291 19.3106 15.3291 17.708L15.3571 4.64533H18.0371C18.1595 5.80978 18.6874 6.89415 19.5284 7.70882C20.3694 8.52349 21.47 9.01662 22.6377 9.10198V12.2153" fill="white"/>
</g>
<defs>
<clipPath id="clip0_141_1360">
<rect width="28" height="28" fill="white" transform="translate(0.631104)"/>
</clipPath>
</defs>
</svg>
