<svg width="91" height="28" viewBox="0 0 91 28" fill="none" xmlns="http://www.w3.org/2000/svg">
<path opacity="0.8" d="M33.0396 27.1658L37.6171 1.42029H44.7687L40.3338 27.1658H33.0396Z" fill="#5F6073"/>
<path opacity="0.8" d="M33.0396 27.1658L38.8966 1.42029H44.7536L40.3338 27.1658H33.0396Z" fill="#5F6073"/>
<path opacity="0.8" d="M66.2295 1.70741C64.1261 0.9221 61.8952 0.534069 59.6501 0.563033C52.4985 0.563033 47.3503 4.13884 47.3503 9.28854C47.3503 13.1497 50.9261 15.1456 53.787 16.4401C56.648 17.7347 57.5055 18.5862 57.5055 19.7291C57.5055 21.4457 55.2168 22.3032 53.2149 22.3032C50.8476 22.3556 48.4996 21.8666 46.3501 20.8735L45.3484 20.444L44.3467 26.301C46.9534 27.2642 49.712 27.751 52.491 27.7382C60.0721 27.7382 65.0776 24.1624 65.0776 18.7274C65.0776 15.7238 63.2184 13.435 58.9202 11.5758C56.3461 10.2887 54.7722 9.57388 54.7722 8.28683C54.7722 7.14245 56.0593 5.99807 58.9202 5.99807C60.7825 5.94224 62.6353 6.28372 64.3553 6.99978L65.0701 7.28512L66.2145 1.70741H66.2295Z" fill="#5F6073"/>
<path opacity="0.8" d="M66.2295 1.70741C64.1261 0.9221 61.8952 0.534069 59.6501 0.563033C52.4985 0.563033 48.6373 4.13884 48.6373 9.28854C48.6373 13.1497 50.9261 15.1456 53.787 16.4401C56.648 17.7347 57.5055 18.5862 57.5055 19.7291C57.5055 21.4457 55.2168 22.3032 53.2149 22.3032C50.8476 22.3556 48.4996 21.8666 46.3501 20.8735L45.3484 20.444L44.3467 26.301C46.9534 27.2642 49.712 27.751 52.491 27.7382C60.0721 27.7382 65.0776 24.1624 65.0776 18.7274C65.0776 15.7238 63.2184 13.435 58.9202 11.5758C56.3461 10.2887 54.7722 9.57388 54.7722 8.28683C54.7722 7.14245 56.0593 5.99807 58.9202 5.99807C60.7825 5.94224 62.6353 6.28372 64.3553 6.99978L65.0701 7.28512L66.2145 1.70741H66.2295Z" fill="#5F6073"/>
<path opacity="0.8" d="M78.5235 1.42029C76.807 1.42029 75.5199 1.57047 74.8051 3.27953L64.0776 27.1583H71.8014L73.2312 22.8676H82.3922L83.2497 27.1583H90.1085L84.1012 1.42029H78.5235ZM75.2406 18.5769C75.6701 17.2899 78.094 10.9958 78.094 10.9958C78.094 10.9958 78.6662 9.42192 79.0957 8.42172L79.5252 10.8531C79.5252 10.8531 80.9474 17.2974 81.2478 18.7271H75.2406V18.5769Z" fill="#5F6073"/>
<path opacity="0.8" d="M80.2401 1.42029C78.5235 1.42029 77.2365 1.57047 76.5216 3.27953L64.0776 27.1583H71.8014L73.2312 22.8676H82.3922L83.2497 27.1583H90.1085L84.1012 1.42029H80.2401ZM75.2406 18.5769C75.8128 17.1472 78.094 10.9958 78.094 10.9958C78.094 10.9958 78.6662 9.42192 79.0957 8.42172L79.5252 10.8531C79.5252 10.8531 80.9474 17.2974 81.2478 18.7271H75.2406V18.5769Z" fill="#5F6073"/>
<path opacity="0.8" d="M19.881 19.4423L19.1662 15.7238C17.3691 10.8341 13.7972 6.80007 9.16113 4.42418L15.5979 27.3087H23.3217L34.9066 1.56323H27.1828L19.881 19.4423Z" fill="#5F6073"/>
<path opacity="0.8" d="M19.881 19.4423L19.1662 15.7238C17.3691 10.8341 13.7972 6.80007 9.16113 4.42418L15.5979 27.3087H23.3217L34.9066 1.56323H28.614L19.881 19.4423Z" fill="#5F6073"/>
<path opacity="0.8" d="M0 1.42051L1.28705 1.70585C10.4481 3.85194 16.7346 9.28698 19.1586 15.7222L16.5845 3.55758C16.1549 1.84102 14.8679 1.4115 13.2955 1.4115L0 1.42051Z" fill="#5F6073"/>
<path opacity="0.8" d="M0 1.42029C9.16103 3.55886 16.7346 9.14408 19.1661 15.5733L16.7346 5.4181C16.5582 4.64139 16.1216 3.94833 15.4971 3.45391C14.8727 2.95948 14.098 2.69341 13.3015 2.69983L0 1.42029Z" fill="#5F6073"/>
<path opacity="0.8" d="M0 1.42029C9.16103 3.55886 16.7346 9.14408 19.1661 15.5733L17.4495 10.0016C17.02 8.28505 16.4478 6.56848 14.4459 5.85362L0 1.42029Z" fill="#5F6073"/>
<g opacity="0.8">
<path opacity="0.8" d="M27.0327 18.5772L22.1699 13.7143L19.8811 19.1494L19.3089 15.5736C17.5084 10.6854 13.9339 6.6541 9.29639 4.28149L15.7331 27.166H23.4569L27.0327 18.5772Z" fill="#5F6073"/>
<path opacity="0.8" d="M40.3343 27.166L34.1769 20.8734L33.04 27.166H40.3343Z" fill="#5F6073"/>
<path opacity="0.8" d="M56.7833 18.298C57.3555 18.8702 57.6409 19.2997 57.4982 19.8719C57.4982 21.5884 55.2094 22.446 53.2075 22.446C50.8403 22.4984 48.4923 22.0094 46.3428 21.0162L45.3411 20.5867L44.3394 26.4438C46.9494 27.4055 49.7111 27.8897 52.4927 27.8735C57.0702 27.8735 60.7887 26.5864 62.9332 24.2977L56.7833 18.298Z" fill="#5F6073"/>
<path opacity="0.8" d="M65.0781 27.1658H71.8017L73.2314 22.8752H82.3925L83.25 27.1658H90.1088L87.6773 16.7252L79.096 8.42926L79.5255 10.718C79.5255 10.718 80.9477 17.1533 81.2481 18.577H75.2409C75.813 17.1473 78.0943 10.9958 78.0943 10.9958C78.0943 10.9958 78.6665 9.42196 79.096 8.42175" fill="#5F6073"/>
</g>
</svg>
