<svg width="267" height="39" viewBox="0 0 267 39" fill="none" xmlns="http://www.w3.org/2000/svg">
<path d="M35.6351 19.1825C35.6351 28.1944 28.3295 35.5 19.3176 35.5C10.3056 35.5 3 28.1944 3 19.1825M166.176 19.1825C166.176 28.1944 158.87 35.5 149.858 35.5C140.846 35.5 133.54 28.1944 133.54 19.1825M100.905 19.1825C100.905 28.1944 93.5997 35.5 84.5878 35.5C75.5759 35.5 68.2702 28.1944 68.2702 19.1825M231.446 19.1825C231.446 28.1944 224.14 35.5 215.128 35.5C206.116 35.5 198.811 28.1944 198.811 19.1825M35.6351 19.3665C35.6351 10.3546 42.9407 2.92627 51.9527 2.92627C60.9646 2.92627 68.2702 10.2319 68.2702 19.2438M166.176 19.3665C166.176 10.3546 173.481 2.92627 182.493 2.92627C191.505 2.92627 198.811 10.2319 198.811 19.2438M100.905 19.3665C100.905 10.3546 108.211 2.92627 117.223 2.92627C126.235 2.92627 133.54 10.2319 133.54 19.2438M231.446 19.3665C231.446 10.3546 238.751 2.92627 247.763 2.92627C256.775 2.92627 264.081 10.2319 264.081 19.2438" stroke="#7579FF" stroke-width="5.64367"/>
</svg>
